<?xml version="1.0" encoding="utf-8"?>
<svg xmlns="http://www.w3.org/2000/svg" xmlns:xlink="http://www.w3.org/1999/xlink" width="600" height="400" viewBox="0 0 2400 1600">
<defs>
  <clipPath id="clip700">
    <rect x="0" y="0" width="2400" height="1600"/>
  </clipPath>
</defs>
<path clip-path="url(#clip700)" d="M0 1600 L2400 1600 L2400 0 L0 0  Z" fill="#ffffff" fill-rule="evenodd" fill-opacity="1"/>
<defs>
  <clipPath id="clip701">
    <rect x="480" y="0" width="1681" height="1600"/>
  </clipPath>
</defs>
<path clip-path="url(#clip700)" d="M232.389 1423.18 L2180.13 1423.18 L2180.13 123.472 L232.389 123.472  Z" fill="#ffffff" fill-rule="evenodd" fill-opacity="1"/>
<defs>
  <clipPath id="clip702">
    <rect x="232" y="123" width="1949" height="1301"/>
  </clipPath>
</defs>
<polyline clip-path="url(#clip702)" style="stroke:#000000; stroke-linecap:round; stroke-linejoin:round; stroke-width:2; stroke-opacity:0.1; fill:none" points="276.511,1423.18 276.511,123.472 "/>
<polyline clip-path="url(#clip702)" style="stroke:#000000; stroke-linecap:round; stroke-linejoin:round; stroke-width:2; stroke-opacity:0.1; fill:none" points="826.659,1423.18 826.659,123.472 "/>
<polyline clip-path="url(#clip702)" style="stroke:#000000; stroke-linecap:round; stroke-linejoin:round; stroke-width:2; stroke-opacity:0.1; fill:none" points="1376.81,1423.18 1376.81,123.472 "/>
<polyline clip-path="url(#clip702)" style="stroke:#000000; stroke-linecap:round; stroke-linejoin:round; stroke-width:2; stroke-opacity:0.1; fill:none" points="1926.96,1423.18 1926.96,123.472 "/>
<polyline clip-path="url(#clip700)" style="stroke:#000000; stroke-linecap:round; stroke-linejoin:round; stroke-width:4; stroke-opacity:1; fill:none" points="232.389,1423.18 2180.13,1423.18 "/>
<polyline clip-path="url(#clip700)" style="stroke:#000000; stroke-linecap:round; stroke-linejoin:round; stroke-width:4; stroke-opacity:1; fill:none" points="276.511,1423.18 276.511,1404.28 "/>
<polyline clip-path="url(#clip700)" style="stroke:#000000; stroke-linecap:round; stroke-linejoin:round; stroke-width:4; stroke-opacity:1; fill:none" points="826.659,1423.18 826.659,1404.28 "/>
<polyline clip-path="url(#clip700)" style="stroke:#000000; stroke-linecap:round; stroke-linejoin:round; stroke-width:4; stroke-opacity:1; fill:none" points="1376.81,1423.18 1376.81,1404.28 "/>
<polyline clip-path="url(#clip700)" style="stroke:#000000; stroke-linecap:round; stroke-linejoin:round; stroke-width:4; stroke-opacity:1; fill:none" points="1926.96,1423.18 1926.96,1404.28 "/>
<path clip-path="url(#clip700)" d="M276.511 1454.1 Q272.9 1454.1 271.071 1457.66 Q269.266 1461.2 269.266 1468.33 Q269.266 1475.44 271.071 1479.01 Q272.9 1482.55 276.511 1482.55 Q280.145 1482.55 281.951 1479.01 Q283.78 1475.44 283.78 1468.33 Q283.78 1461.2 281.951 1457.66 Q280.145 1454.1 276.511 1454.1 M276.511 1450.39 Q282.321 1450.39 285.377 1455 Q288.456 1459.58 288.456 1468.33 Q288.456 1477.06 285.377 1481.67 Q282.321 1486.25 276.511 1486.25 Q270.701 1486.25 267.622 1481.67 Q264.567 1477.06 264.567 1468.33 Q264.567 1459.58 267.622 1455 Q270.701 1450.39 276.511 1450.39 Z" fill="#000000" fill-rule="evenodd" fill-opacity="1" /><path clip-path="url(#clip700)" d="M801.359 1451.02 L819.715 1451.02 L819.715 1454.96 L805.641 1454.96 L805.641 1463.43 Q806.659 1463.08 807.678 1462.92 Q808.696 1462.73 809.715 1462.73 Q815.502 1462.73 818.882 1465.9 Q822.261 1469.08 822.261 1474.49 Q822.261 1480.07 818.789 1483.17 Q815.317 1486.25 808.997 1486.25 Q806.821 1486.25 804.553 1485.88 Q802.308 1485.51 799.9 1484.77 L799.9 1480.07 Q801.984 1481.2 804.206 1481.76 Q806.428 1482.32 808.905 1482.32 Q812.909 1482.32 815.247 1480.21 Q817.585 1478.1 817.585 1474.49 Q817.585 1470.88 815.247 1468.77 Q812.909 1466.67 808.905 1466.67 Q807.03 1466.67 805.155 1467.08 Q803.303 1467.5 801.359 1468.38 L801.359 1451.02 Z" fill="#000000" fill-rule="evenodd" fill-opacity="1" /><path clip-path="url(#clip700)" d="M841.474 1454.1 Q837.863 1454.1 836.034 1457.66 Q834.229 1461.2 834.229 1468.33 Q834.229 1475.44 836.034 1479.01 Q837.863 1482.55 841.474 1482.55 Q845.108 1482.55 846.914 1479.01 Q848.743 1475.44 848.743 1468.33 Q848.743 1461.2 846.914 1457.66 Q845.108 1454.1 841.474 1454.1 M841.474 1450.39 Q847.284 1450.39 850.34 1455 Q853.418 1459.58 853.418 1468.33 Q853.418 1477.06 850.34 1481.67 Q847.284 1486.25 841.474 1486.25 Q835.664 1486.25 832.585 1481.67 Q829.53 1477.06 829.53 1468.33 Q829.53 1459.58 832.585 1455 Q835.664 1450.39 841.474 1450.39 Z" fill="#000000" fill-rule="evenodd" fill-opacity="1" /><path clip-path="url(#clip700)" d="M1336.41 1481.64 L1344.05 1481.64 L1344.05 1455.28 L1335.74 1456.95 L1335.74 1452.69 L1344.01 1451.02 L1348.68 1451.02 L1348.68 1481.64 L1356.32 1481.64 L1356.32 1485.58 L1336.41 1485.58 L1336.41 1481.64 Z" fill="#000000" fill-rule="evenodd" fill-opacity="1" /><path clip-path="url(#clip700)" d="M1375.77 1454.1 Q1372.15 1454.1 1370.33 1457.66 Q1368.52 1461.2 1368.52 1468.33 Q1368.52 1475.44 1370.33 1479.01 Q1372.15 1482.55 1375.77 1482.55 Q1379.4 1482.55 1381.21 1479.01 Q1383.03 1475.44 1383.03 1468.33 Q1383.03 1461.2 1381.21 1457.66 Q1379.4 1454.1 1375.77 1454.1 M1375.77 1450.39 Q1381.58 1450.39 1384.63 1455 Q1387.71 1459.58 1387.71 1468.33 Q1387.71 1477.06 1384.63 1481.67 Q1381.58 1486.25 1375.77 1486.25 Q1369.96 1486.25 1366.88 1481.67 Q1363.82 1477.06 1363.82 1468.33 Q1363.82 1459.58 1366.88 1455 Q1369.96 1450.39 1375.77 1450.39 Z" fill="#000000" fill-rule="evenodd" fill-opacity="1" /><path clip-path="url(#clip700)" d="M1405.93 1454.1 Q1402.32 1454.1 1400.49 1457.66 Q1398.68 1461.2 1398.68 1468.33 Q1398.68 1475.44 1400.49 1479.01 Q1402.32 1482.55 1405.93 1482.55 Q1409.56 1482.55 1411.37 1479.01 Q1413.2 1475.44 1413.2 1468.33 Q1413.2 1461.2 1411.37 1457.66 Q1409.56 1454.1 1405.93 1454.1 M1405.93 1450.39 Q1411.74 1450.39 1414.79 1455 Q1417.87 1459.58 1417.87 1468.33 Q1417.87 1477.06 1414.79 1481.67 Q1411.74 1486.25 1405.93 1486.25 Q1400.12 1486.25 1397.04 1481.67 Q1393.98 1477.06 1393.98 1468.33 Q1393.98 1459.58 1397.04 1455 Q1400.12 1450.39 1405.93 1450.39 Z" fill="#000000" fill-rule="evenodd" fill-opacity="1" /><path clip-path="url(#clip700)" d="M1886.56 1481.64 L1894.2 1481.64 L1894.2 1455.28 L1885.89 1456.95 L1885.89 1452.69 L1894.15 1451.02 L1898.83 1451.02 L1898.83 1481.64 L1906.47 1481.64 L1906.47 1485.58 L1886.56 1485.58 L1886.56 1481.64 Z" fill="#000000" fill-rule="evenodd" fill-opacity="1" /><path clip-path="url(#clip700)" d="M1915.96 1451.02 L1934.32 1451.02 L1934.32 1454.96 L1920.24 1454.96 L1920.24 1463.43 Q1921.26 1463.08 1922.28 1462.92 Q1923.3 1462.73 1924.32 1462.73 Q1930.1 1462.73 1933.48 1465.9 Q1936.86 1469.08 1936.86 1474.49 Q1936.86 1480.07 1933.39 1483.17 Q1929.92 1486.25 1923.6 1486.25 Q1921.42 1486.25 1919.15 1485.88 Q1916.91 1485.51 1914.5 1484.77 L1914.5 1480.07 Q1916.59 1481.2 1918.81 1481.76 Q1921.03 1482.32 1923.51 1482.32 Q1927.51 1482.32 1929.85 1480.21 Q1932.19 1478.1 1932.19 1474.49 Q1932.19 1470.88 1929.85 1468.77 Q1927.51 1466.67 1923.51 1466.67 Q1921.63 1466.67 1919.76 1467.08 Q1917.9 1467.5 1915.96 1468.38 L1915.96 1451.02 Z" fill="#000000" fill-rule="evenodd" fill-opacity="1" /><path clip-path="url(#clip700)" d="M1956.08 1454.1 Q1952.46 1454.1 1950.64 1457.66 Q1948.83 1461.2 1948.83 1468.33 Q1948.83 1475.44 1950.64 1479.01 Q1952.46 1482.55 1956.08 1482.55 Q1959.71 1482.55 1961.52 1479.01 Q1963.34 1475.44 1963.34 1468.33 Q1963.34 1461.2 1961.52 1457.66 Q1959.71 1454.1 1956.08 1454.1 M1956.08 1450.39 Q1961.89 1450.39 1964.94 1455 Q1968.02 1459.58 1968.02 1468.33 Q1968.02 1477.06 1964.94 1481.67 Q1961.89 1486.25 1956.08 1486.25 Q1950.27 1486.25 1947.19 1481.67 Q1944.13 1477.06 1944.13 1468.33 Q1944.13 1459.58 1947.19 1455 Q1950.27 1450.39 1956.08 1450.39 Z" fill="#000000" fill-rule="evenodd" fill-opacity="1" /><path clip-path="url(#clip700)" d="M1128.14 1520.52 L1168.34 1520.52 L1168.34 1525.93 L1151.47 1525.93 L1151.47 1568.04 L1145.01 1568.04 L1145.01 1525.93 L1128.14 1525.93 L1128.14 1520.52 Z" fill="#000000" fill-rule="evenodd" fill-opacity="1" /><path clip-path="url(#clip700)" d="M1172.28 1532.4 L1178.14 1532.4 L1178.14 1568.04 L1172.28 1568.04 L1172.28 1532.4 M1172.28 1518.52 L1178.14 1518.52 L1178.14 1525.93 L1172.28 1525.93 L1172.28 1518.52 Z" fill="#000000" fill-rule="evenodd" fill-opacity="1" /><path clip-path="url(#clip700)" d="M1218.15 1539.24 Q1220.35 1535.29 1223.4 1533.41 Q1226.46 1531.54 1230.59 1531.54 Q1236.16 1531.54 1239.19 1535.45 Q1242.21 1539.33 1242.21 1546.53 L1242.21 1568.04 L1236.32 1568.04 L1236.32 1546.72 Q1236.32 1541.59 1234.51 1539.11 Q1232.7 1536.63 1228.97 1536.63 Q1224.42 1536.63 1221.78 1539.65 Q1219.14 1542.68 1219.14 1547.9 L1219.14 1568.04 L1213.25 1568.04 L1213.25 1546.72 Q1213.25 1541.56 1211.43 1539.11 Q1209.62 1536.63 1205.83 1536.63 Q1201.34 1536.63 1198.7 1539.68 Q1196.06 1542.71 1196.06 1547.9 L1196.06 1568.04 L1190.17 1568.04 L1190.17 1532.4 L1196.06 1532.4 L1196.06 1537.93 Q1198.07 1534.66 1200.87 1533.1 Q1203.67 1531.54 1207.52 1531.54 Q1211.4 1531.54 1214.11 1533.51 Q1216.84 1535.48 1218.15 1539.24 Z" fill="#000000" fill-rule="evenodd" fill-opacity="1" /><path clip-path="url(#clip700)" d="M1284.38 1548.76 L1284.38 1551.62 L1257.46 1551.62 Q1257.84 1557.67 1261.09 1560.85 Q1264.36 1564 1270.19 1564 Q1273.56 1564 1276.71 1563.17 Q1279.9 1562.35 1283.02 1560.69 L1283.02 1566.23 Q1279.87 1567.57 1276.55 1568.27 Q1273.24 1568.97 1269.84 1568.97 Q1261.31 1568.97 1256.31 1564 Q1251.35 1559.04 1251.35 1550.57 Q1251.35 1541.82 1256.06 1536.69 Q1260.8 1531.54 1268.82 1531.54 Q1276.01 1531.54 1280.18 1536.18 Q1284.38 1540.8 1284.38 1548.76 M1278.53 1547.04 Q1278.46 1542.23 1275.82 1539.37 Q1273.21 1536.5 1268.88 1536.5 Q1263.98 1536.5 1261.02 1539.27 Q1258.09 1542.04 1257.65 1547.07 L1278.53 1547.04 Z" fill="#000000" fill-rule="evenodd" fill-opacity="1" /><polyline clip-path="url(#clip700)" style="stroke:#000000; stroke-linecap:round; stroke-linejoin:round; stroke-width:4; stroke-opacity:1; fill:none" points="232.389,1423.18 232.389,123.472 "/>
<polyline clip-path="url(#clip700)" style="stroke:#000000; stroke-linecap:round; stroke-linejoin:round; stroke-width:4; stroke-opacity:1; fill:none" points="232.389,1386.4 251.287,1386.4 "/>
<polyline clip-path="url(#clip700)" style="stroke:#000000; stroke-linecap:round; stroke-linejoin:round; stroke-width:4; stroke-opacity:1; fill:none" points="232.389,1045.22 251.287,1045.22 "/>
<polyline clip-path="url(#clip700)" style="stroke:#000000; stroke-linecap:round; stroke-linejoin:round; stroke-width:4; stroke-opacity:1; fill:none" points="232.389,704.053 251.287,704.053 "/>
<polyline clip-path="url(#clip700)" style="stroke:#000000; stroke-linecap:round; stroke-linejoin:round; stroke-width:4; stroke-opacity:1; fill:none" points="232.389,362.882 251.287,362.882 "/>
<path clip-path="url(#clip700)" d="M184.445 1372.19 Q180.834 1372.19 179.005 1375.76 Q177.2 1379.3 177.2 1386.43 Q177.2 1393.54 179.005 1397.1 Q180.834 1400.64 184.445 1400.64 Q188.079 1400.64 189.885 1397.1 Q191.713 1393.54 191.713 1386.43 Q191.713 1379.3 189.885 1375.76 Q188.079 1372.19 184.445 1372.19 M184.445 1368.49 Q190.255 1368.49 193.311 1373.1 Q196.389 1377.68 196.389 1386.43 Q196.389 1395.16 193.311 1399.76 Q190.255 1404.35 184.445 1404.35 Q178.635 1404.35 175.556 1399.76 Q172.501 1395.16 172.501 1386.43 Q172.501 1377.68 175.556 1373.1 Q178.635 1368.49 184.445 1368.49 Z" fill="#000000" fill-rule="evenodd" fill-opacity="1" /><path clip-path="url(#clip700)" d="M144.329 1027.94 L162.686 1027.94 L162.686 1031.88 L148.612 1031.88 L148.612 1040.35 Q149.63 1040 150.649 1039.84 Q151.667 1039.66 152.686 1039.66 Q158.473 1039.66 161.852 1042.83 Q165.232 1046 165.232 1051.42 Q165.232 1057 161.76 1060.1 Q158.288 1063.18 151.968 1063.18 Q149.792 1063.18 147.524 1062.81 Q145.279 1062.44 142.871 1061.69 L142.871 1057 Q144.954 1058.13 147.177 1058.69 Q149.399 1059.24 151.876 1059.24 Q155.88 1059.24 158.218 1057.13 Q160.556 1055.03 160.556 1051.42 Q160.556 1047.81 158.218 1045.7 Q155.88 1043.59 151.876 1043.59 Q150.001 1043.59 148.126 1044.01 Q146.274 1044.43 144.329 1045.31 L144.329 1027.94 Z" fill="#000000" fill-rule="evenodd" fill-opacity="1" /><path clip-path="url(#clip700)" d="M184.445 1031.02 Q180.834 1031.02 179.005 1034.59 Q177.2 1038.13 177.2 1045.26 Q177.2 1052.37 179.005 1055.93 Q180.834 1059.47 184.445 1059.47 Q188.079 1059.47 189.885 1055.93 Q191.713 1052.37 191.713 1045.26 Q191.713 1038.13 189.885 1034.59 Q188.079 1031.02 184.445 1031.02 M184.445 1027.32 Q190.255 1027.32 193.311 1031.93 Q196.389 1036.51 196.389 1045.26 Q196.389 1053.99 193.311 1058.59 Q190.255 1063.18 184.445 1063.18 Q178.635 1063.18 175.556 1058.59 Q172.501 1053.99 172.501 1045.26 Q172.501 1036.51 175.556 1031.93 Q178.635 1027.32 184.445 1027.32 Z" fill="#000000" fill-rule="evenodd" fill-opacity="1" /><path clip-path="url(#clip700)" d="M114.931 717.398 L122.57 717.398 L122.57 691.033 L114.26 692.699 L114.26 688.44 L122.524 686.773 L127.2 686.773 L127.2 717.398 L134.839 717.398 L134.839 721.333 L114.931 721.333 L114.931 717.398 Z" fill="#000000" fill-rule="evenodd" fill-opacity="1" /><path clip-path="url(#clip700)" d="M154.283 689.852 Q150.672 689.852 148.843 693.417 Q147.038 696.959 147.038 704.088 Q147.038 711.195 148.843 714.759 Q150.672 718.301 154.283 718.301 Q157.917 718.301 159.723 714.759 Q161.552 711.195 161.552 704.088 Q161.552 696.959 159.723 693.417 Q157.917 689.852 154.283 689.852 M154.283 686.148 Q160.093 686.148 163.149 690.755 Q166.227 695.338 166.227 704.088 Q166.227 712.815 163.149 717.421 Q160.093 722.005 154.283 722.005 Q148.473 722.005 145.394 717.421 Q142.339 712.815 142.339 704.088 Q142.339 695.338 145.394 690.755 Q148.473 686.148 154.283 686.148 Z" fill="#000000" fill-rule="evenodd" fill-opacity="1" /><path clip-path="url(#clip700)" d="M184.445 689.852 Q180.834 689.852 179.005 693.417 Q177.2 696.959 177.2 704.088 Q177.2 711.195 179.005 714.759 Q180.834 718.301 184.445 718.301 Q188.079 718.301 189.885 714.759 Q191.713 711.195 191.713 704.088 Q191.713 696.959 189.885 693.417 Q188.079 689.852 184.445 689.852 M184.445 686.148 Q190.255 686.148 193.311 690.755 Q196.389 695.338 196.389 704.088 Q196.389 712.815 193.311 717.421 Q190.255 722.005 184.445 722.005 Q178.635 722.005 175.556 717.421 Q172.501 712.815 172.501 704.088 Q172.501 695.338 175.556 690.755 Q178.635 686.148 184.445 686.148 Z" fill="#000000" fill-rule="evenodd" fill-opacity="1" /><path clip-path="url(#clip700)" d="M114.931 376.227 L122.57 376.227 L122.57 349.861 L114.26 351.528 L114.26 347.269 L122.524 345.602 L127.2 345.602 L127.2 376.227 L134.839 376.227 L134.839 380.162 L114.931 380.162 L114.931 376.227 Z" fill="#000000" fill-rule="evenodd" fill-opacity="1" /><path clip-path="url(#clip700)" d="M144.329 345.602 L162.686 345.602 L162.686 349.537 L148.612 349.537 L148.612 358.01 Q149.63 357.662 150.649 357.5 Q151.667 357.315 152.686 357.315 Q158.473 357.315 161.852 360.486 Q165.232 363.658 165.232 369.074 Q165.232 374.653 161.76 377.755 Q158.288 380.834 151.968 380.834 Q149.792 380.834 147.524 380.463 Q145.279 380.093 142.871 379.352 L142.871 374.653 Q144.954 375.787 147.177 376.343 Q149.399 376.898 151.876 376.898 Q155.88 376.898 158.218 374.792 Q160.556 372.685 160.556 369.074 Q160.556 365.463 158.218 363.357 Q155.88 361.25 151.876 361.25 Q150.001 361.25 148.126 361.667 Q146.274 362.084 144.329 362.963 L144.329 345.602 Z" fill="#000000" fill-rule="evenodd" fill-opacity="1" /><path clip-path="url(#clip700)" d="M184.445 348.681 Q180.834 348.681 179.005 352.246 Q177.2 355.787 177.2 362.917 Q177.2 370.023 179.005 373.588 Q180.834 377.13 184.445 377.13 Q188.079 377.13 189.885 373.588 Q191.713 370.023 191.713 362.917 Q191.713 355.787 189.885 352.246 Q188.079 348.681 184.445 348.681 M184.445 344.977 Q190.255 344.977 193.311 349.584 Q196.389 354.167 196.389 362.917 Q196.389 371.644 193.311 376.25 Q190.255 380.834 184.445 380.834 Q178.635 380.834 175.556 376.25 Q172.501 371.644 172.501 362.917 Q172.501 354.167 175.556 349.584 Q178.635 344.977 184.445 344.977 Z" fill="#000000" fill-rule="evenodd" fill-opacity="1" /><path clip-path="url(#clip700)" d="M16.4842 1001.19 L16.4842 994.757 L35.9632 994.757 L35.9632 971.395 L16.4842 971.395 L16.4842 964.966 L64.0042 964.966 L64.0042 971.395 L41.3741 971.395 L41.3741 994.757 L64.0042 994.757 L64.0042 1001.19 L16.4842 1001.19 Z" fill="#000000" fill-rule="evenodd" fill-opacity="1" /><path clip-path="url(#clip700)" d="M67.3143 937.593 Q73.68 940.076 75.6216 942.431 Q77.5631 944.786 77.5631 948.733 L77.5631 953.412 L72.6615 953.412 L72.6615 949.974 Q72.6615 947.555 71.5157 946.219 Q70.3699 944.882 66.1048 943.259 L63.4312 942.208 L28.3562 956.627 L28.3562 950.42 L56.238 939.28 L28.3562 928.14 L28.3562 921.933 L67.3143 937.593 Z" fill="#000000" fill-rule="evenodd" fill-opacity="1" /><path clip-path="url(#clip700)" d="M33.7671 890.391 L14.479 890.391 L14.479 884.535 L64.0042 884.535 L64.0042 890.391 L58.657 890.391 Q61.8398 892.237 63.3994 895.07 Q64.9272 897.871 64.9272 901.818 Q64.9272 908.279 59.771 912.353 Q54.6147 916.395 46.212 916.395 Q37.8093 916.395 32.6531 912.353 Q27.4968 908.279 27.4968 901.818 Q27.4968 897.871 29.0564 895.07 Q30.5842 892.237 33.7671 890.391 M46.212 910.348 Q52.6732 910.348 56.3653 907.706 Q60.0256 905.032 60.0256 900.385 Q60.0256 895.739 56.3653 893.065 Q52.6732 890.391 46.212 890.391 Q39.7508 890.391 36.0905 893.065 Q32.3984 895.739 32.3984 900.385 Q32.3984 905.032 36.0905 907.706 Q39.7508 910.348 46.212 910.348 Z" fill="#000000" fill-rule="evenodd" fill-opacity="1" /><path clip-path="url(#clip700)" d="M33.8307 851.815 Q33.2578 852.802 33.0032 853.979 Q32.7167 855.125 32.7167 856.526 Q32.7167 861.491 35.9632 864.165 Q39.1779 866.806 45.2253 866.806 L64.0042 866.806 L64.0042 872.695 L28.3562 872.695 L28.3562 866.806 L33.8944 866.806 Q30.6479 864.96 29.0883 862 Q27.4968 859.04 27.4968 854.807 Q27.4968 854.202 27.5923 853.47 Q27.656 852.738 27.8151 851.847 L33.8307 851.815 Z" fill="#000000" fill-rule="evenodd" fill-opacity="1" /><path clip-path="url(#clip700)" d="M32.4621 833.291 Q32.4621 838.002 36.1542 840.739 Q39.8145 843.476 46.212 843.476 Q52.6095 843.476 56.3017 840.771 Q59.9619 838.033 59.9619 833.291 Q59.9619 828.612 56.2698 825.875 Q52.5777 823.138 46.212 823.138 Q39.8781 823.138 36.186 825.875 Q32.4621 828.612 32.4621 833.291 M27.4968 833.291 Q27.4968 825.652 32.4621 821.292 Q37.4273 816.931 46.212 816.931 Q54.9649 816.931 59.9619 821.292 Q64.9272 825.652 64.9272 833.291 Q64.9272 840.962 59.9619 845.322 Q54.9649 849.651 46.212 849.651 Q37.4273 849.651 32.4621 845.322 Q27.4968 840.962 27.4968 833.291 Z" fill="#000000" fill-rule="evenodd" fill-opacity="1" /><path clip-path="url(#clip700)" d="M45.7664 783.766 Q39.4007 783.766 35.8996 786.408 Q32.3984 789.017 32.3984 793.76 Q32.3984 798.471 35.8996 801.112 Q39.4007 803.722 45.7664 803.722 Q52.1003 803.722 55.6014 801.112 Q59.1026 798.471 59.1026 793.76 Q59.1026 789.017 55.6014 786.408 Q52.1003 783.766 45.7664 783.766 M59.58 777.909 Q68.683 777.909 73.1071 781.952 Q77.5631 785.994 77.5631 794.333 Q77.5631 797.42 77.0857 800.157 Q76.6401 802.895 75.6852 805.473 L69.9879 805.473 Q71.3884 802.895 72.0568 800.38 Q72.7252 797.866 72.7252 795.256 Q72.7252 789.495 69.7015 786.63 Q66.7096 783.766 60.6303 783.766 L57.7339 783.766 Q60.885 785.58 62.4446 788.413 Q64.0042 791.245 64.0042 795.192 Q64.0042 801.749 59.0071 805.759 Q54.01 809.77 45.7664 809.77 Q37.491 809.77 32.4939 805.759 Q27.4968 801.749 27.4968 795.192 Q27.4968 791.245 29.0564 788.413 Q30.616 785.58 33.7671 783.766 L28.3562 783.766 L28.3562 777.909 L59.58 777.909 Z" fill="#000000" fill-rule="evenodd" fill-opacity="1" /><path clip-path="url(#clip700)" d="M44.7161 735.355 L47.5806 735.355 L47.5806 762.281 Q53.6281 761.9 56.8109 758.653 Q59.9619 755.375 59.9619 749.55 Q59.9619 746.176 59.1344 743.025 Q58.3069 739.842 56.6518 736.723 L62.1899 736.723 Q63.5267 739.874 64.227 743.184 Q64.9272 746.495 64.9272 749.9 Q64.9272 758.43 59.9619 763.427 Q54.9967 768.393 46.5303 768.393 Q37.7774 768.393 32.6531 763.682 Q27.4968 758.939 27.4968 750.919 Q27.4968 743.725 32.1438 739.556 Q36.7589 735.355 44.7161 735.355 M42.9973 741.211 Q38.1912 741.275 35.3266 743.916 Q32.4621 746.526 32.4621 750.855 Q32.4621 755.757 35.2312 758.717 Q38.0002 761.645 43.0292 762.091 L42.9973 741.211 Z" fill="#000000" fill-rule="evenodd" fill-opacity="1" /><path clip-path="url(#clip700)" d="M42.4881 696.11 L64.0042 696.11 L64.0042 701.966 L42.679 701.966 Q37.6183 701.966 35.1038 703.94 Q32.5894 705.913 32.5894 709.86 Q32.5894 714.602 35.6131 717.34 Q38.6368 720.077 43.8567 720.077 L64.0042 720.077 L64.0042 725.965 L28.3562 725.965 L28.3562 720.077 L33.8944 720.077 Q30.6797 717.976 29.0883 715.143 Q27.4968 712.279 27.4968 708.555 Q27.4968 702.412 31.3163 699.261 Q35.1038 696.11 42.4881 696.11 Z" fill="#000000" fill-rule="evenodd" fill-opacity="1" /><path clip-path="url(#clip700)" d="M14.5426 649.64 Q21.8632 653.905 29.0246 655.974 Q36.186 658.043 43.5384 658.043 Q50.8908 658.043 58.1159 655.974 Q65.3091 653.873 72.5979 649.64 L72.5979 654.733 Q65.1182 659.507 57.8931 661.894 Q50.668 664.25 43.5384 664.25 Q36.4406 664.25 29.2474 661.894 Q22.0542 659.539 14.5426 654.733 L14.5426 649.64 Z" fill="#000000" fill-rule="evenodd" fill-opacity="1" /><path clip-path="url(#clip700)" d="M14.479 638.5 L14.479 632.612 L43.7294 632.612 L28.3562 615.138 L28.3562 607.658 L45.0344 626.565 L64.0042 606.863 L64.0042 614.502 L46.5939 632.612 L64.0042 632.612 L64.0042 638.5 L14.479 638.5 Z" fill="#000000" fill-rule="evenodd" fill-opacity="1" /><path clip-path="url(#clip700)" d="M45.7664 577.071 Q39.4007 577.071 35.8996 579.713 Q32.3984 582.323 32.3984 587.065 Q32.3984 591.776 35.8996 594.418 Q39.4007 597.028 45.7664 597.028 Q52.1003 597.028 55.6014 594.418 Q59.1026 591.776 59.1026 587.065 Q59.1026 582.323 55.6014 579.713 Q52.1003 577.071 45.7664 577.071 M59.58 571.215 Q68.683 571.215 73.1071 575.257 Q77.5631 579.299 77.5631 587.638 Q77.5631 590.726 77.0857 593.463 Q76.6401 596.2 75.6852 598.778 L69.9879 598.778 Q71.3884 596.2 72.0568 593.686 Q72.7252 591.171 72.7252 588.561 Q72.7252 582.8 69.7015 579.936 Q66.7096 577.071 60.6303 577.071 L57.7339 577.071 Q60.885 578.885 62.4446 581.718 Q64.0042 584.551 64.0042 588.498 Q64.0042 595.054 59.0071 599.065 Q54.01 603.075 45.7664 603.075 Q37.491 603.075 32.4939 599.065 Q27.4968 595.054 27.4968 588.498 Q27.4968 584.551 29.0564 581.718 Q30.616 578.885 33.7671 577.071 L28.3562 577.071 L28.3562 571.215 L59.58 571.215 Z" fill="#000000" fill-rule="evenodd" fill-opacity="1" /><path clip-path="url(#clip700)" d="M14.5426 560.075 L14.5426 554.982 Q22.0542 550.208 29.2474 547.853 Q36.4406 545.466 43.5384 545.466 Q50.668 545.466 57.8931 547.853 Q65.1182 550.208 72.5979 554.982 L72.5979 560.075 Q65.3091 555.842 58.1159 553.773 Q50.8908 551.672 43.5384 551.672 Q36.186 551.672 29.0246 553.773 Q21.8632 555.842 14.5426 560.075 Z" fill="#000000" fill-rule="evenodd" fill-opacity="1" /><path clip-path="url(#clip700)" d="M911.72 12.096 L919.903 12.096 L919.903 36.8875 L949.637 36.8875 L949.637 12.096 L957.82 12.096 L957.82 72.576 L949.637 72.576 L949.637 43.7741 L919.903 43.7741 L919.903 72.576 L911.72 72.576 L911.72 12.096 Z" fill="#000000" fill-rule="evenodd" fill-opacity="1" /><path clip-path="url(#clip700)" d="M992.657 76.7889 Q989.498 84.8907 986.5 87.3618 Q983.502 89.8329 978.479 89.8329 L972.524 89.8329 L972.524 83.5945 L976.899 83.5945 Q979.978 83.5945 981.679 82.1361 Q983.381 80.6778 985.447 75.2496 L986.784 71.8468 L968.433 27.2059 L976.332 27.2059 L990.51 62.6918 L1004.69 27.2059 L1012.59 27.2059 L992.657 76.7889 Z" fill="#000000" fill-rule="evenodd" fill-opacity="1" /><path clip-path="url(#clip700)" d="M1052.73 34.0924 L1052.73 9.54393 L1060.19 9.54393 L1060.19 72.576 L1052.73 72.576 L1052.73 65.7705 Q1050.38 69.8214 1046.78 71.8063 Q1043.21 73.7508 1038.19 73.7508 Q1029.97 73.7508 1024.78 67.1883 Q1019.64 60.6258 1019.64 49.9314 Q1019.64 39.2371 1024.78 32.6746 Q1029.97 26.1121 1038.19 26.1121 Q1043.21 26.1121 1046.78 28.0971 Q1050.38 30.0415 1052.73 34.0924 M1027.33 49.9314 Q1027.33 58.1548 1030.7 62.8538 Q1034.1 67.5124 1040.01 67.5124 Q1045.93 67.5124 1049.33 62.8538 Q1052.73 58.1548 1052.73 49.9314 Q1052.73 41.7081 1049.33 37.0496 Q1045.93 32.3505 1040.01 32.3505 Q1034.1 32.3505 1030.7 37.0496 Q1027.33 41.7081 1027.33 49.9314 Z" fill="#000000" fill-rule="evenodd" fill-opacity="1" /><path clip-path="url(#clip700)" d="M1101.83 34.1734 Q1100.57 33.4443 1099.07 33.1202 Q1097.62 32.7556 1095.83 32.7556 Q1089.51 32.7556 1086.11 36.8875 Q1082.75 40.9789 1082.75 48.6757 L1082.75 72.576 L1075.26 72.576 L1075.26 27.2059 L1082.75 27.2059 L1082.75 34.2544 Q1085.1 30.1225 1088.87 28.1376 Q1092.63 26.1121 1098.02 26.1121 Q1098.79 26.1121 1099.72 26.2337 Q1100.65 26.3147 1101.79 26.5172 L1101.83 34.1734 Z" fill="#000000" fill-rule="evenodd" fill-opacity="1" /><path clip-path="url(#clip700)" d="M1125.41 32.4315 Q1119.41 32.4315 1115.93 37.1306 Q1112.44 41.7891 1112.44 49.9314 Q1112.44 58.0738 1115.89 62.7728 Q1119.37 67.4314 1125.41 67.4314 Q1131.36 67.4314 1134.84 62.7323 Q1138.33 58.0333 1138.33 49.9314 Q1138.33 41.8701 1134.84 37.1711 Q1131.36 32.4315 1125.41 32.4315 M1125.41 26.1121 Q1135.13 26.1121 1140.68 32.4315 Q1146.23 38.7509 1146.23 49.9314 Q1146.23 61.0714 1140.68 67.4314 Q1135.13 73.7508 1125.41 73.7508 Q1115.64 73.7508 1110.09 67.4314 Q1104.58 61.0714 1104.58 49.9314 Q1104.58 38.7509 1110.09 32.4315 Q1115.64 26.1121 1125.41 26.1121 Z" fill="#000000" fill-rule="evenodd" fill-opacity="1" /><path clip-path="url(#clip700)" d="M1188.44 49.3643 Q1188.44 41.2625 1185.08 36.8065 Q1181.75 32.3505 1175.72 32.3505 Q1169.72 32.3505 1166.36 36.8065 Q1163.04 41.2625 1163.04 49.3643 Q1163.04 57.4256 1166.36 61.8816 Q1169.72 66.3376 1175.72 66.3376 Q1181.75 66.3376 1185.08 61.8816 Q1188.44 57.4256 1188.44 49.3643 M1195.89 66.9452 Q1195.89 78.5308 1190.75 84.1616 Q1185.6 89.8329 1174.99 89.8329 Q1171.06 89.8329 1167.58 89.2252 Q1164.09 88.6581 1160.81 87.4428 L1160.81 80.1917 Q1164.09 81.9741 1167.29 82.8248 Q1170.49 83.6755 1173.81 83.6755 Q1181.15 83.6755 1184.79 79.8271 Q1188.44 76.0193 1188.44 68.282 L1188.44 64.5957 Q1186.13 68.6061 1182.52 70.5911 Q1178.92 72.576 1173.89 72.576 Q1165.55 72.576 1160.45 66.2161 Q1155.34 59.8562 1155.34 49.3643 Q1155.34 38.832 1160.45 32.472 Q1165.55 26.1121 1173.89 26.1121 Q1178.92 26.1121 1182.52 28.0971 Q1186.13 30.082 1188.44 34.0924 L1188.44 27.2059 L1195.89 27.2059 L1195.89 66.9452 Z" fill="#000000" fill-rule="evenodd" fill-opacity="1" /><path clip-path="url(#clip700)" d="M1250.05 48.0275 L1250.05 51.6733 L1215.78 51.6733 Q1216.27 59.3701 1220.4 63.421 Q1224.57 67.4314 1231.98 67.4314 Q1236.28 67.4314 1240.29 66.3781 Q1244.34 65.3249 1248.31 63.2184 L1248.31 70.267 Q1244.3 71.9684 1240.09 72.8596 Q1235.87 73.7508 1231.54 73.7508 Q1220.68 73.7508 1214.32 67.4314 Q1208 61.1119 1208 50.3365 Q1208 39.1965 1214 32.6746 Q1220.03 26.1121 1230.24 26.1121 Q1239.4 26.1121 1244.7 32.0264 Q1250.05 37.9003 1250.05 48.0275 M1242.6 45.84 Q1242.52 39.7232 1239.15 36.0774 Q1235.83 32.4315 1230.32 32.4315 Q1224.09 32.4315 1220.32 35.9558 Q1216.59 39.4801 1216.02 45.8805 L1242.6 45.84 Z" fill="#000000" fill-rule="evenodd" fill-opacity="1" /><path clip-path="url(#clip700)" d="M1300 45.1919 L1300 72.576 L1292.55 72.576 L1292.55 45.4349 Q1292.55 38.994 1290.03 35.7938 Q1287.52 32.5936 1282.5 32.5936 Q1276.46 32.5936 1272.98 36.4419 Q1269.5 40.2903 1269.5 46.9338 L1269.5 72.576 L1262 72.576 L1262 27.2059 L1269.5 27.2059 L1269.5 34.2544 Q1272.17 30.163 1275.78 28.1376 Q1279.42 26.1121 1284.16 26.1121 Q1291.98 26.1121 1295.99 30.9732 Q1300 35.7938 1300 45.1919 Z" fill="#000000" fill-rule="evenodd" fill-opacity="1" /><path clip-path="url(#clip700)" d="M1364.21 9.54393 L1364.21 15.7418 L1357.08 15.7418 Q1353.07 15.7418 1351.49 17.3622 Q1349.95 18.9825 1349.95 23.1955 L1349.95 27.2059 L1362.22 27.2059 L1362.22 32.9987 L1349.95 32.9987 L1349.95 72.576 L1342.45 72.576 L1342.45 32.9987 L1335.32 32.9987 L1335.32 27.2059 L1342.45 27.2059 L1342.45 24.0462 Q1342.45 16.471 1345.98 13.0277 Q1349.5 9.54393 1357.16 9.54393 L1364.21 9.54393 Z" fill="#000000" fill-rule="evenodd" fill-opacity="1" /><path clip-path="url(#clip700)" d="M1370.44 9.54393 L1377.9 9.54393 L1377.9 72.576 L1370.44 72.576 L1370.44 9.54393 Z" fill="#000000" fill-rule="evenodd" fill-opacity="1" /><path clip-path="url(#clip700)" d="M1411.08 32.4315 Q1405.08 32.4315 1401.6 37.1306 Q1398.11 41.7891 1398.11 49.9314 Q1398.11 58.0738 1401.56 62.7728 Q1405.04 67.4314 1411.08 67.4314 Q1417.03 67.4314 1420.51 62.7323 Q1424 58.0333 1424 49.9314 Q1424 41.8701 1420.51 37.1711 Q1417.03 32.4315 1411.08 32.4315 M1411.08 26.1121 Q1420.8 26.1121 1426.35 32.4315 Q1431.9 38.7509 1431.9 49.9314 Q1431.9 61.0714 1426.35 67.4314 Q1420.8 73.7508 1411.08 73.7508 Q1401.31 73.7508 1395.76 67.4314 Q1390.25 61.0714 1390.25 49.9314 Q1390.25 38.7509 1395.76 32.4315 Q1401.31 26.1121 1411.08 26.1121 Z" fill="#000000" fill-rule="evenodd" fill-opacity="1" /><path clip-path="url(#clip700)" d="M1439.92 27.2059 L1447.37 27.2059 L1456.69 62.6108 L1465.97 27.2059 L1474.76 27.2059 L1484.07 62.6108 L1493.35 27.2059 L1500.8 27.2059 L1488.93 72.576 L1480.14 72.576 L1470.38 35.3887 L1460.58 72.576 L1451.79 72.576 L1439.92 27.2059 Z" fill="#000000" fill-rule="evenodd" fill-opacity="1" /><polyline clip-path="url(#clip702)" style="stroke:#009af9; stroke-linecap:round; stroke-linejoin:round; stroke-width:4; stroke-opacity:1; fill:none" points="287.514,840.522 298.517,625.245 309.52,583.864 320.523,539.781 331.526,514.299 342.529,466.283 353.532,466.155 364.535,477.245 375.538,518.239 386.541,698.753 397.544,593.189 408.547,468.043 419.55,426.759 430.553,368.722 441.556,321.486 452.559,419.427 463.562,462.95 474.565,445.141 485.568,441.697 496.57,445.521 507.573,444.309 518.576,431.428 529.579,445.664 540.582,464.129 551.585,1103 562.588,1068.12 573.591,1126.51 584.594,1137.4 595.597,1157.07 606.6,1164.55 617.603,1155.24 628.606,1154.87 639.609,1386.4 650.612,1386.4 661.615,1386.4 672.618,1386.4 683.621,1386.4 694.624,840.522 705.627,1036.72 716.63,1111.83 727.633,1386.4 738.636,1386.4 749.639,1386.4 760.642,1156.51 771.645,1171.06 782.647,1207.58 793.65,1236.45 804.653,1225.92 815.656,580.322 826.659,527.212 837.662,489.93 848.665,470.584 859.668,445.331 870.671,458.438 881.674,497.314 892.677,516.547 903.68,522.071 914.683,480.25 925.686,1386.4 936.689,1386.4 947.692,840.522 958.695,561.794 969.698,570.162 980.701,1386.4 991.704,1386.4 1002.71,1386.4 1013.71,840.522 1024.71,640.934 1035.72,727.858 1046.72,692.65 1057.72,700.571 1068.72,760.136 1079.73,1197.88 1090.73,1160.8 1101.73,1073.27 1112.74,1033.16 1123.74,1024.55 1134.74,1062.58 1145.75,1386.4 1156.75,1386.4 1167.75,1386.4 1178.75,1386.4 1189.76,671.672 1200.76,544.09 1211.76,450.747 1222.77,419.341 1233.77,415.125 1244.77,1386.4 1255.77,379.067 1266.78,383.138 1277.78,379.18 1288.78,362.013 1299.79,371.251 1310.79,381.287 1321.79,410.549 1332.8,377.963 1343.8,542.825 1354.8,494.526 1365.8,542.37 1376.81,549.231 1387.81,657.394 1398.81,638.531 1409.82,579.376 1420.82,840.522 1431.82,231.482 1442.83,160.256 1453.83,160.256 1464.83,160.256 1475.83,299.885 1486.84,581.906 1497.84,1386.4 1508.84,1386.4 1519.85,691.98 1530.85,741.819 1541.85,794.497 1552.85,865.718 1563.86,860.639 1574.86,933.986 1585.86,1016.61 1596.87,1091.55 1607.87,1088.03 1618.87,1051.64 1629.88,1001.78 1640.88,957.775 1651.88,967.511 1662.88,841.563 1673.89,1386.4 1684.89,1386.4 1695.89,429.581 1706.9,335.535 1717.9,409.018 1728.9,483.619 1739.91,584.607 1750.91,586.524 1761.91,651.806 1772.91,614.648 1783.92,693.192 1794.92,767.754 1805.92,786.043 1816.93,790.935 1827.93,806.082 1838.93,773.658 1849.93,776.221 1860.94,819.531 1871.94,531.349 1882.94,425.368 1893.95,393.861 1904.95,393.808 1915.95,347.148 1926.96,334.311 1937.96,323.137 1948.96,321.286 1959.96,278.984 1970.97,323.335 1981.97,318.224 1992.97,379.929 2003.98,1386.4 2014.98,375.203 2025.98,374.577 2036.99,373.794 2047.99,398.592 2058.99,406.278 2069.99,426.094 2081,418.179 2092,465.265 2103,561.457 2114.01,789.62 2125.01,873.851 "/>
<polyline clip-path="url(#clip702)" style="stroke:#e26f46; stroke-linecap:round; stroke-linejoin:round; stroke-width:4; stroke-opacity:1; fill:none" points="287.514,1386.4 298.517,1386.4 309.52,1129.74 320.523,1085.65 331.526,1060.17 342.529,1012.16 353.532,1012.03 364.535,1023.12 375.538,1064.11 386.541,1244.63 397.544,1139.06 408.547,1013.92 419.55,1386.4 430.553,914.596 441.556,867.36 452.559,1386.4 463.562,1008.82 474.565,1386.4 485.568,987.571 496.57,991.394 507.573,990.183 518.576,977.301 529.579,1386.4 540.582,1010 551.585,1386.4 562.588,1386.4 573.591,1386.4 584.594,1386.4 595.597,1386.4 606.6,1386.4 617.603,1386.4 628.606,1386.4 639.609,1386.4 650.612,1386.4 661.615,1386.4 672.618,1386.4 683.621,1386.4 694.624,1386.4 705.627,1386.4 716.63,1386.4 727.633,1386.4 738.636,1386.4 749.639,1386.4 760.642,1386.4 771.645,1386.4 782.647,1386.4 793.65,1386.4 804.653,1386.4 815.656,1386.4 826.659,1073.09 837.662,1035.8 848.665,1386.4 859.668,991.205 870.671,1004.31 881.674,1043.19 892.677,1062.42 903.68,1386.4 914.683,1026.12 925.686,1386.4 936.689,1386.4 947.692,1386.4 958.695,1107.67 969.698,1386.4 980.701,1386.4 991.704,1386.4 1002.71,1386.4 1013.71,1386.4 1024.71,1186.81 1035.72,1273.73 1046.72,1238.52 1057.72,1386.4 1068.72,1386.4 1079.73,1386.4 1090.73,1386.4 1101.73,1386.4 1112.74,1386.4 1123.74,1386.4 1134.74,1386.4 1145.75,1386.4 1156.75,1386.4 1167.75,1386.4 1178.75,1386.4 1189.76,1386.4 1200.76,1089.96 1211.76,996.62 1222.77,965.215 1233.77,1386.4 1244.77,1386.4 1255.77,1386.4 1266.78,1386.4 1277.78,1386.4 1288.78,1386.4 1299.79,1386.4 1310.79,1386.4 1321.79,956.423 1332.8,923.837 1343.8,1088.7 1354.8,1386.4 1365.8,1088.24 1376.81,1386.4 1387.81,1203.27 1398.81,1184.41 1409.82,1386.4 1420.82,1386.4 1431.82,1222.26 1442.83,1386.4 1453.83,706.13 1464.83,1386.4 1475.83,845.759 1486.84,1386.4 1497.84,1386.4 1508.84,1386.4 1519.85,1237.85 1530.85,1386.4 1541.85,1340.37 1552.85,1386.4 1563.86,1386.4 1574.86,1386.4 1585.86,1386.4 1596.87,1386.4 1607.87,1386.4 1618.87,1386.4 1629.88,1386.4 1640.88,1386.4 1651.88,1386.4 1662.88,1386.4 1673.89,1386.4 1684.89,1386.4 1695.89,975.455 1706.9,881.409 1717.9,954.892 1728.9,1029.49 1739.91,1130.48 1750.91,1132.4 1761.91,1197.68 1772.91,1386.4 1783.92,1239.07 1794.92,1313.63 1805.92,1331.92 1816.93,1336.81 1827.93,1386.4 1838.93,1386.4 1849.93,1386.4 1860.94,1365.41 1871.94,1386.4 1882.94,971.242 1893.95,939.735 1904.95,939.682 1915.95,1386.4 1926.96,880.185 1937.96,869.01 1948.96,867.16 1959.96,824.857 1970.97,869.209 1981.97,1386.4 1992.97,925.803 2003.98,1386.4 2014.98,921.077 2025.98,920.45 2036.99,919.668 2047.99,944.465 2058.99,952.152 2069.99,971.967 2081,964.053 2092,1011.14 2103,1107.33 2114.01,1335.49 2125.01,1386.4 "/>
<polyline clip-path="url(#clip702)" style="stroke:#3da44d; stroke-linecap:round; stroke-linejoin:round; stroke-width:4; stroke-opacity:1; fill:none" points="287.514,1386.4 298.517,1386.4 309.52,1386.4 320.523,1386.4 331.526,1386.4 342.529,1386.4 353.532,1386.4 364.535,1386.4 375.538,1386.4 386.541,1386.4 397.544,1386.4 408.547,1386.4 419.55,1386.4 430.553,1386.4 441.556,1386.4 452.559,1386.4 463.562,1386.4 474.565,1386.4 485.568,1386.4 496.57,1386.4 507.573,1386.4 518.576,1386.4 529.579,1386.4 540.582,1386.4 551.585,1123.92 562.588,1158.8 573.591,1100.4 584.594,1089.52 595.597,1069.84 606.6,1062.36 617.603,1071.68 628.606,1072.05 639.609,840.522 650.612,840.522 661.615,840.522 672.618,840.522 683.621,840.522 694.624,1386.4 705.627,1190.19 716.63,1115.08 727.633,840.522 738.636,840.522 749.639,840.522 760.642,1070.41 771.645,1055.86 782.647,1019.33 793.65,990.469 804.653,1001 815.656,1386.4 826.659,1386.4 837.662,1386.4 848.665,1386.4 859.668,1386.4 870.671,1386.4 881.674,1386.4 892.677,1386.4 903.68,1386.4 914.683,1386.4 925.686,840.522 936.689,840.522 947.692,1386.4 958.695,1386.4 969.698,1386.4 980.701,840.522 991.704,840.522 1002.71,840.522 1013.71,1386.4 1024.71,1386.4 1035.72,1386.4 1046.72,1386.4 1057.72,1386.4 1068.72,1386.4 1079.73,1029.04 1090.73,1066.12 1101.73,1153.64 1112.74,1193.76 1123.74,1202.37 1134.74,1164.34 1145.75,840.522 1156.75,840.522 1167.75,840.522 1178.75,840.522 1189.76,1386.4 1200.76,1386.4 1211.76,1386.4 1222.77,1386.4 1233.77,1386.4 1244.77,840.522 1255.77,1386.4 1266.78,1386.4 1277.78,1386.4 1288.78,1386.4 1299.79,1386.4 1310.79,1386.4 1321.79,1386.4 1332.8,1386.4 1343.8,1386.4 1354.8,1386.4 1365.8,1386.4 1376.81,1386.4 1387.81,1386.4 1398.81,1386.4 1409.82,1386.4 1420.82,1386.4 1431.82,1386.4 1442.83,1386.4 1453.83,1386.4 1464.83,1386.4 1475.83,1386.4 1486.84,1386.4 1497.84,840.522 1508.84,840.522 1519.85,1386.4 1530.85,1386.4 1541.85,1386.4 1552.85,1361.2 1563.86,1366.28 1574.86,1292.93 1585.86,1210.3 1596.87,1135.37 1607.87,1138.89 1618.87,1175.27 1629.88,1225.14 1640.88,1269.14 1651.88,1259.41 1662.88,1385.35 1673.89,840.522 1684.89,840.522 1695.89,1386.4 1706.9,1386.4 1717.9,1386.4 1728.9,1386.4 1739.91,1386.4 1750.91,1386.4 1761.91,1386.4 1772.91,1386.4 1783.92,1386.4 1794.92,1386.4 1805.92,1386.4 1816.93,1386.4 1827.93,1386.4 1838.93,1386.4 1849.93,1386.4 1860.94,1386.4 1871.94,1386.4 1882.94,1386.4 1893.95,1386.4 1904.95,1386.4 1915.95,1386.4 1926.96,1386.4 1937.96,1386.4 1948.96,1386.4 1959.96,1386.4 1970.97,1386.4 1981.97,1386.4 1992.97,1386.4 2003.98,840.522 2014.98,1386.4 2025.98,1386.4 2036.99,1386.4 2047.99,1386.4 2058.99,1386.4 2069.99,1386.4 2081,1386.4 2092,1386.4 2103,1386.4 2114.01,1386.4 2125.01,1353.07 "/>
<polyline clip-path="url(#clip702)" style="stroke:#c271d2; stroke-linecap:round; stroke-linejoin:round; stroke-width:4; stroke-opacity:1; fill:none" points="287.514,840.522 298.517,625.245 309.52,840.522 320.523,840.522 331.526,840.522 342.529,840.522 353.532,840.522 364.535,840.522 375.538,840.522 386.541,840.522 397.544,840.522 408.547,840.522 419.55,426.759 430.553,840.522 441.556,840.522 452.559,419.427 463.562,840.522 474.565,445.141 485.568,840.522 496.57,840.522 507.573,840.522 518.576,840.522 529.579,445.664 540.582,840.522 551.585,840.522 562.588,840.522 573.591,840.522 584.594,840.522 595.597,840.522 606.6,840.522 617.603,840.522 628.606,840.522 639.609,840.522 650.612,840.522 661.615,840.522 672.618,840.522 683.621,840.522 694.624,840.522 705.627,840.522 716.63,840.522 727.633,840.522 738.636,840.522 749.639,840.522 760.642,840.522 771.645,840.522 782.647,840.522 793.65,840.522 804.653,840.522 815.656,580.322 826.659,840.522 837.662,840.522 848.665,470.584 859.668,840.522 870.671,840.522 881.674,840.522 892.677,840.522 903.68,522.071 914.683,840.522 925.686,840.522 936.689,840.522 947.692,840.522 958.695,840.522 969.698,570.162 980.701,840.522 991.704,840.522 1002.71,840.522 1013.71,840.522 1024.71,840.522 1035.72,840.522 1046.72,840.522 1057.72,700.571 1068.72,760.136 1079.73,840.522 1090.73,840.522 1101.73,840.522 1112.74,840.522 1123.74,840.522 1134.74,840.522 1145.75,840.522 1156.75,840.522 1167.75,840.522 1178.75,840.522 1189.76,671.672 1200.76,840.522 1211.76,840.522 1222.77,840.522 1233.77,415.125 1244.77,840.522 1255.77,379.067 1266.78,383.138 1277.78,379.18 1288.78,362.013 1299.79,371.251 1310.79,381.287 1321.79,840.522 1332.8,840.522 1343.8,840.522 1354.8,494.526 1365.8,840.522 1376.81,549.231 1387.81,840.522 1398.81,840.522 1409.82,579.376 1420.82,840.522 1431.82,395.616 1442.83,160.256 1453.83,840.522 1464.83,160.256 1475.83,840.522 1486.84,581.906 1497.84,840.522 1508.84,840.522 1519.85,840.522 1530.85,741.819 1541.85,840.522 1552.85,840.522 1563.86,840.522 1574.86,840.522 1585.86,840.522 1596.87,840.522 1607.87,840.522 1618.87,840.522 1629.88,840.522 1640.88,840.522 1651.88,840.522 1662.88,840.522 1673.89,840.522 1684.89,840.522 1695.89,840.522 1706.9,840.522 1717.9,840.522 1728.9,840.522 1739.91,840.522 1750.91,840.522 1761.91,840.522 1772.91,614.648 1783.92,840.522 1794.92,840.522 1805.92,840.522 1816.93,840.522 1827.93,806.082 1838.93,773.658 1849.93,776.221 1860.94,840.522 1871.94,531.349 1882.94,840.522 1893.95,840.522 1904.95,840.522 1915.95,347.148 1926.96,840.522 1937.96,840.522 1948.96,840.522 1959.96,840.522 1970.97,840.522 1981.97,318.224 1992.97,840.522 2003.98,840.522 2014.98,840.522 2025.98,840.522 2036.99,840.522 2047.99,840.522 2058.99,840.522 2069.99,840.522 2081,840.522 2092,840.522 2103,840.522 2114.01,840.522 2125.01,840.522 "/>
<path clip-path="url(#clip700)" d="M297.314 263.996 L595.031 263.996 L595.031 166.796 L297.314 166.796  Z" fill="#ffffff" fill-rule="evenodd" fill-opacity="1"/>
<polyline clip-path="url(#clip700)" style="stroke:#000000; stroke-linecap:round; stroke-linejoin:round; stroke-width:4; stroke-opacity:1; fill:none" points="297.314,263.996 595.031,263.996 595.031,166.796 297.314,166.796 297.314,263.996 "/>
<polyline clip-path="url(#clip700)" style="stroke:#009af9; stroke-linecap:round; stroke-linejoin:round; stroke-width:1.5; stroke-opacity:1; fill:none" points="318.956,186.236 448.805,186.236 "/>
<path clip-path="url(#clip700)" d="M470.447 179.756 L478.641 179.756 L478.641 181.231 L472.2 181.231 L472.2 185.068 L478.372 185.068 L478.372 186.544 L472.2 186.544 L472.2 191.24 L478.798 191.24 L478.798 192.716 L470.447 192.716 L470.447 179.756 Z" fill="#000000" fill-rule="evenodd" fill-opacity="1" /><path clip-path="url(#clip700)" d="M481.61 179.209 L483.207 179.209 L483.207 192.716 L481.61 192.716 L481.61 179.209 Z" fill="#000000" fill-rule="evenodd" fill-opacity="1" /><path clip-path="url(#clip700)" d="M494.865 187.455 L494.865 188.237 L487.522 188.237 Q487.626 189.886 488.511 190.754 Q489.405 191.613 490.994 191.613 Q491.914 191.613 492.773 191.388 Q493.641 191.162 494.492 190.711 L494.492 192.221 Q493.633 192.586 492.73 192.776 Q491.827 192.967 490.898 192.967 Q488.572 192.967 487.209 191.613 Q485.855 190.259 485.855 187.95 Q485.855 185.563 487.14 184.165 Q488.433 182.759 490.62 182.759 Q492.582 182.759 493.719 184.027 Q494.865 185.285 494.865 187.455 M493.268 186.987 Q493.251 185.676 492.53 184.895 Q491.818 184.113 490.638 184.113 Q489.301 184.113 488.494 184.869 Q487.695 185.624 487.574 186.995 L493.268 186.987 Z" fill="#000000" fill-rule="evenodd" fill-opacity="1" /><path clip-path="url(#clip700)" d="M504.483 183.367 L504.483 184.86 Q503.806 184.487 503.12 184.304 Q502.443 184.113 501.749 184.113 Q500.195 184.113 499.336 185.103 Q498.476 186.084 498.476 187.863 Q498.476 189.643 499.336 190.632 Q500.195 191.613 501.749 191.613 Q502.443 191.613 503.12 191.431 Q503.806 191.24 504.483 190.867 L504.483 192.342 Q503.815 192.655 503.094 192.811 Q502.383 192.967 501.575 192.967 Q499.379 192.967 498.086 191.587 Q496.792 190.207 496.792 187.863 Q496.792 185.485 498.094 184.122 Q499.405 182.759 501.679 182.759 Q502.417 182.759 503.12 182.915 Q503.824 183.063 504.483 183.367 Z" fill="#000000" fill-rule="evenodd" fill-opacity="1" /><path clip-path="url(#clip700)" d="M508.841 180.233 L508.841 182.994 L512.131 182.994 L512.131 184.235 L508.841 184.235 L508.841 189.513 Q508.841 190.702 509.162 191.04 Q509.492 191.379 510.49 191.379 L512.131 191.379 L512.131 192.716 L510.49 192.716 Q508.641 192.716 507.938 192.03 Q507.235 191.336 507.235 189.513 L507.235 184.235 L506.063 184.235 L506.063 182.994 L507.235 182.994 L507.235 180.233 L508.841 180.233 Z" fill="#000000" fill-rule="evenodd" fill-opacity="1" /><path clip-path="url(#clip700)" d="M519.865 184.487 Q519.596 184.33 519.275 184.261 Q518.962 184.183 518.58 184.183 Q517.226 184.183 516.497 185.068 Q515.777 185.945 515.777 187.594 L515.777 192.716 L514.171 192.716 L514.171 182.994 L515.777 182.994 L515.777 184.504 Q516.28 183.619 517.087 183.193 Q517.895 182.759 519.049 182.759 Q519.214 182.759 519.414 182.785 Q519.613 182.803 519.856 182.846 L519.865 184.487 Z" fill="#000000" fill-rule="evenodd" fill-opacity="1" /><path clip-path="url(#clip700)" d="M524.917 184.113 Q523.632 184.113 522.886 185.12 Q522.139 186.119 522.139 187.863 Q522.139 189.608 522.877 190.615 Q523.624 191.613 524.917 191.613 Q526.193 191.613 526.94 190.606 Q527.686 189.599 527.686 187.863 Q527.686 186.136 526.94 185.129 Q526.193 184.113 524.917 184.113 M524.917 182.759 Q527.001 182.759 528.19 184.113 Q529.379 185.467 529.379 187.863 Q529.379 190.25 528.19 191.613 Q527.001 192.967 524.917 192.967 Q522.825 192.967 521.636 191.613 Q520.455 190.25 520.455 187.863 Q520.455 185.467 521.636 184.113 Q522.825 182.759 524.917 182.759 Z" fill="#000000" fill-rule="evenodd" fill-opacity="1" /><path clip-path="url(#clip700)" d="M532.027 179.209 L533.624 179.209 L533.624 192.716 L532.027 192.716 L532.027 179.209 Z" fill="#000000" fill-rule="evenodd" fill-opacity="1" /><path clip-path="url(#clip700)" d="M541.011 193.618 Q540.334 195.355 539.691 195.884 Q539.049 196.414 537.973 196.414 L536.697 196.414 L536.697 195.077 L537.634 195.077 Q538.294 195.077 538.658 194.764 Q539.023 194.452 539.466 193.289 L539.752 192.559 L535.82 182.994 L537.513 182.994 L540.551 190.598 L543.589 182.994 L545.282 182.994 L541.011 193.618 Z" fill="#000000" fill-rule="evenodd" fill-opacity="1" /><path clip-path="url(#clip700)" d="M546.792 182.994 L554.379 182.994 L554.379 184.452 L548.372 191.44 L554.379 191.44 L554.379 192.716 L546.575 192.716 L546.575 191.257 L552.582 184.27 L546.792 184.27 L546.792 182.994 Z" fill="#000000" fill-rule="evenodd" fill-opacity="1" /><path clip-path="url(#clip700)" d="M565.134 187.455 L565.134 188.237 L557.79 188.237 Q557.894 189.886 558.78 190.754 Q559.674 191.613 561.262 191.613 Q562.183 191.613 563.042 191.388 Q563.91 191.162 564.761 190.711 L564.761 192.221 Q563.901 192.586 562.999 192.776 Q562.096 192.967 561.167 192.967 Q558.841 192.967 557.478 191.613 Q556.124 190.259 556.124 187.95 Q556.124 185.563 557.408 184.165 Q558.702 182.759 560.889 182.759 Q562.851 182.759 563.988 184.027 Q565.134 185.285 565.134 187.455 M563.537 186.987 Q563.519 185.676 562.799 184.895 Q562.087 184.113 560.907 184.113 Q559.57 184.113 558.762 184.869 Q557.964 185.624 557.842 186.995 L563.537 186.987 Z" fill="#000000" fill-rule="evenodd" fill-opacity="1" /><path clip-path="url(#clip700)" d="M573.389 184.487 Q573.12 184.33 572.799 184.261 Q572.486 184.183 572.104 184.183 Q570.75 184.183 570.021 185.068 Q569.301 185.945 569.301 187.594 L569.301 192.716 L567.695 192.716 L567.695 182.994 L569.301 182.994 L569.301 184.504 Q569.804 183.619 570.611 183.193 Q571.419 182.759 572.573 182.759 Q572.738 182.759 572.938 182.785 Q573.137 182.803 573.38 182.846 L573.389 184.487 Z" fill="#000000" fill-rule="evenodd" fill-opacity="1" /><polyline clip-path="url(#clip700)" style="stroke:#e26f46; stroke-linecap:round; stroke-linejoin:round; stroke-width:1.5; stroke-opacity:1; fill:none" points="318.956,205.676 448.805,205.676 "/>
<path clip-path="url(#clip700)" d="M478.789 199.621 L478.789 201.331 Q477.791 200.854 476.905 200.619 Q476.02 200.385 475.195 200.385 Q473.763 200.385 472.982 200.94 Q472.209 201.496 472.209 202.52 Q472.209 203.38 472.721 203.822 Q473.242 204.256 474.683 204.526 L475.742 204.743 Q477.704 205.116 478.633 206.062 Q479.57 206.999 479.57 208.579 Q479.57 210.463 478.303 211.435 Q477.044 212.407 474.605 212.407 Q473.685 212.407 472.643 212.199 Q471.61 211.991 470.499 211.583 L470.499 209.777 Q471.567 210.376 472.591 210.68 Q473.615 210.984 474.605 210.984 Q476.107 210.984 476.923 210.394 Q477.739 209.803 477.739 208.71 Q477.739 207.755 477.148 207.217 Q476.567 206.678 475.23 206.409 L474.162 206.201 Q472.2 205.81 471.324 204.977 Q470.447 204.144 470.447 202.659 Q470.447 200.94 471.654 199.951 Q472.869 198.961 474.996 198.961 Q475.907 198.961 476.853 199.126 Q477.799 199.291 478.789 199.621 Z" fill="#000000" fill-rule="evenodd" fill-opacity="1" /><path clip-path="url(#clip700)" d="M483.815 199.673 L483.815 202.434 L487.105 202.434 L487.105 203.675 L483.815 203.675 L483.815 208.953 Q483.815 210.142 484.136 210.48 Q484.466 210.819 485.464 210.819 L487.105 210.819 L487.105 212.156 L485.464 212.156 Q483.615 212.156 482.912 211.47 Q482.209 210.776 482.209 208.953 L482.209 203.675 L481.037 203.675 L481.037 202.434 L482.209 202.434 L482.209 199.673 L483.815 199.673 Z" fill="#000000" fill-rule="evenodd" fill-opacity="1" /><path clip-path="url(#clip700)" d="M492.973 203.553 Q491.688 203.553 490.942 204.56 Q490.195 205.559 490.195 207.303 Q490.195 209.048 490.933 210.055 Q491.68 211.053 492.973 211.053 Q494.249 211.053 494.995 210.046 Q495.742 209.039 495.742 207.303 Q495.742 205.576 494.995 204.569 Q494.249 203.553 492.973 203.553 M492.973 202.199 Q495.056 202.199 496.245 203.553 Q497.435 204.907 497.435 207.303 Q497.435 209.69 496.245 211.053 Q495.056 212.407 492.973 212.407 Q490.881 212.407 489.692 211.053 Q488.511 209.69 488.511 207.303 Q488.511 204.907 489.692 203.553 Q490.881 202.199 492.973 202.199 Z" fill="#000000" fill-rule="evenodd" fill-opacity="1" /><path clip-path="url(#clip700)" d="M505.716 203.927 Q505.447 203.77 505.126 203.701 Q504.813 203.623 504.431 203.623 Q503.077 203.623 502.348 204.508 Q501.627 205.385 501.627 207.034 L501.627 212.156 L500.021 212.156 L500.021 202.434 L501.627 202.434 L501.627 203.944 Q502.131 203.059 502.938 202.633 Q503.745 202.199 504.9 202.199 Q505.065 202.199 505.265 202.225 Q505.464 202.243 505.707 202.286 L505.716 203.927 Z" fill="#000000" fill-rule="evenodd" fill-opacity="1" /><path clip-path="url(#clip700)" d="M511.81 207.269 Q509.874 207.269 509.127 207.711 Q508.381 208.154 508.381 209.222 Q508.381 210.072 508.936 210.576 Q509.501 211.071 510.464 211.071 Q511.792 211.071 512.591 210.133 Q513.398 209.187 513.398 207.624 L513.398 207.269 L511.81 207.269 M514.995 206.609 L514.995 212.156 L513.398 212.156 L513.398 210.68 Q512.851 211.565 512.035 211.991 Q511.219 212.407 510.039 212.407 Q508.546 212.407 507.66 211.574 Q506.784 210.732 506.784 209.326 Q506.784 207.685 507.877 206.852 Q508.98 206.019 511.159 206.019 L513.398 206.019 L513.398 205.862 Q513.398 204.76 512.669 204.161 Q511.949 203.553 510.638 203.553 Q509.804 203.553 509.014 203.753 Q508.225 203.953 507.495 204.352 L507.495 202.876 Q508.372 202.538 509.197 202.373 Q510.021 202.199 510.803 202.199 Q512.912 202.199 513.954 203.293 Q514.995 204.387 514.995 206.609 Z" fill="#000000" fill-rule="evenodd" fill-opacity="1" /><path clip-path="url(#clip700)" d="M524.683 207.182 Q524.683 205.446 523.962 204.491 Q523.251 203.536 521.957 203.536 Q520.672 203.536 519.952 204.491 Q519.24 205.446 519.24 207.182 Q519.24 208.909 519.952 209.864 Q520.672 210.819 521.957 210.819 Q523.251 210.819 523.962 209.864 Q524.683 208.909 524.683 207.182 M526.28 210.949 Q526.28 213.432 525.178 214.638 Q524.075 215.854 521.801 215.854 Q520.959 215.854 520.212 215.723 Q519.466 215.602 518.763 215.341 L518.763 213.788 Q519.466 214.17 520.152 214.352 Q520.837 214.534 521.549 214.534 Q523.12 214.534 523.902 213.71 Q524.683 212.894 524.683 211.236 L524.683 210.446 Q524.188 211.305 523.415 211.73 Q522.643 212.156 521.567 212.156 Q519.778 212.156 518.685 210.793 Q517.591 209.43 517.591 207.182 Q517.591 204.925 518.685 203.562 Q519.778 202.199 521.567 202.199 Q522.643 202.199 523.415 202.625 Q524.188 203.05 524.683 203.909 L524.683 202.434 L526.28 202.434 L526.28 210.949 Z" fill="#000000" fill-rule="evenodd" fill-opacity="1" /><path clip-path="url(#clip700)" d="M537.886 206.895 L537.886 207.677 L530.542 207.677 Q530.646 209.326 531.532 210.194 Q532.426 211.053 534.014 211.053 Q534.934 211.053 535.794 210.828 Q536.662 210.602 537.513 210.151 L537.513 211.661 Q536.653 212.026 535.75 212.216 Q534.848 212.407 533.919 212.407 Q531.593 212.407 530.23 211.053 Q528.876 209.699 528.876 207.39 Q528.876 205.003 530.16 203.605 Q531.454 202.199 533.641 202.199 Q535.603 202.199 536.74 203.467 Q537.886 204.725 537.886 206.895 M536.289 206.427 Q536.271 205.116 535.551 204.335 Q534.839 203.553 533.658 203.553 Q532.322 203.553 531.514 204.309 Q530.716 205.064 530.594 206.435 L536.289 206.427 Z" fill="#000000" fill-rule="evenodd" fill-opacity="1" /><path clip-path="url(#clip700)" d="M546.158 202.434 L547.756 202.434 L547.756 212.156 L546.158 212.156 L546.158 202.434 M546.158 198.649 L547.756 198.649 L547.756 200.671 L546.158 200.671 L546.158 198.649 Z" fill="#000000" fill-rule="evenodd" fill-opacity="1" /><path clip-path="url(#clip700)" d="M559.179 206.288 L559.179 212.156 L557.582 212.156 L557.582 206.34 Q557.582 204.96 557.044 204.274 Q556.506 203.588 555.429 203.588 Q554.136 203.588 553.389 204.413 Q552.643 205.237 552.643 206.661 L552.643 212.156 L551.037 212.156 L551.037 202.434 L552.643 202.434 L552.643 203.944 Q553.216 203.067 553.988 202.633 Q554.769 202.199 555.785 202.199 Q557.46 202.199 558.32 203.241 Q559.179 204.274 559.179 206.288 Z" fill="#000000" fill-rule="evenodd" fill-opacity="1" /><polyline clip-path="url(#clip700)" style="stroke:#3da44d; stroke-linecap:round; stroke-linejoin:round; stroke-width:1.5; stroke-opacity:1; fill:none" points="318.956,225.116 448.805,225.116 "/>
<path clip-path="url(#clip700)" d="M478.789 219.061 L478.789 220.771 Q477.791 220.294 476.905 220.059 Q476.02 219.825 475.195 219.825 Q473.763 219.825 472.982 220.38 Q472.209 220.936 472.209 221.96 Q472.209 222.82 472.721 223.262 Q473.242 223.696 474.683 223.966 L475.742 224.183 Q477.704 224.556 478.633 225.502 Q479.57 226.439 479.57 228.019 Q479.57 229.903 478.303 230.875 Q477.044 231.847 474.605 231.847 Q473.685 231.847 472.643 231.639 Q471.61 231.431 470.499 231.023 L470.499 229.217 Q471.567 229.816 472.591 230.12 Q473.615 230.424 474.605 230.424 Q476.107 230.424 476.923 229.834 Q477.739 229.243 477.739 228.15 Q477.739 227.195 477.148 226.657 Q476.567 226.118 475.23 225.849 L474.162 225.641 Q472.2 225.25 471.324 224.417 Q470.447 223.584 470.447 222.099 Q470.447 220.38 471.654 219.391 Q472.869 218.401 474.996 218.401 Q475.907 218.401 476.853 218.566 Q477.799 218.731 478.789 219.061 Z" fill="#000000" fill-rule="evenodd" fill-opacity="1" /><path clip-path="url(#clip700)" d="M483.815 219.113 L483.815 221.874 L487.105 221.874 L487.105 223.115 L483.815 223.115 L483.815 228.393 Q483.815 229.582 484.136 229.92 Q484.466 230.259 485.464 230.259 L487.105 230.259 L487.105 231.596 L485.464 231.596 Q483.615 231.596 482.912 230.91 Q482.209 230.216 482.209 228.393 L482.209 223.115 L481.037 223.115 L481.037 221.874 L482.209 221.874 L482.209 219.113 L483.815 219.113 Z" fill="#000000" fill-rule="evenodd" fill-opacity="1" /><path clip-path="url(#clip700)" d="M492.973 222.993 Q491.688 222.993 490.942 224 Q490.195 224.999 490.195 226.743 Q490.195 228.488 490.933 229.495 Q491.68 230.493 492.973 230.493 Q494.249 230.493 494.995 229.486 Q495.742 228.479 495.742 226.743 Q495.742 225.016 494.995 224.009 Q494.249 222.993 492.973 222.993 M492.973 221.639 Q495.056 221.639 496.245 222.993 Q497.435 224.347 497.435 226.743 Q497.435 229.13 496.245 230.493 Q495.056 231.847 492.973 231.847 Q490.881 231.847 489.692 230.493 Q488.511 229.13 488.511 226.743 Q488.511 224.347 489.692 222.993 Q490.881 221.639 492.973 221.639 Z" fill="#000000" fill-rule="evenodd" fill-opacity="1" /><path clip-path="url(#clip700)" d="M505.716 223.367 Q505.447 223.21 505.126 223.141 Q504.813 223.063 504.431 223.063 Q503.077 223.063 502.348 223.948 Q501.627 224.825 501.627 226.474 L501.627 231.596 L500.021 231.596 L500.021 221.874 L501.627 221.874 L501.627 223.384 Q502.131 222.499 502.938 222.073 Q503.745 221.639 504.9 221.639 Q505.065 221.639 505.265 221.665 Q505.464 221.683 505.707 221.726 L505.716 223.367 Z" fill="#000000" fill-rule="evenodd" fill-opacity="1" /><path clip-path="url(#clip700)" d="M511.81 226.709 Q509.874 226.709 509.127 227.151 Q508.381 227.594 508.381 228.662 Q508.381 229.512 508.936 230.016 Q509.501 230.511 510.464 230.511 Q511.792 230.511 512.591 229.573 Q513.398 228.627 513.398 227.064 L513.398 226.709 L511.81 226.709 M514.995 226.049 L514.995 231.596 L513.398 231.596 L513.398 230.12 Q512.851 231.005 512.035 231.431 Q511.219 231.847 510.039 231.847 Q508.546 231.847 507.66 231.014 Q506.784 230.172 506.784 228.766 Q506.784 227.125 507.877 226.292 Q508.98 225.459 511.159 225.459 L513.398 225.459 L513.398 225.302 Q513.398 224.2 512.669 223.601 Q511.949 222.993 510.638 222.993 Q509.804 222.993 509.014 223.193 Q508.225 223.393 507.495 223.792 L507.495 222.316 Q508.372 221.978 509.197 221.813 Q510.021 221.639 510.803 221.639 Q512.912 221.639 513.954 222.733 Q514.995 223.827 514.995 226.049 Z" fill="#000000" fill-rule="evenodd" fill-opacity="1" /><path clip-path="url(#clip700)" d="M524.683 226.622 Q524.683 224.886 523.962 223.931 Q523.251 222.976 521.957 222.976 Q520.672 222.976 519.952 223.931 Q519.24 224.886 519.24 226.622 Q519.24 228.349 519.952 229.304 Q520.672 230.259 521.957 230.259 Q523.251 230.259 523.962 229.304 Q524.683 228.349 524.683 226.622 M526.28 230.389 Q526.28 232.872 525.178 234.078 Q524.075 235.294 521.801 235.294 Q520.959 235.294 520.212 235.163 Q519.466 235.042 518.763 234.781 L518.763 233.228 Q519.466 233.61 520.152 233.792 Q520.837 233.974 521.549 233.974 Q523.12 233.974 523.902 233.15 Q524.683 232.334 524.683 230.676 L524.683 229.886 Q524.188 230.745 523.415 231.17 Q522.643 231.596 521.567 231.596 Q519.778 231.596 518.685 230.233 Q517.591 228.87 517.591 226.622 Q517.591 224.365 518.685 223.002 Q519.778 221.639 521.567 221.639 Q522.643 221.639 523.415 222.065 Q524.188 222.49 524.683 223.349 L524.683 221.874 L526.28 221.874 L526.28 230.389 Z" fill="#000000" fill-rule="evenodd" fill-opacity="1" /><path clip-path="url(#clip700)" d="M537.886 226.335 L537.886 227.117 L530.542 227.117 Q530.646 228.766 531.532 229.634 Q532.426 230.493 534.014 230.493 Q534.934 230.493 535.794 230.268 Q536.662 230.042 537.513 229.591 L537.513 231.101 Q536.653 231.466 535.75 231.656 Q534.848 231.847 533.919 231.847 Q531.593 231.847 530.23 230.493 Q528.876 229.139 528.876 226.83 Q528.876 224.443 530.16 223.045 Q531.454 221.639 533.641 221.639 Q535.603 221.639 536.74 222.907 Q537.886 224.165 537.886 226.335 M536.289 225.867 Q536.271 224.556 535.551 223.775 Q534.839 222.993 533.658 222.993 Q532.322 222.993 531.514 223.749 Q530.716 224.504 530.594 225.875 L536.289 225.867 Z" fill="#000000" fill-rule="evenodd" fill-opacity="1" /><path clip-path="url(#clip700)" d="M549.926 222.993 Q548.641 222.993 547.894 224 Q547.148 224.999 547.148 226.743 Q547.148 228.488 547.886 229.495 Q548.632 230.493 549.926 230.493 Q551.202 230.493 551.948 229.486 Q552.695 228.479 552.695 226.743 Q552.695 225.016 551.948 224.009 Q551.202 222.993 549.926 222.993 M549.926 221.639 Q552.009 221.639 553.198 222.993 Q554.388 224.347 554.388 226.743 Q554.388 229.13 553.198 230.493 Q552.009 231.847 549.926 231.847 Q547.834 231.847 546.645 230.493 Q545.464 229.13 545.464 226.743 Q545.464 224.347 546.645 222.993 Q547.834 221.639 549.926 221.639 Z" fill="#000000" fill-rule="evenodd" fill-opacity="1" /><path clip-path="url(#clip700)" d="M556.87 227.759 L556.87 221.874 L558.467 221.874 L558.467 227.698 Q558.467 229.078 559.006 229.773 Q559.544 230.459 560.62 230.459 Q561.914 230.459 562.66 229.634 Q563.415 228.809 563.415 227.386 L563.415 221.874 L565.012 221.874 L565.012 231.596 L563.415 231.596 L563.415 230.103 Q562.834 230.988 562.061 231.422 Q561.297 231.847 560.282 231.847 Q558.606 231.847 557.738 230.806 Q556.87 229.764 556.87 227.759 M560.889 221.639 L560.889 221.639 Z" fill="#000000" fill-rule="evenodd" fill-opacity="1" /><path clip-path="url(#clip700)" d="M569.882 219.113 L569.882 221.874 L573.172 221.874 L573.172 223.115 L569.882 223.115 L569.882 228.393 Q569.882 229.582 570.203 229.92 Q570.533 230.259 571.532 230.259 L573.172 230.259 L573.172 231.596 L571.532 231.596 Q569.683 231.596 568.979 230.91 Q568.276 230.216 568.276 228.393 L568.276 223.115 L567.104 223.115 L567.104 221.874 L568.276 221.874 L568.276 219.113 L569.882 219.113 Z" fill="#000000" fill-rule="evenodd" fill-opacity="1" /><polyline clip-path="url(#clip700)" style="stroke:#c271d2; stroke-linecap:round; stroke-linejoin:round; stroke-width:1.5; stroke-opacity:1; fill:none" points="318.956,244.556 448.805,244.556 "/>
<path clip-path="url(#clip700)" d="M472.2 239.517 L472.2 249.595 L474.319 249.595 Q477.001 249.595 478.242 248.379 Q479.492 247.164 479.492 244.543 Q479.492 241.939 478.242 240.732 Q477.001 239.517 474.319 239.517 L472.2 239.517 M470.447 238.076 L474.049 238.076 Q477.817 238.076 479.579 239.647 Q481.341 241.209 481.341 244.543 Q481.341 247.893 479.57 249.465 Q477.799 251.036 474.049 251.036 L470.447 251.036 L470.447 238.076 Z" fill="#000000" fill-rule="evenodd" fill-opacity="1" /><path clip-path="url(#clip700)" d="M492.383 245.775 L492.383 246.557 L485.039 246.557 Q485.143 248.206 486.029 249.074 Q486.923 249.933 488.511 249.933 Q489.431 249.933 490.291 249.708 Q491.159 249.482 492.009 249.031 L492.009 250.541 Q491.15 250.906 490.247 251.096 Q489.344 251.287 488.416 251.287 Q486.089 251.287 484.726 249.933 Q483.372 248.579 483.372 246.27 Q483.372 243.883 484.657 242.485 Q485.95 241.079 488.138 241.079 Q490.1 241.079 491.237 242.347 Q492.383 243.605 492.383 245.775 M490.785 245.307 Q490.768 243.996 490.048 243.215 Q489.336 242.433 488.155 242.433 Q486.818 242.433 486.011 243.189 Q485.213 243.944 485.091 245.315 L490.785 245.307 Z" fill="#000000" fill-rule="evenodd" fill-opacity="1" /><path clip-path="url(#clip700)" d="M502.574 243.18 Q503.173 242.103 504.006 241.591 Q504.839 241.079 505.968 241.079 Q507.487 241.079 508.311 242.147 Q509.136 243.206 509.136 245.168 L509.136 251.036 L507.53 251.036 L507.53 245.22 Q507.53 243.822 507.035 243.145 Q506.541 242.468 505.525 242.468 Q504.284 242.468 503.563 243.293 Q502.843 244.117 502.843 245.541 L502.843 251.036 L501.237 251.036 L501.237 245.22 Q501.237 243.814 500.742 243.145 Q500.247 242.468 499.214 242.468 Q497.99 242.468 497.27 243.301 Q496.549 244.126 496.549 245.541 L496.549 251.036 L494.943 251.036 L494.943 241.314 L496.549 241.314 L496.549 242.824 Q497.096 241.93 497.86 241.505 Q498.624 241.079 499.674 241.079 Q500.733 241.079 501.471 241.617 Q502.218 242.156 502.574 243.18 Z" fill="#000000" fill-rule="evenodd" fill-opacity="1" /><path clip-path="url(#clip700)" d="M516.74 246.149 Q514.804 246.149 514.058 246.591 Q513.311 247.034 513.311 248.102 Q513.311 248.952 513.867 249.456 Q514.431 249.951 515.395 249.951 Q516.723 249.951 517.521 249.013 Q518.329 248.067 518.329 246.504 L518.329 246.149 L516.74 246.149 M519.926 245.489 L519.926 251.036 L518.329 251.036 L518.329 249.56 Q517.782 250.445 516.966 250.871 Q516.15 251.287 514.969 251.287 Q513.476 251.287 512.591 250.454 Q511.714 249.612 511.714 248.206 Q511.714 246.565 512.808 245.732 Q513.91 244.899 516.089 244.899 L518.329 244.899 L518.329 244.742 Q518.329 243.64 517.6 243.041 Q516.879 242.433 515.568 242.433 Q514.735 242.433 513.945 242.633 Q513.155 242.833 512.426 243.232 L512.426 241.756 Q513.303 241.418 514.127 241.253 Q514.952 241.079 515.733 241.079 Q517.843 241.079 518.884 242.173 Q519.926 243.267 519.926 245.489 Z" fill="#000000" fill-rule="evenodd" fill-opacity="1" /><path clip-path="url(#clip700)" d="M531.297 245.168 L531.297 251.036 L529.7 251.036 L529.7 245.22 Q529.7 243.84 529.162 243.154 Q528.624 242.468 527.547 242.468 Q526.254 242.468 525.507 243.293 Q524.761 244.117 524.761 245.541 L524.761 251.036 L523.155 251.036 L523.155 241.314 L524.761 241.314 L524.761 242.824 Q525.334 241.947 526.106 241.513 Q526.888 241.079 527.903 241.079 Q529.579 241.079 530.438 242.121 Q531.297 243.154 531.297 245.168 Z" fill="#000000" fill-rule="evenodd" fill-opacity="1" /><path clip-path="url(#clip700)" d="M540.881 242.789 L540.881 237.529 L542.478 237.529 L542.478 251.036 L540.881 251.036 L540.881 249.577 Q540.377 250.445 539.605 250.871 Q538.841 251.287 537.764 251.287 Q536.002 251.287 534.891 249.881 Q533.789 248.475 533.789 246.183 Q533.789 243.892 534.891 242.485 Q536.002 241.079 537.764 241.079 Q538.841 241.079 539.605 241.505 Q540.377 241.921 540.881 242.789 M535.438 246.183 Q535.438 247.945 536.158 248.952 Q536.888 249.951 538.155 249.951 Q539.422 249.951 540.151 248.952 Q540.881 247.945 540.881 246.183 Q540.881 244.421 540.151 243.423 Q539.422 242.416 538.155 242.416 Q536.888 242.416 536.158 243.423 Q535.438 244.421 535.438 246.183 Z" fill="#000000" fill-rule="evenodd" fill-opacity="1" /><path clip-path="url(#clip700)" d="M232.389 1423.18 L2180.13 1423.18 L2180.13 123.472 L232.389 123.472  Z" fill="#000000" fill-rule="evenodd" fill-opacity="0"/>
<polyline clip-path="url(#clip700)" style="stroke:#000000; stroke-linecap:round; stroke-linejoin:round; stroke-width:4; stroke-opacity:1; fill:none" points="2180.13,1423.18 2180.13,123.472 "/>
<polyline clip-path="url(#clip700)" style="stroke:#000000; stroke-linecap:round; stroke-linejoin:round; stroke-width:4; stroke-opacity:1; fill:none" points="2180.13,1264.99 2161.24,1264.99 "/>
<polyline clip-path="url(#clip700)" style="stroke:#000000; stroke-linecap:round; stroke-linejoin:round; stroke-width:4; stroke-opacity:1; fill:none" points="2180.13,1015.62 2161.24,1015.62 "/>
<polyline clip-path="url(#clip700)" style="stroke:#000000; stroke-linecap:round; stroke-linejoin:round; stroke-width:4; stroke-opacity:1; fill:none" points="2180.13,766.245 2161.24,766.245 "/>
<polyline clip-path="url(#clip700)" style="stroke:#000000; stroke-linecap:round; stroke-linejoin:round; stroke-width:4; stroke-opacity:1; fill:none" points="2180.13,516.875 2161.24,516.875 "/>
<polyline clip-path="url(#clip700)" style="stroke:#000000; stroke-linecap:round; stroke-linejoin:round; stroke-width:4; stroke-opacity:1; fill:none" points="2180.13,267.505 2161.24,267.505 "/>
<path clip-path="url(#clip700)" d="M2228.08 1250.79 Q2224.47 1250.79 2222.64 1254.35 Q2220.83 1257.89 2220.83 1265.02 Q2220.83 1272.13 2222.64 1275.69 Q2224.47 1279.23 2228.08 1279.23 Q2231.71 1279.23 2233.52 1275.69 Q2235.35 1272.13 2235.35 1265.02 Q2235.35 1257.89 2233.52 1254.35 Q2231.71 1250.79 2228.08 1250.79 M2228.08 1247.08 Q2233.89 1247.08 2236.94 1251.69 Q2240.02 1256.27 2240.02 1265.02 Q2240.02 1273.75 2236.94 1278.35 Q2233.89 1282.94 2228.08 1282.94 Q2222.27 1282.94 2219.19 1278.35 Q2216.13 1273.75 2216.13 1265.02 Q2216.13 1256.27 2219.19 1251.69 Q2222.27 1247.08 2228.08 1247.08 Z" fill="#000000" fill-rule="evenodd" fill-opacity="1" /><path clip-path="url(#clip700)" d="M2248.24 1276.39 L2253.12 1276.39 L2253.12 1282.27 L2248.24 1282.27 L2248.24 1276.39 Z" fill="#000000" fill-rule="evenodd" fill-opacity="1" /><path clip-path="url(#clip700)" d="M2277.48 1263.63 Q2280.83 1264.35 2282.71 1266.62 Q2284.61 1268.89 2284.61 1272.22 Q2284.61 1277.34 2281.09 1280.14 Q2277.57 1282.94 2271.09 1282.94 Q2268.91 1282.94 2266.6 1282.5 Q2264.3 1282.08 2261.85 1281.22 L2261.85 1276.71 Q2263.8 1277.85 2266.11 1278.42 Q2268.43 1279 2270.95 1279 Q2275.35 1279 2277.64 1277.27 Q2279.95 1275.53 2279.95 1272.22 Q2279.95 1269.16 2277.8 1267.45 Q2275.67 1265.72 2271.85 1265.72 L2267.82 1265.72 L2267.82 1261.87 L2272.04 1261.87 Q2275.49 1261.87 2277.31 1260.51 Q2279.14 1259.12 2279.14 1256.53 Q2279.14 1253.86 2277.24 1252.45 Q2275.37 1251.02 2271.85 1251.02 Q2269.93 1251.02 2267.73 1251.43 Q2265.53 1251.85 2262.89 1252.73 L2262.89 1248.56 Q2265.55 1247.82 2267.87 1247.45 Q2270.21 1247.08 2272.27 1247.08 Q2277.59 1247.08 2280.69 1249.51 Q2283.8 1251.92 2283.8 1256.04 Q2283.8 1258.91 2282.15 1260.9 Q2280.51 1262.87 2277.48 1263.63 Z" fill="#000000" fill-rule="evenodd" fill-opacity="1" /><path clip-path="url(#clip700)" d="M2228.08 1001.41 Q2224.47 1001.41 2222.64 1004.98 Q2220.83 1008.52 2220.83 1015.65 Q2220.83 1022.76 2222.64 1026.32 Q2224.47 1029.86 2228.08 1029.86 Q2231.71 1029.86 2233.52 1026.32 Q2235.35 1022.76 2235.35 1015.65 Q2235.35 1008.52 2233.52 1004.98 Q2231.71 1001.41 2228.08 1001.41 M2228.08 997.711 Q2233.89 997.711 2236.94 1002.32 Q2240.02 1006.9 2240.02 1015.65 Q2240.02 1024.38 2236.94 1028.98 Q2233.89 1033.57 2228.08 1033.57 Q2222.27 1033.57 2219.19 1028.98 Q2216.13 1024.38 2216.13 1015.65 Q2216.13 1006.9 2219.19 1002.32 Q2222.27 997.711 2228.08 997.711 Z" fill="#000000" fill-rule="evenodd" fill-opacity="1" /><path clip-path="url(#clip700)" d="M2248.24 1027.02 L2253.12 1027.02 L2253.12 1032.9 L2248.24 1032.9 L2248.24 1027.02 Z" fill="#000000" fill-rule="evenodd" fill-opacity="1" /><path clip-path="url(#clip700)" d="M2276.16 1002.41 L2264.35 1020.86 L2276.16 1020.86 L2276.16 1002.41 M2274.93 998.336 L2280.81 998.336 L2280.81 1020.86 L2285.74 1020.86 L2285.74 1024.75 L2280.81 1024.75 L2280.81 1032.9 L2276.16 1032.9 L2276.16 1024.75 L2260.55 1024.75 L2260.55 1020.23 L2274.93 998.336 Z" fill="#000000" fill-rule="evenodd" fill-opacity="1" /><path clip-path="url(#clip700)" d="M2228.08 752.044 Q2224.47 752.044 2222.64 755.609 Q2220.83 759.151 2220.83 766.28 Q2220.83 773.387 2222.64 776.951 Q2224.47 780.493 2228.08 780.493 Q2231.71 780.493 2233.52 776.951 Q2235.35 773.387 2235.35 766.28 Q2235.35 759.151 2233.52 755.609 Q2231.71 752.044 2228.08 752.044 M2228.08 748.34 Q2233.89 748.34 2236.94 752.947 Q2240.02 757.53 2240.02 766.28 Q2240.02 775.007 2236.94 779.613 Q2233.89 784.197 2228.08 784.197 Q2222.27 784.197 2219.19 779.613 Q2216.13 775.007 2216.13 766.28 Q2216.13 757.53 2219.19 752.947 Q2222.27 748.34 2228.08 748.34 Z" fill="#000000" fill-rule="evenodd" fill-opacity="1" /><path clip-path="url(#clip700)" d="M2248.24 777.646 L2253.12 777.646 L2253.12 783.525 L2248.24 783.525 L2248.24 777.646 Z" fill="#000000" fill-rule="evenodd" fill-opacity="1" /><path clip-path="url(#clip700)" d="M2263.36 748.965 L2281.71 748.965 L2281.71 752.901 L2267.64 752.901 L2267.64 761.373 Q2268.66 761.026 2269.68 760.864 Q2270.69 760.678 2271.71 760.678 Q2277.5 760.678 2280.88 763.85 Q2284.26 767.021 2284.26 772.438 Q2284.26 778.016 2280.79 781.118 Q2277.31 784.197 2270.99 784.197 Q2268.82 784.197 2266.55 783.826 Q2264.3 783.456 2261.9 782.715 L2261.9 778.016 Q2263.98 779.15 2266.2 779.706 Q2268.43 780.262 2270.9 780.262 Q2274.91 780.262 2277.24 778.155 Q2279.58 776.049 2279.58 772.438 Q2279.58 768.826 2277.24 766.72 Q2274.91 764.614 2270.9 764.614 Q2269.03 764.614 2267.15 765.03 Q2265.3 765.447 2263.36 766.326 L2263.36 748.965 Z" fill="#000000" fill-rule="evenodd" fill-opacity="1" /><path clip-path="url(#clip700)" d="M2228.08 502.674 Q2224.47 502.674 2222.64 506.238 Q2220.83 509.78 2220.83 516.91 Q2220.83 524.016 2222.64 527.581 Q2224.47 531.123 2228.08 531.123 Q2231.71 531.123 2233.52 527.581 Q2235.35 524.016 2235.35 516.91 Q2235.35 509.78 2233.52 506.238 Q2231.71 502.674 2228.08 502.674 M2228.08 498.97 Q2233.89 498.97 2236.94 503.576 Q2240.02 508.16 2240.02 516.91 Q2240.02 525.637 2236.94 530.243 Q2233.89 534.826 2228.08 534.826 Q2222.27 534.826 2219.19 530.243 Q2216.13 525.637 2216.13 516.91 Q2216.13 508.16 2219.19 503.576 Q2222.27 498.97 2228.08 498.97 Z" fill="#000000" fill-rule="evenodd" fill-opacity="1" /><path clip-path="url(#clip700)" d="M2248.24 528.275 L2253.12 528.275 L2253.12 534.155 L2248.24 534.155 L2248.24 528.275 Z" fill="#000000" fill-rule="evenodd" fill-opacity="1" /><path clip-path="url(#clip700)" d="M2273.89 515.012 Q2270.74 515.012 2268.89 517.164 Q2267.06 519.317 2267.06 523.067 Q2267.06 526.794 2268.89 528.97 Q2270.74 531.123 2273.89 531.123 Q2277.04 531.123 2278.86 528.97 Q2280.72 526.794 2280.72 523.067 Q2280.72 519.317 2278.86 517.164 Q2277.04 515.012 2273.89 515.012 M2283.17 500.359 L2283.17 504.618 Q2281.41 503.785 2279.61 503.345 Q2277.82 502.905 2276.06 502.905 Q2271.43 502.905 2268.98 506.03 Q2266.55 509.155 2266.2 515.475 Q2267.57 513.461 2269.63 512.396 Q2271.69 511.308 2274.17 511.308 Q2279.37 511.308 2282.38 514.479 Q2285.42 517.627 2285.42 523.067 Q2285.42 528.391 2282.27 531.609 Q2279.12 534.826 2273.89 534.826 Q2267.89 534.826 2264.72 530.243 Q2261.55 525.637 2261.55 516.91 Q2261.55 508.715 2265.44 503.854 Q2269.33 498.97 2275.88 498.97 Q2277.64 498.97 2279.42 499.317 Q2281.23 499.664 2283.17 500.359 Z" fill="#000000" fill-rule="evenodd" fill-opacity="1" /><path clip-path="url(#clip700)" d="M2228.08 253.303 Q2224.47 253.303 2222.64 256.868 Q2220.83 260.41 2220.83 267.539 Q2220.83 274.646 2222.64 278.211 Q2224.47 281.752 2228.08 281.752 Q2231.71 281.752 2233.52 278.211 Q2235.35 274.646 2235.35 267.539 Q2235.35 260.41 2233.52 256.868 Q2231.71 253.303 2228.08 253.303 M2228.08 249.6 Q2233.89 249.6 2236.94 254.206 Q2240.02 258.789 2240.02 267.539 Q2240.02 276.266 2236.94 280.873 Q2233.89 285.456 2228.08 285.456 Q2222.27 285.456 2219.19 280.873 Q2216.13 276.266 2216.13 267.539 Q2216.13 258.789 2219.19 254.206 Q2222.27 249.6 2228.08 249.6 Z" fill="#000000" fill-rule="evenodd" fill-opacity="1" /><path clip-path="url(#clip700)" d="M2248.24 278.905 L2253.12 278.905 L2253.12 284.785 L2248.24 284.785 L2248.24 278.905 Z" fill="#000000" fill-rule="evenodd" fill-opacity="1" /><path clip-path="url(#clip700)" d="M2262.13 250.225 L2284.35 250.225 L2284.35 252.215 L2271.8 284.785 L2266.92 284.785 L2278.73 254.16 L2262.13 254.16 L2262.13 250.225 Z" fill="#000000" fill-rule="evenodd" fill-opacity="1" /><path clip-path="url(#clip700)" d="M2332.8 1011.53 L2339.07 1011.53 Q2337.32 1015.19 2336.46 1018.44 Q2335.6 1021.68 2335.6 1024.71 Q2335.6 1029.96 2337.64 1032.82 Q2339.68 1035.66 2343.43 1035.66 Q2346.59 1035.66 2348.21 1033.78 Q2349.8 1031.87 2350.79 1026.59 L2351.58 1022.7 Q2352.95 1015.51 2356.42 1012.1 Q2359.86 1008.67 2365.65 1008.67 Q2372.56 1008.67 2376.12 1013.31 Q2379.69 1017.93 2379.69 1026.87 Q2379.69 1030.25 2378.92 1034.07 Q2378.16 1037.85 2376.66 1041.93 L2370.04 1041.93 Q2372.24 1038.01 2373.35 1034.26 Q2374.47 1030.5 2374.47 1026.87 Q2374.47 1021.37 2372.3 1018.37 Q2370.14 1015.38 2366.13 1015.38 Q2362.63 1015.38 2360.65 1017.55 Q2358.68 1019.68 2357.69 1024.58 L2356.93 1028.5 Q2355.5 1035.69 2352.44 1038.9 Q2349.39 1042.12 2343.94 1042.12 Q2337.64 1042.12 2334.01 1037.69 Q2330.38 1033.24 2330.38 1025.44 Q2330.38 1022.1 2330.99 1018.63 Q2331.59 1015.16 2332.8 1011.53 Z" fill="#000000" fill-rule="evenodd" fill-opacity="1" /><path clip-path="url(#clip700)" d="M2332.99 993.102 L2343.12 993.102 L2343.12 981.039 L2347.67 981.039 L2347.67 993.102 L2367.02 993.102 Q2371.38 993.102 2372.62 991.924 Q2373.86 990.715 2373.86 987.055 L2373.86 981.039 L2378.76 981.039 L2378.76 987.055 Q2378.76 993.834 2376.25 996.412 Q2373.7 998.99 2367.02 998.99 L2347.67 998.99 L2347.67 1003.29 L2343.12 1003.29 L2343.12 998.99 L2332.99 998.99 L2332.99 993.102 Z" fill="#000000" fill-rule="evenodd" fill-opacity="1" /><path clip-path="url(#clip700)" d="M2347.22 959.523 Q2347.22 964.234 2350.91 966.971 Q2354.57 969.708 2360.97 969.708 Q2367.37 969.708 2371.06 967.003 Q2374.72 964.265 2374.72 959.523 Q2374.72 954.844 2371.03 952.107 Q2367.34 949.37 2360.97 949.37 Q2354.64 949.37 2350.95 952.107 Q2347.22 954.844 2347.22 959.523 M2342.26 959.523 Q2342.26 951.884 2347.22 947.524 Q2352.19 943.163 2360.97 943.163 Q2369.72 943.163 2374.72 947.524 Q2379.69 951.884 2379.69 959.523 Q2379.69 967.194 2374.72 971.554 Q2369.72 975.883 2360.97 975.883 Q2352.19 975.883 2347.22 971.554 Q2342.26 967.194 2342.26 959.523 Z" fill="#000000" fill-rule="evenodd" fill-opacity="1" /><path clip-path="url(#clip700)" d="M2348.59 912.799 Q2348.02 913.785 2347.76 914.963 Q2347.48 916.109 2347.48 917.509 Q2347.48 922.474 2350.72 925.148 Q2353.94 927.79 2359.99 927.79 L2378.76 927.79 L2378.76 933.678 L2343.12 933.678 L2343.12 927.79 L2348.65 927.79 Q2345.41 925.944 2343.85 922.984 Q2342.26 920.024 2342.26 915.79 Q2342.26 915.186 2342.35 914.454 Q2342.42 913.722 2342.57 912.83 L2348.59 912.799 Z" fill="#000000" fill-rule="evenodd" fill-opacity="1" /><path clip-path="url(#clip700)" d="M2360.84 890.455 Q2360.84 897.553 2362.47 900.29 Q2364.09 903.027 2368.01 903.027 Q2371.12 903.027 2372.97 900.99 Q2374.79 898.921 2374.79 895.388 Q2374.79 890.519 2371.35 887.59 Q2367.88 884.63 2362.15 884.63 L2360.84 884.63 L2360.84 890.455 M2358.43 878.774 L2378.76 878.774 L2378.76 884.63 L2373.35 884.63 Q2376.6 886.636 2378.16 889.627 Q2379.69 892.619 2379.69 896.948 Q2379.69 902.423 2376.63 905.669 Q2373.54 908.884 2368.39 908.884 Q2362.37 908.884 2359.32 904.873 Q2356.26 900.831 2356.26 892.842 L2356.26 884.63 L2355.69 884.63 Q2351.65 884.63 2349.45 887.304 Q2347.22 889.946 2347.22 894.752 Q2347.22 897.807 2347.95 900.704 Q2348.69 903.6 2350.15 906.274 L2344.74 906.274 Q2343.5 903.059 2342.89 900.035 Q2342.26 897.012 2342.26 894.147 Q2342.26 886.413 2346.27 882.593 Q2350.28 878.774 2358.43 878.774 Z" fill="#000000" fill-rule="evenodd" fill-opacity="1" /><path clip-path="url(#clip700)" d="M2360.53 843.253 Q2354.16 843.253 2350.66 845.895 Q2347.16 848.505 2347.16 853.247 Q2347.16 857.958 2350.66 860.6 Q2354.16 863.21 2360.53 863.21 Q2366.86 863.21 2370.36 860.6 Q2373.86 857.958 2373.86 853.247 Q2373.86 848.505 2370.36 845.895 Q2366.86 843.253 2360.53 843.253 M2374.34 837.397 Q2383.44 837.397 2387.87 841.439 Q2392.32 845.481 2392.32 853.82 Q2392.32 856.908 2391.85 859.645 Q2391.4 862.382 2390.44 864.96 L2384.75 864.96 Q2386.15 862.382 2386.82 859.868 Q2387.48 857.353 2387.48 854.743 Q2387.48 848.982 2384.46 846.118 Q2381.47 843.253 2375.39 843.253 L2372.49 843.253 Q2375.64 845.067 2377.2 847.9 Q2378.76 850.733 2378.76 854.68 Q2378.76 861.236 2373.77 865.247 Q2368.77 869.257 2360.53 869.257 Q2352.25 869.257 2347.25 865.247 Q2342.26 861.236 2342.26 854.68 Q2342.26 850.733 2343.82 847.9 Q2345.38 845.067 2348.53 843.253 L2343.12 843.253 L2343.12 837.397 L2374.34 837.397 Z" fill="#000000" fill-rule="evenodd" fill-opacity="1" /><path clip-path="url(#clip700)" d="M2359.48 794.842 L2362.34 794.842 L2362.34 821.769 Q2368.39 821.387 2371.57 818.141 Q2374.72 814.862 2374.72 809.038 Q2374.72 805.664 2373.89 802.513 Q2373.07 799.33 2371.41 796.211 L2376.95 796.211 Q2378.29 799.362 2378.99 802.672 Q2379.69 805.982 2379.69 809.388 Q2379.69 817.918 2374.72 822.915 Q2369.76 827.88 2361.29 827.88 Q2352.54 827.88 2347.41 823.169 Q2342.26 818.427 2342.26 810.406 Q2342.26 803.213 2346.9 799.043 Q2351.52 794.842 2359.48 794.842 M2357.76 800.699 Q2352.95 800.762 2350.09 803.404 Q2347.22 806.014 2347.22 810.343 Q2347.22 815.244 2349.99 818.204 Q2352.76 821.132 2357.79 821.578 L2357.76 800.699 Z" fill="#000000" fill-rule="evenodd" fill-opacity="1" /><path clip-path="url(#clip700)" d="M2332.8 735.768 L2339.07 735.768 Q2337.32 739.429 2336.46 742.675 Q2335.6 745.922 2335.6 748.945 Q2335.6 754.197 2337.64 757.062 Q2339.68 759.894 2343.43 759.894 Q2346.59 759.894 2348.21 758.016 Q2349.8 756.107 2350.79 750.823 L2351.58 746.94 Q2352.95 739.747 2356.42 736.341 Q2359.86 732.904 2365.65 732.904 Q2372.56 732.904 2376.12 737.551 Q2379.69 742.166 2379.69 751.11 Q2379.69 754.483 2378.92 758.303 Q2378.16 762.091 2376.66 766.165 L2370.04 766.165 Q2372.24 762.25 2373.35 758.494 Q2374.47 754.738 2374.47 751.11 Q2374.47 745.603 2372.3 742.611 Q2370.14 739.62 2366.13 739.62 Q2362.63 739.62 2360.65 741.784 Q2358.68 743.916 2357.69 748.818 L2356.93 752.733 Q2355.5 759.926 2352.44 763.141 Q2349.39 766.356 2343.94 766.356 Q2337.64 766.356 2334.01 761.931 Q2330.38 757.475 2330.38 749.677 Q2330.38 746.335 2330.99 742.866 Q2331.59 739.397 2332.8 735.768 Z" fill="#000000" fill-rule="evenodd" fill-opacity="1" /><path clip-path="url(#clip700)" d="M2335.6 703.59 Q2335.6 710.592 2340.82 714.73 Q2346.04 718.836 2355.05 718.836 Q2364.03 718.836 2369.25 714.73 Q2374.47 710.592 2374.47 703.59 Q2374.47 696.587 2369.25 692.513 Q2364.03 688.407 2355.05 688.407 Q2346.04 688.407 2340.82 692.513 Q2335.6 696.587 2335.6 703.59 M2330.38 703.59 Q2330.38 693.596 2337.1 687.612 Q2343.78 681.628 2355.05 681.628 Q2366.29 681.628 2373 687.612 Q2379.69 693.596 2379.69 703.59 Q2379.69 713.616 2373 719.631 Q2366.32 725.615 2355.05 725.615 Q2343.78 725.615 2337.1 719.631 Q2330.38 713.616 2330.38 703.59 Z" fill="#000000" fill-rule="evenodd" fill-opacity="1" /><path clip-path="url(#clip700)" d="M2334.9 635.986 L2341.68 635.986 Q2338.66 639.232 2337.16 642.924 Q2335.67 646.585 2335.67 650.722 Q2335.67 658.871 2340.67 663.199 Q2345.63 667.528 2355.05 667.528 Q2364.44 667.528 2369.44 663.199 Q2374.4 658.871 2374.4 650.722 Q2374.4 646.585 2372.91 642.924 Q2371.41 639.232 2368.39 635.986 L2375.1 635.986 Q2377.4 639.36 2378.54 643.147 Q2379.69 646.903 2379.69 651.104 Q2379.69 661.894 2373.1 668.101 Q2366.48 674.307 2355.05 674.307 Q2343.59 674.307 2337 668.101 Q2330.38 661.894 2330.38 651.104 Q2330.38 646.839 2331.53 643.084 Q2332.64 639.296 2334.9 635.986 Z" fill="#000000" fill-rule="evenodd" fill-opacity="1" /><path clip-path="url(#clip700)" d="M2329.3 591.521 Q2336.62 595.786 2343.78 597.855 Q2350.95 599.924 2358.3 599.924 Q2365.65 599.924 2372.88 597.855 Q2380.07 595.755 2387.36 591.521 L2387.36 596.614 Q2379.88 601.388 2372.65 603.775 Q2365.43 606.131 2358.3 606.131 Q2351.2 606.131 2344.01 603.775 Q2336.81 601.42 2329.3 596.614 L2329.3 591.521 Z" fill="#000000" fill-rule="evenodd" fill-opacity="1" /><path clip-path="url(#clip700)" d="M2357.85 538.909 Q2357.85 541.678 2360.21 543.269 Q2362.56 544.829 2366.76 544.829 Q2370.9 544.829 2373.29 543.269 Q2375.64 541.678 2375.64 538.909 Q2375.64 536.203 2373.29 534.644 Q2370.9 533.052 2366.76 533.052 Q2362.59 533.052 2360.24 534.644 Q2357.85 536.203 2357.85 538.909 M2353.81 538.909 Q2353.81 533.88 2357.31 530.92 Q2360.81 527.96 2366.76 527.96 Q2372.72 527.96 2376.22 530.952 Q2379.69 533.912 2379.69 538.909 Q2379.69 544.001 2376.22 546.961 Q2372.72 549.922 2366.76 549.922 Q2360.78 549.922 2357.31 546.961 Q2353.81 543.97 2353.81 538.909 M2334.43 571.756 Q2334.43 574.493 2336.81 576.085 Q2339.17 577.644 2343.31 577.644 Q2347.51 577.644 2349.86 576.085 Q2352.22 574.525 2352.22 571.756 Q2352.22 568.987 2349.86 567.427 Q2347.51 565.836 2343.31 565.836 Q2339.2 565.836 2336.81 567.427 Q2334.43 569.019 2334.43 571.756 M2330.38 543.015 L2330.38 537.922 L2379.69 567.65 L2379.69 572.743 L2330.38 543.015 M2330.38 571.756 Q2330.38 566.727 2333.89 563.735 Q2337.35 560.743 2343.31 560.743 Q2349.32 560.743 2352.79 563.735 Q2356.26 566.695 2356.26 571.756 Q2356.26 576.817 2352.79 579.777 Q2349.29 582.705 2343.31 582.705 Q2337.39 582.705 2333.89 579.745 Q2330.38 576.785 2330.38 571.756 Z" fill="#000000" fill-rule="evenodd" fill-opacity="1" /><path clip-path="url(#clip700)" d="M2329.3 519.143 L2329.3 514.051 Q2336.81 509.276 2344.01 506.921 Q2351.2 504.534 2358.3 504.534 Q2365.43 504.534 2372.65 506.921 Q2379.88 509.276 2387.36 514.051 L2387.36 519.143 Q2380.07 514.91 2372.88 512.841 Q2365.65 510.741 2358.3 510.741 Q2350.95 510.741 2343.78 512.841 Q2336.62 514.91 2329.3 519.143 Z" fill="#000000" fill-rule="evenodd" fill-opacity="1" /><polyline clip-path="url(#clip702)" style="stroke:#000000; stroke-linecap:round; stroke-linejoin:round; stroke-width:4; stroke-opacity:1; fill:none" stroke-dasharray="16, 10" points="287.514,766.245 298.517,766.245 309.52,742.032 320.523,713.659 331.526,682.883 342.529,647.576 353.532,612.257 364.535,577.985 375.538,547.58 386.541,534.205 397.544,510.871 408.547,475.731 419.55,475.731 430.553,431.22 441.556,382.253 452.559,382.253 463.562,346.632 474.565,346.632 485.568,309.006 496.57,271.741 507.573,234.361 518.576,195.766 529.579,195.766 540.582,160.256 551.585,186.322 562.588,208.925 573.591,237.326 584.594,266.808 595.597,298.244 606.6,330.423 617.603,361.677 628.606,392.894 639.609,447.104 650.612,501.313 661.615,555.523 672.618,609.732 683.621,663.942 694.624,663.942 705.627,683.426 716.63,710.37 727.633,764.579 738.636,818.789 749.639,872.998 760.642,904.378 771.645,937.202 782.647,973.654 793.65,1012.97 804.653,1051.25 815.656,1051.25 826.659,1021.69 837.662,988.612 848.665,988.612 859.668,951.328 870.671,915.282 881.674,882.903 892.677,852.338 903.68,852.338 914.683,818.349 925.686,872.559 936.689,926.768 947.692,926.768 958.695,900.472 969.698,900.472 980.701,954.682 991.704,1008.89 1002.71,1063.1 1013.71,1063.1 1024.71,1044.27 1035.72,1033.64 1046.72,1019.69 1057.72,1019.69 1068.72,1019.69 1079.73,1055.18 1090.73,1086.99 1101.73,1110.1 1112.74,1129.23 1123.74,1147.51 1134.74,1169.56 1145.75,1223.77 1156.75,1277.98 1167.75,1332.19 1178.75,1386.4 1189.76,1386.4 1200.76,1358.43 1211.76,1321.66 1222.77,1281.92 1233.77,1281.92 1244.77,1336.13 1255.77,1336.13 1266.78,1336.13 1277.78,1336.13 1288.78,1336.13 1299.79,1336.13 1310.79,1336.13 1321.79,1295.57 1332.8,1251.93 1343.8,1223.84 1354.8,1223.84 1365.8,1195.71 1376.81,1195.71 1387.81,1178.44 1398.81,1159.38 1409.82,1159.38 1420.82,1159.38 1431.82,1143.9 1442.83,1143.9 1453.83,1079.72 1464.83,1079.72 1475.83,1028.71 1486.84,1028.71 1497.84,1082.92 1508.84,1137.13 1519.85,1123.12 1530.85,1123.12 1541.85,1118.78 1552.85,1121.28 1563.86,1123.28 1574.86,1132.56 1585.86,1150.05 1596.87,1174.97 1607.87,1199.55 1618.87,1220.52 1629.88,1236.53 1640.88,1248.18 1651.88,1260.79 1662.88,1260.89 1673.89,1315.1 1684.89,1369.31 1695.89,1330.54 1706.9,1282.9 1717.9,1242.19 1728.9,1208.52 1739.91,1184.38 1750.91,1160.41 1761.91,1142.61 1772.91,1142.61 1783.92,1128.71 1794.92,1121.85 1805.92,1116.71 1816.93,1112.03 1827.93,1112.03 1838.93,1112.03 1849.93,1112.03 1860.94,1110.05 1871.94,1110.05 1882.94,1070.88 1893.95,1028.74 1904.95,986.599 1915.95,986.599 1926.96,938.842 1937.96,890.03 1948.96,841.044 1959.96,788.068 1970.97,739.275 1981.97,739.275 1992.97,695.821 2003.98,750.031 2014.98,706.132 2025.98,662.173 2036.99,618.141 2047.99,576.448 2058.99,535.481 2069.99,496.383 2081,456.538 2092,421.135 2103,394.808 2114.01,390.005 2125.01,393.315 "/>
<path clip-path="url(#clip700)" d="M1809.67 205.676 L2115.21 205.676 L2115.21 166.796 L1809.67 166.796  Z" fill="#ffffff" fill-rule="evenodd" fill-opacity="1"/>
<polyline clip-path="url(#clip700)" style="stroke:#000000; stroke-linecap:round; stroke-linejoin:round; stroke-width:4; stroke-opacity:1; fill:none" points="1809.67,205.676 2115.21,205.676 2115.21,166.796 1809.67,166.796 1809.67,205.676 "/>
<polyline clip-path="url(#clip700)" style="stroke:#000000; stroke-linecap:round; stroke-linejoin:round; stroke-width:1.5; stroke-opacity:1; fill:none" stroke-dasharray="8, 5" points="1831.31,186.236 1961.16,186.236 "/>
<path clip-path="url(#clip700)" d="M1991.15 180.181 L1991.15 181.891 Q1990.15 181.414 1989.26 181.179 Q1988.38 180.945 1987.55 180.945 Q1986.12 180.945 1985.34 181.5 Q1984.57 182.056 1984.57 183.08 Q1984.57 183.94 1985.08 184.382 Q1985.6 184.816 1987.04 185.086 L1988.1 185.303 Q1990.06 185.676 1990.99 186.622 Q1991.93 187.559 1991.93 189.139 Q1991.93 191.023 1990.66 191.995 Q1989.4 192.967 1986.96 192.967 Q1986.04 192.967 1985 192.759 Q1983.97 192.551 1982.86 192.143 L1982.86 190.337 Q1983.92 190.936 1984.95 191.24 Q1985.97 191.544 1986.96 191.544 Q1988.46 191.544 1989.28 190.954 Q1990.1 190.363 1990.1 189.27 Q1990.1 188.315 1989.51 187.777 Q1988.92 187.238 1987.59 186.969 L1986.52 186.761 Q1984.56 186.37 1983.68 185.537 Q1982.8 184.704 1982.8 183.219 Q1982.8 181.5 1984.01 180.511 Q1985.23 179.521 1987.35 179.521 Q1988.26 179.521 1989.21 179.686 Q1990.16 179.851 1991.15 180.181 Z" fill="#000000" fill-rule="evenodd" fill-opacity="1" /><path clip-path="url(#clip700)" d="M1996.17 180.233 L1996.17 182.994 L1999.46 182.994 L1999.46 184.235 L1996.17 184.235 L1996.17 189.513 Q1996.17 190.702 1996.49 191.04 Q1996.82 191.379 1997.82 191.379 L1999.46 191.379 L1999.46 192.716 L1997.82 192.716 Q1995.97 192.716 1995.27 192.03 Q1994.57 191.336 1994.57 189.513 L1994.57 184.235 L1993.39 184.235 L1993.39 182.994 L1994.57 182.994 L1994.57 180.233 L1996.17 180.233 Z" fill="#000000" fill-rule="evenodd" fill-opacity="1" /><path clip-path="url(#clip700)" d="M2005.33 184.113 Q2004.05 184.113 2003.3 185.12 Q2002.55 186.119 2002.55 187.863 Q2002.55 189.608 2003.29 190.615 Q2004.04 191.613 2005.33 191.613 Q2006.61 191.613 2007.35 190.606 Q2008.1 189.599 2008.1 187.863 Q2008.1 186.136 2007.35 185.129 Q2006.61 184.113 2005.33 184.113 M2005.33 182.759 Q2007.41 182.759 2008.6 184.113 Q2009.79 185.467 2009.79 187.863 Q2009.79 190.25 2008.6 191.613 Q2007.41 192.967 2005.33 192.967 Q2003.24 192.967 2002.05 191.613 Q2000.87 190.25 2000.87 187.863 Q2000.87 185.467 2002.05 184.113 Q2003.24 182.759 2005.33 182.759 Z" fill="#000000" fill-rule="evenodd" fill-opacity="1" /><path clip-path="url(#clip700)" d="M2018.07 184.487 Q2017.8 184.33 2017.48 184.261 Q2017.17 184.183 2016.79 184.183 Q2015.43 184.183 2014.7 185.068 Q2013.98 185.945 2013.98 187.594 L2013.98 192.716 L2012.38 192.716 L2012.38 182.994 L2013.98 182.994 L2013.98 184.504 Q2014.49 183.619 2015.3 183.193 Q2016.1 182.759 2017.26 182.759 Q2017.42 182.759 2017.62 182.785 Q2017.82 182.803 2018.06 182.846 L2018.07 184.487 Z" fill="#000000" fill-rule="evenodd" fill-opacity="1" /><path clip-path="url(#clip700)" d="M2024.17 187.829 Q2022.23 187.829 2021.48 188.271 Q2020.74 188.714 2020.74 189.782 Q2020.74 190.632 2021.29 191.136 Q2021.86 191.631 2022.82 191.631 Q2024.15 191.631 2024.95 190.693 Q2025.76 189.747 2025.76 188.184 L2025.76 187.829 L2024.17 187.829 M2027.35 187.169 L2027.35 192.716 L2025.76 192.716 L2025.76 191.24 Q2025.21 192.125 2024.39 192.551 Q2023.58 192.967 2022.4 192.967 Q2020.9 192.967 2020.02 192.134 Q2019.14 191.292 2019.14 189.886 Q2019.14 188.245 2020.23 187.412 Q2021.34 186.579 2023.52 186.579 L2025.76 186.579 L2025.76 186.422 Q2025.76 185.32 2025.03 184.721 Q2024.31 184.113 2022.99 184.113 Q2022.16 184.113 2021.37 184.313 Q2020.58 184.513 2019.85 184.912 L2019.85 183.436 Q2020.73 183.098 2021.55 182.933 Q2022.38 182.759 2023.16 182.759 Q2025.27 182.759 2026.31 183.853 Q2027.35 184.947 2027.35 187.169 Z" fill="#000000" fill-rule="evenodd" fill-opacity="1" /><path clip-path="url(#clip700)" d="M2037.04 187.742 Q2037.04 186.006 2036.32 185.051 Q2035.61 184.096 2034.31 184.096 Q2033.03 184.096 2032.31 185.051 Q2031.6 186.006 2031.6 187.742 Q2031.6 189.469 2032.31 190.424 Q2033.03 191.379 2034.31 191.379 Q2035.61 191.379 2036.32 190.424 Q2037.04 189.469 2037.04 187.742 M2038.64 191.509 Q2038.64 193.992 2037.53 195.198 Q2036.43 196.414 2034.16 196.414 Q2033.32 196.414 2032.57 196.283 Q2031.82 196.162 2031.12 195.901 L2031.12 194.348 Q2031.82 194.73 2032.51 194.912 Q2033.19 195.094 2033.91 195.094 Q2035.48 195.094 2036.26 194.27 Q2037.04 193.454 2037.04 191.796 L2037.04 191.006 Q2036.55 191.865 2035.77 192.29 Q2035 192.716 2033.92 192.716 Q2032.14 192.716 2031.04 191.353 Q2029.95 189.99 2029.95 187.742 Q2029.95 185.485 2031.04 184.122 Q2032.14 182.759 2033.92 182.759 Q2035 182.759 2035.77 183.185 Q2036.55 183.61 2037.04 184.469 L2037.04 182.994 L2038.64 182.994 L2038.64 191.509 Z" fill="#000000" fill-rule="evenodd" fill-opacity="1" /><path clip-path="url(#clip700)" d="M2050.24 187.455 L2050.24 188.237 L2042.9 188.237 Q2043 189.886 2043.89 190.754 Q2044.78 191.613 2046.37 191.613 Q2047.29 191.613 2048.15 191.388 Q2049.02 191.162 2049.87 190.711 L2049.87 192.221 Q2049.01 192.586 2048.11 192.776 Q2047.2 192.967 2046.28 192.967 Q2043.95 192.967 2042.59 191.613 Q2041.23 190.259 2041.23 187.95 Q2041.23 185.563 2042.52 184.165 Q2043.81 182.759 2046 182.759 Q2047.96 182.759 2049.1 184.027 Q2050.24 185.285 2050.24 187.455 M2048.65 186.987 Q2048.63 185.676 2047.91 184.895 Q2047.2 184.113 2046.02 184.113 Q2044.68 184.113 2043.87 184.869 Q2043.07 185.624 2042.95 186.995 L2048.65 186.987 Z" fill="#000000" fill-rule="evenodd" fill-opacity="1" /><path clip-path="url(#clip700)" d="M2066.35 180.181 L2066.35 181.891 Q2065.36 181.414 2064.47 181.179 Q2063.58 180.945 2062.76 180.945 Q2061.33 180.945 2060.55 181.5 Q2059.77 182.056 2059.77 183.08 Q2059.77 183.94 2060.29 184.382 Q2060.81 184.816 2062.25 185.086 L2063.31 185.303 Q2065.27 185.676 2066.2 186.622 Q2067.14 187.559 2067.14 189.139 Q2067.14 191.023 2065.87 191.995 Q2064.61 192.967 2062.17 192.967 Q2061.25 192.967 2060.21 192.759 Q2059.18 192.551 2058.06 192.143 L2058.06 190.337 Q2059.13 190.936 2060.16 191.24 Q2061.18 191.544 2062.17 191.544 Q2063.67 191.544 2064.49 190.954 Q2065.3 190.363 2065.3 189.27 Q2065.3 188.315 2064.71 187.777 Q2064.13 187.238 2062.79 186.969 L2061.73 186.761 Q2059.77 186.37 2058.89 185.537 Q2058.01 184.704 2058.01 183.219 Q2058.01 181.5 2059.22 180.511 Q2060.43 179.521 2062.56 179.521 Q2063.47 179.521 2064.42 179.686 Q2065.36 179.851 2066.35 180.181 Z" fill="#000000" fill-rule="evenodd" fill-opacity="1" /><path clip-path="url(#clip700)" d="M2075.13 180.945 Q2073.22 180.945 2072.09 182.369 Q2070.97 183.792 2070.97 186.249 Q2070.97 188.697 2072.09 190.12 Q2073.22 191.544 2075.13 191.544 Q2077.04 191.544 2078.15 190.12 Q2079.27 188.697 2079.27 186.249 Q2079.27 183.792 2078.15 182.369 Q2077.04 180.945 2075.13 180.945 M2075.13 179.521 Q2077.86 179.521 2079.49 181.353 Q2081.12 183.176 2081.12 186.249 Q2081.12 189.313 2079.49 191.145 Q2077.86 192.967 2075.13 192.967 Q2072.4 192.967 2070.75 191.145 Q2069.12 189.322 2069.12 186.249 Q2069.12 183.176 2070.75 181.353 Q2072.4 179.521 2075.13 179.521 Z" fill="#000000" fill-rule="evenodd" fill-opacity="1" /><path clip-path="url(#clip700)" d="M2093.57 180.754 L2093.57 182.603 Q2092.68 181.778 2091.67 181.37 Q2090.68 180.962 2089.55 180.962 Q2087.33 180.962 2086.15 182.325 Q2084.96 183.679 2084.96 186.249 Q2084.96 188.809 2086.15 190.172 Q2087.33 191.526 2089.55 191.526 Q2090.68 191.526 2091.67 191.119 Q2092.68 190.711 2093.57 189.886 L2093.57 191.717 Q2092.65 192.342 2091.61 192.655 Q2090.59 192.967 2089.44 192.967 Q2086.5 192.967 2084.81 191.171 Q2083.12 189.365 2083.12 186.249 Q2083.12 183.124 2084.81 181.327 Q2086.5 179.521 2089.44 179.521 Q2090.61 179.521 2091.63 179.834 Q2092.66 180.138 2093.57 180.754 Z" fill="#000000" fill-rule="evenodd" fill-opacity="1" /></svg>
