<?xml version="1.0" encoding="utf-8"?>
<svg xmlns="http://www.w3.org/2000/svg" xmlns:xlink="http://www.w3.org/1999/xlink" width="600" height="400" viewBox="0 0 2400 1600">
<defs>
  <clipPath id="clip740">
    <rect x="0" y="0" width="2400" height="1600"/>
  </clipPath>
</defs>
<path clip-path="url(#clip740)" d="M0 1600 L2400 1600 L2400 0 L0 0  Z" fill="#ffffff" fill-rule="evenodd" fill-opacity="1"/>
<defs>
  <clipPath id="clip741">
    <rect x="480" y="0" width="1681" height="1600"/>
  </clipPath>
</defs>
<path clip-path="url(#clip740)" d="M247.459 1423.18 L2194.88 1423.18 L2194.88 123.472 L247.459 123.472  Z" fill="#ffffff" fill-rule="evenodd" fill-opacity="1"/>
<defs>
  <clipPath id="clip742">
    <rect x="247" y="123" width="1948" height="1301"/>
  </clipPath>
</defs>
<polyline clip-path="url(#clip742)" style="stroke:#000000; stroke-linecap:round; stroke-linejoin:round; stroke-width:2; stroke-opacity:0.1; fill:none" points="291.573,1423.18 291.573,123.472 "/>
<polyline clip-path="url(#clip742)" style="stroke:#000000; stroke-linecap:round; stroke-linejoin:round; stroke-width:2; stroke-opacity:0.1; fill:none" points="841.63,1423.18 841.63,123.472 "/>
<polyline clip-path="url(#clip742)" style="stroke:#000000; stroke-linecap:round; stroke-linejoin:round; stroke-width:2; stroke-opacity:0.1; fill:none" points="1391.69,1423.18 1391.69,123.472 "/>
<polyline clip-path="url(#clip742)" style="stroke:#000000; stroke-linecap:round; stroke-linejoin:round; stroke-width:2; stroke-opacity:0.1; fill:none" points="1941.74,1423.18 1941.74,123.472 "/>
<polyline clip-path="url(#clip740)" style="stroke:#000000; stroke-linecap:round; stroke-linejoin:round; stroke-width:4; stroke-opacity:1; fill:none" points="247.459,1423.18 2194.88,1423.18 "/>
<polyline clip-path="url(#clip740)" style="stroke:#000000; stroke-linecap:round; stroke-linejoin:round; stroke-width:4; stroke-opacity:1; fill:none" points="291.573,1423.18 291.573,1404.28 "/>
<polyline clip-path="url(#clip740)" style="stroke:#000000; stroke-linecap:round; stroke-linejoin:round; stroke-width:4; stroke-opacity:1; fill:none" points="841.63,1423.18 841.63,1404.28 "/>
<polyline clip-path="url(#clip740)" style="stroke:#000000; stroke-linecap:round; stroke-linejoin:round; stroke-width:4; stroke-opacity:1; fill:none" points="1391.69,1423.18 1391.69,1404.28 "/>
<polyline clip-path="url(#clip740)" style="stroke:#000000; stroke-linecap:round; stroke-linejoin:round; stroke-width:4; stroke-opacity:1; fill:none" points="1941.74,1423.18 1941.74,1404.28 "/>
<path clip-path="url(#clip740)" d="M291.573 1454.1 Q287.962 1454.1 286.133 1457.66 Q284.328 1461.2 284.328 1468.33 Q284.328 1475.44 286.133 1479.01 Q287.962 1482.55 291.573 1482.55 Q295.207 1482.55 297.013 1479.01 Q298.842 1475.44 298.842 1468.33 Q298.842 1461.2 297.013 1457.66 Q295.207 1454.1 291.573 1454.1 M291.573 1450.39 Q297.383 1450.39 300.439 1455 Q303.518 1459.58 303.518 1468.33 Q303.518 1477.06 300.439 1481.67 Q297.383 1486.25 291.573 1486.25 Q285.763 1486.25 282.684 1481.67 Q279.629 1477.06 279.629 1468.33 Q279.629 1459.58 282.684 1455 Q285.763 1450.39 291.573 1450.39 Z" fill="#000000" fill-rule="evenodd" fill-opacity="1" /><path clip-path="url(#clip740)" d="M816.329 1451.02 L834.685 1451.02 L834.685 1454.96 L820.611 1454.96 L820.611 1463.43 Q821.63 1463.08 822.648 1462.92 Q823.667 1462.73 824.685 1462.73 Q830.472 1462.73 833.852 1465.9 Q837.232 1469.08 837.232 1474.49 Q837.232 1480.07 833.759 1483.17 Q830.287 1486.25 823.968 1486.25 Q821.792 1486.25 819.523 1485.88 Q817.278 1485.51 814.871 1484.77 L814.871 1480.07 Q816.954 1481.2 819.176 1481.76 Q821.398 1482.32 823.875 1482.32 Q827.88 1482.32 830.218 1480.21 Q832.556 1478.1 832.556 1474.49 Q832.556 1470.88 830.218 1468.77 Q827.88 1466.67 823.875 1466.67 Q822 1466.67 820.125 1467.08 Q818.273 1467.5 816.329 1468.38 L816.329 1451.02 Z" fill="#000000" fill-rule="evenodd" fill-opacity="1" /><path clip-path="url(#clip740)" d="M856.445 1454.1 Q852.833 1454.1 851.005 1457.66 Q849.199 1461.2 849.199 1468.33 Q849.199 1475.44 851.005 1479.01 Q852.833 1482.55 856.445 1482.55 Q860.079 1482.55 861.884 1479.01 Q863.713 1475.44 863.713 1468.33 Q863.713 1461.2 861.884 1457.66 Q860.079 1454.1 856.445 1454.1 M856.445 1450.39 Q862.255 1450.39 865.31 1455 Q868.389 1459.58 868.389 1468.33 Q868.389 1477.06 865.31 1481.67 Q862.255 1486.25 856.445 1486.25 Q850.634 1486.25 847.556 1481.67 Q844.5 1477.06 844.5 1468.33 Q844.5 1459.58 847.556 1455 Q850.634 1450.39 856.445 1450.39 Z" fill="#000000" fill-rule="evenodd" fill-opacity="1" /><path clip-path="url(#clip740)" d="M1351.29 1481.64 L1358.93 1481.64 L1358.93 1455.28 L1350.62 1456.95 L1350.62 1452.69 L1358.89 1451.02 L1363.56 1451.02 L1363.56 1481.64 L1371.2 1481.64 L1371.2 1485.58 L1351.29 1485.58 L1351.29 1481.64 Z" fill="#000000" fill-rule="evenodd" fill-opacity="1" /><path clip-path="url(#clip740)" d="M1390.64 1454.1 Q1387.03 1454.1 1385.2 1457.66 Q1383.4 1461.2 1383.4 1468.33 Q1383.4 1475.44 1385.2 1479.01 Q1387.03 1482.55 1390.64 1482.55 Q1394.28 1482.55 1396.08 1479.01 Q1397.91 1475.44 1397.91 1468.33 Q1397.91 1461.2 1396.08 1457.66 Q1394.28 1454.1 1390.64 1454.1 M1390.64 1450.39 Q1396.45 1450.39 1399.51 1455 Q1402.59 1459.58 1402.59 1468.33 Q1402.59 1477.06 1399.51 1481.67 Q1396.45 1486.25 1390.64 1486.25 Q1384.83 1486.25 1381.76 1481.67 Q1378.7 1477.06 1378.7 1468.33 Q1378.7 1459.58 1381.76 1455 Q1384.83 1450.39 1390.64 1450.39 Z" fill="#000000" fill-rule="evenodd" fill-opacity="1" /><path clip-path="url(#clip740)" d="M1420.81 1454.1 Q1417.2 1454.1 1415.37 1457.66 Q1413.56 1461.2 1413.56 1468.33 Q1413.56 1475.44 1415.37 1479.01 Q1417.2 1482.55 1420.81 1482.55 Q1424.44 1482.55 1426.25 1479.01 Q1428.08 1475.44 1428.08 1468.33 Q1428.08 1461.2 1426.25 1457.66 Q1424.44 1454.1 1420.81 1454.1 M1420.81 1450.39 Q1426.62 1450.39 1429.67 1455 Q1432.75 1459.58 1432.75 1468.33 Q1432.75 1477.06 1429.67 1481.67 Q1426.62 1486.25 1420.81 1486.25 Q1415 1486.25 1411.92 1481.67 Q1408.86 1477.06 1408.86 1468.33 Q1408.86 1459.58 1411.92 1455 Q1415 1450.39 1420.81 1450.39 Z" fill="#000000" fill-rule="evenodd" fill-opacity="1" /><path clip-path="url(#clip740)" d="M1901.35 1481.64 L1908.99 1481.64 L1908.99 1455.28 L1900.68 1456.95 L1900.68 1452.69 L1908.94 1451.02 L1913.62 1451.02 L1913.62 1481.64 L1921.26 1481.64 L1921.26 1485.58 L1901.35 1485.58 L1901.35 1481.64 Z" fill="#000000" fill-rule="evenodd" fill-opacity="1" /><path clip-path="url(#clip740)" d="M1930.75 1451.02 L1949.1 1451.02 L1949.1 1454.96 L1935.03 1454.96 L1935.03 1463.43 Q1936.05 1463.08 1937.07 1462.92 Q1938.09 1462.73 1939.1 1462.73 Q1944.89 1462.73 1948.27 1465.9 Q1951.65 1469.08 1951.65 1474.49 Q1951.65 1480.07 1948.18 1483.17 Q1944.71 1486.25 1938.39 1486.25 Q1936.21 1486.25 1933.94 1485.88 Q1931.7 1485.51 1929.29 1484.77 L1929.29 1480.07 Q1931.37 1481.2 1933.59 1481.76 Q1935.82 1482.32 1938.29 1482.32 Q1942.3 1482.32 1944.64 1480.21 Q1946.97 1478.1 1946.97 1474.49 Q1946.97 1470.88 1944.64 1468.77 Q1942.3 1466.67 1938.29 1466.67 Q1936.42 1466.67 1934.54 1467.08 Q1932.69 1467.5 1930.75 1468.38 L1930.75 1451.02 Z" fill="#000000" fill-rule="evenodd" fill-opacity="1" /><path clip-path="url(#clip740)" d="M1970.86 1454.1 Q1967.25 1454.1 1965.42 1457.66 Q1963.62 1461.2 1963.62 1468.33 Q1963.62 1475.44 1965.42 1479.01 Q1967.25 1482.55 1970.86 1482.55 Q1974.5 1482.55 1976.3 1479.01 Q1978.13 1475.44 1978.13 1468.33 Q1978.13 1461.2 1976.3 1457.66 Q1974.5 1454.1 1970.86 1454.1 M1970.86 1450.39 Q1976.67 1450.39 1979.73 1455 Q1982.81 1459.58 1982.81 1468.33 Q1982.81 1477.06 1979.73 1481.67 Q1976.67 1486.25 1970.86 1486.25 Q1965.05 1486.25 1961.97 1481.67 Q1958.92 1477.06 1958.92 1468.33 Q1958.92 1459.58 1961.97 1455 Q1965.05 1450.39 1970.86 1450.39 Z" fill="#000000" fill-rule="evenodd" fill-opacity="1" /><path clip-path="url(#clip740)" d="M1143.05 1520.52 L1183.25 1520.52 L1183.25 1525.93 L1166.38 1525.93 L1166.38 1568.04 L1159.91 1568.04 L1159.91 1525.93 L1143.05 1525.93 L1143.05 1520.52 Z" fill="#000000" fill-rule="evenodd" fill-opacity="1" /><path clip-path="url(#clip740)" d="M1187.19 1532.4 L1193.05 1532.4 L1193.05 1568.04 L1187.19 1568.04 L1187.19 1532.4 M1187.19 1518.52 L1193.05 1518.52 L1193.05 1525.93 L1187.19 1525.93 L1187.19 1518.52 Z" fill="#000000" fill-rule="evenodd" fill-opacity="1" /><path clip-path="url(#clip740)" d="M1233.06 1539.24 Q1235.25 1535.29 1238.31 1533.41 Q1241.36 1531.54 1245.5 1531.54 Q1251.07 1531.54 1254.1 1535.45 Q1257.12 1539.33 1257.12 1546.53 L1257.12 1568.04 L1251.23 1568.04 L1251.23 1546.72 Q1251.23 1541.59 1249.42 1539.11 Q1247.6 1536.63 1243.88 1536.63 Q1239.33 1536.63 1236.69 1539.65 Q1234.04 1542.68 1234.04 1547.9 L1234.04 1568.04 L1228.16 1568.04 L1228.16 1546.72 Q1228.16 1541.56 1226.34 1539.11 Q1224.53 1536.63 1220.74 1536.63 Q1216.25 1536.63 1213.61 1539.68 Q1210.97 1542.71 1210.97 1547.9 L1210.97 1568.04 L1205.08 1568.04 L1205.08 1532.4 L1210.97 1532.4 L1210.97 1537.93 Q1212.97 1534.66 1215.77 1533.1 Q1218.57 1531.54 1222.43 1531.54 Q1226.31 1531.54 1229.01 1533.51 Q1231.75 1535.48 1233.06 1539.24 Z" fill="#000000" fill-rule="evenodd" fill-opacity="1" /><path clip-path="url(#clip740)" d="M1299.29 1548.76 L1299.29 1551.62 L1272.37 1551.62 Q1272.75 1557.67 1275.99 1560.85 Q1279.27 1564 1285.1 1564 Q1288.47 1564 1291.62 1563.17 Q1294.8 1562.35 1297.92 1560.69 L1297.92 1566.23 Q1294.77 1567.57 1291.46 1568.27 Q1288.15 1568.97 1284.75 1568.97 Q1276.22 1568.97 1271.22 1564 Q1266.25 1559.04 1266.25 1550.57 Q1266.25 1541.82 1270.96 1536.69 Q1275.71 1531.54 1283.73 1531.54 Q1290.92 1531.54 1295.09 1536.18 Q1299.29 1540.8 1299.29 1548.76 M1293.44 1547.04 Q1293.37 1542.23 1290.73 1539.37 Q1288.12 1536.5 1283.79 1536.5 Q1278.89 1536.5 1275.93 1539.27 Q1273 1542.04 1272.56 1547.07 L1293.44 1547.04 Z" fill="#000000" fill-rule="evenodd" fill-opacity="1" /><polyline clip-path="url(#clip740)" style="stroke:#000000; stroke-linecap:round; stroke-linejoin:round; stroke-width:4; stroke-opacity:1; fill:none" points="247.459,1423.18 247.459,123.472 "/>
<polyline clip-path="url(#clip740)" style="stroke:#000000; stroke-linecap:round; stroke-linejoin:round; stroke-width:4; stroke-opacity:1; fill:none" points="247.459,1386.4 266.356,1386.4 "/>
<polyline clip-path="url(#clip740)" style="stroke:#000000; stroke-linecap:round; stroke-linejoin:round; stroke-width:4; stroke-opacity:1; fill:none" points="247.459,1070.81 266.356,1070.81 "/>
<polyline clip-path="url(#clip740)" style="stroke:#000000; stroke-linecap:round; stroke-linejoin:round; stroke-width:4; stroke-opacity:1; fill:none" points="247.459,755.229 266.356,755.229 "/>
<polyline clip-path="url(#clip740)" style="stroke:#000000; stroke-linecap:round; stroke-linejoin:round; stroke-width:4; stroke-opacity:1; fill:none" points="247.459,439.646 266.356,439.646 "/>
<polyline clip-path="url(#clip740)" style="stroke:#000000; stroke-linecap:round; stroke-linejoin:round; stroke-width:4; stroke-opacity:1; fill:none" points="247.459,124.062 266.356,124.062 "/>
<path clip-path="url(#clip740)" d="M154.283 1372.19 Q150.672 1372.19 148.843 1375.76 Q147.038 1379.3 147.038 1386.43 Q147.038 1393.54 148.843 1397.1 Q150.672 1400.64 154.283 1400.64 Q157.917 1400.64 159.723 1397.1 Q161.552 1393.54 161.552 1386.43 Q161.552 1379.3 159.723 1375.76 Q157.917 1372.19 154.283 1372.19 M154.283 1368.49 Q160.093 1368.49 163.149 1373.1 Q166.227 1377.68 166.227 1386.43 Q166.227 1395.16 163.149 1399.76 Q160.093 1404.35 154.283 1404.35 Q148.473 1404.35 145.394 1399.76 Q142.339 1395.16 142.339 1386.43 Q142.339 1377.68 145.394 1373.1 Q148.473 1368.49 154.283 1368.49 Z" fill="#000000" fill-rule="evenodd" fill-opacity="1" /><path clip-path="url(#clip740)" d="M174.445 1397.8 L179.329 1397.8 L179.329 1403.68 L174.445 1403.68 L174.445 1397.8 Z" fill="#000000" fill-rule="evenodd" fill-opacity="1" /><path clip-path="url(#clip740)" d="M199.514 1372.19 Q195.903 1372.19 194.075 1375.76 Q192.269 1379.3 192.269 1386.43 Q192.269 1393.54 194.075 1397.1 Q195.903 1400.64 199.514 1400.64 Q203.149 1400.64 204.954 1397.1 Q206.783 1393.54 206.783 1386.43 Q206.783 1379.3 204.954 1375.76 Q203.149 1372.19 199.514 1372.19 M199.514 1368.49 Q205.324 1368.49 208.38 1373.1 Q211.459 1377.68 211.459 1386.43 Q211.459 1395.16 208.38 1399.76 Q205.324 1404.35 199.514 1404.35 Q193.704 1404.35 190.625 1399.76 Q187.57 1395.16 187.57 1386.43 Q187.57 1377.68 190.625 1373.1 Q193.704 1368.49 199.514 1368.49 Z" fill="#000000" fill-rule="evenodd" fill-opacity="1" /><path clip-path="url(#clip740)" d="M149.306 1084.16 L165.626 1084.16 L165.626 1088.09 L143.681 1088.09 L143.681 1084.16 Q146.343 1081.4 150.927 1076.77 Q155.533 1072.12 156.714 1070.78 Q158.959 1068.25 159.839 1066.52 Q160.741 1064.76 160.741 1063.07 Q160.741 1060.31 158.797 1058.58 Q156.876 1056.84 153.774 1056.84 Q151.575 1056.84 149.121 1057.61 Q146.691 1058.37 143.913 1059.92 L143.913 1055.2 Q146.737 1054.06 149.191 1053.49 Q151.644 1052.91 153.681 1052.91 Q159.052 1052.91 162.246 1055.59 Q165.44 1058.28 165.44 1062.77 Q165.44 1064.9 164.63 1066.82 Q163.843 1068.72 161.737 1071.31 Q161.158 1071.98 158.056 1075.2 Q154.954 1078.39 149.306 1084.16 Z" fill="#000000" fill-rule="evenodd" fill-opacity="1" /><path clip-path="url(#clip740)" d="M175.44 1082.21 L180.325 1082.21 L180.325 1088.09 L175.44 1088.09 L175.44 1082.21 Z" fill="#000000" fill-rule="evenodd" fill-opacity="1" /><path clip-path="url(#clip740)" d="M190.556 1053.53 L208.912 1053.53 L208.912 1057.47 L194.838 1057.47 L194.838 1065.94 Q195.857 1065.59 196.875 1065.43 Q197.894 1065.25 198.912 1065.25 Q204.699 1065.25 208.079 1068.42 Q211.459 1071.59 211.459 1077 Q211.459 1082.58 207.987 1085.68 Q204.514 1088.76 198.195 1088.76 Q196.019 1088.76 193.75 1088.39 Q191.505 1088.02 189.098 1087.28 L189.098 1082.58 Q191.181 1083.72 193.403 1084.27 Q195.625 1084.83 198.102 1084.83 Q202.107 1084.83 204.445 1082.72 Q206.783 1080.62 206.783 1077 Q206.783 1073.39 204.445 1071.29 Q202.107 1069.18 198.102 1069.18 Q196.227 1069.18 194.352 1069.6 Q192.5 1070.01 190.556 1070.89 L190.556 1053.53 Z" fill="#000000" fill-rule="evenodd" fill-opacity="1" /><path clip-path="url(#clip740)" d="M144.329 737.949 L162.686 737.949 L162.686 741.884 L148.612 741.884 L148.612 750.356 Q149.63 750.009 150.649 749.847 Q151.667 749.662 152.686 749.662 Q158.473 749.662 161.852 752.833 Q165.232 756.005 165.232 761.421 Q165.232 767 161.76 770.102 Q158.288 773.18 151.968 773.18 Q149.792 773.18 147.524 772.81 Q145.279 772.44 142.871 771.699 L142.871 767 Q144.954 768.134 147.177 768.69 Q149.399 769.245 151.876 769.245 Q155.88 769.245 158.218 767.139 Q160.556 765.032 160.556 761.421 Q160.556 757.81 158.218 755.704 Q155.88 753.597 151.876 753.597 Q150.001 753.597 148.126 754.014 Q146.274 754.43 144.329 755.31 L144.329 737.949 Z" fill="#000000" fill-rule="evenodd" fill-opacity="1" /><path clip-path="url(#clip740)" d="M174.445 766.629 L179.329 766.629 L179.329 772.509 L174.445 772.509 L174.445 766.629 Z" fill="#000000" fill-rule="evenodd" fill-opacity="1" /><path clip-path="url(#clip740)" d="M199.514 741.028 Q195.903 741.028 194.075 744.593 Q192.269 748.134 192.269 755.264 Q192.269 762.37 194.075 765.935 Q195.903 769.477 199.514 769.477 Q203.149 769.477 204.954 765.935 Q206.783 762.37 206.783 755.264 Q206.783 748.134 204.954 744.593 Q203.149 741.028 199.514 741.028 M199.514 737.324 Q205.324 737.324 208.38 741.931 Q211.459 746.514 211.459 755.264 Q211.459 763.991 208.38 768.597 Q205.324 773.18 199.514 773.18 Q193.704 773.18 190.625 768.597 Q187.57 763.991 187.57 755.264 Q187.57 746.514 190.625 741.931 Q193.704 737.324 199.514 737.324 Z" fill="#000000" fill-rule="evenodd" fill-opacity="1" /><path clip-path="url(#clip740)" d="M144.098 422.366 L166.32 422.366 L166.32 424.356 L153.774 456.926 L148.89 456.926 L160.695 426.301 L144.098 426.301 L144.098 422.366 Z" fill="#000000" fill-rule="evenodd" fill-opacity="1" /><path clip-path="url(#clip740)" d="M175.44 451.046 L180.325 451.046 L180.325 456.926 L175.44 456.926 L175.44 451.046 Z" fill="#000000" fill-rule="evenodd" fill-opacity="1" /><path clip-path="url(#clip740)" d="M190.556 422.366 L208.912 422.366 L208.912 426.301 L194.838 426.301 L194.838 434.773 Q195.857 434.426 196.875 434.264 Q197.894 434.079 198.912 434.079 Q204.699 434.079 208.079 437.25 Q211.459 440.421 211.459 445.838 Q211.459 451.417 207.987 454.518 Q204.514 457.597 198.195 457.597 Q196.019 457.597 193.75 457.227 Q191.505 456.856 189.098 456.116 L189.098 451.417 Q191.181 452.551 193.403 453.106 Q195.625 453.662 198.102 453.662 Q202.107 453.662 204.445 451.555 Q206.783 449.449 206.783 445.838 Q206.783 442.227 204.445 440.12 Q202.107 438.014 198.102 438.014 Q196.227 438.014 194.352 438.43 Q192.5 438.847 190.556 439.727 L190.556 422.366 Z" fill="#000000" fill-rule="evenodd" fill-opacity="1" /><path clip-path="url(#clip740)" d="M114.931 137.407 L122.57 137.407 L122.57 111.042 L114.26 112.708 L114.26 108.449 L122.524 106.782 L127.2 106.782 L127.2 137.407 L134.839 137.407 L134.839 141.342 L114.931 141.342 L114.931 137.407 Z" fill="#000000" fill-rule="evenodd" fill-opacity="1" /><path clip-path="url(#clip740)" d="M154.283 109.861 Q150.672 109.861 148.843 113.426 Q147.038 116.968 147.038 124.097 Q147.038 131.204 148.843 134.768 Q150.672 138.31 154.283 138.31 Q157.917 138.31 159.723 134.768 Q161.552 131.204 161.552 124.097 Q161.552 116.968 159.723 113.426 Q157.917 109.861 154.283 109.861 M154.283 106.157 Q160.093 106.157 163.149 110.764 Q166.227 115.347 166.227 124.097 Q166.227 132.824 163.149 137.43 Q160.093 142.014 154.283 142.014 Q148.473 142.014 145.394 137.43 Q142.339 132.824 142.339 124.097 Q142.339 115.347 145.394 110.764 Q148.473 106.157 154.283 106.157 Z" fill="#000000" fill-rule="evenodd" fill-opacity="1" /><path clip-path="url(#clip740)" d="M174.445 135.463 L179.329 135.463 L179.329 141.342 L174.445 141.342 L174.445 135.463 Z" fill="#000000" fill-rule="evenodd" fill-opacity="1" /><path clip-path="url(#clip740)" d="M199.514 109.861 Q195.903 109.861 194.075 113.426 Q192.269 116.968 192.269 124.097 Q192.269 131.204 194.075 134.768 Q195.903 138.31 199.514 138.31 Q203.149 138.31 204.954 134.768 Q206.783 131.204 206.783 124.097 Q206.783 116.968 204.954 113.426 Q203.149 109.861 199.514 109.861 M199.514 106.157 Q205.324 106.157 208.38 110.764 Q211.459 115.347 211.459 124.097 Q211.459 132.824 208.38 137.43 Q205.324 142.014 199.514 142.014 Q193.704 142.014 190.625 137.43 Q187.57 132.824 187.57 124.097 Q187.57 115.347 190.625 110.764 Q193.704 106.157 199.514 106.157 Z" fill="#000000" fill-rule="evenodd" fill-opacity="1" /><path clip-path="url(#clip740)" d="M21.7677 955.576 L39.6235 955.576 L39.6235 947.492 Q39.6235 943.004 37.3 940.553 Q34.9765 938.102 30.6797 938.102 Q26.4147 938.102 24.0912 940.553 Q21.7677 943.004 21.7677 947.492 L21.7677 955.576 M16.4842 962.006 L16.4842 947.492 Q16.4842 939.503 20.1126 935.429 Q23.7092 931.323 30.6797 931.323 Q37.7138 931.323 41.3104 935.429 Q44.907 939.503 44.907 947.492 L44.907 955.576 L64.0042 955.576 L64.0042 962.006 L16.4842 962.006 Z" fill="#000000" fill-rule="evenodd" fill-opacity="1" /><path clip-path="url(#clip740)" d="M32.4621 911.462 Q32.4621 916.172 36.1542 918.91 Q39.8145 921.647 46.212 921.647 Q52.6095 921.647 56.3017 918.942 Q59.9619 916.204 59.9619 911.462 Q59.9619 906.783 56.2698 904.046 Q52.5777 901.309 46.212 901.309 Q39.8781 901.309 36.186 904.046 Q32.4621 906.783 32.4621 911.462 M27.4968 911.462 Q27.4968 903.823 32.4621 899.462 Q37.4273 895.102 46.212 895.102 Q54.9649 895.102 59.9619 899.462 Q64.9272 903.823 64.9272 911.462 Q64.9272 919.132 59.9619 923.493 Q54.9649 927.822 46.212 927.822 Q37.4273 927.822 32.4621 923.493 Q27.4968 919.132 27.4968 911.462 Z" fill="#000000" fill-rule="evenodd" fill-opacity="1" /><path clip-path="url(#clip740)" d="M28.3562 888.8 L28.3562 882.943 L56.1743 875.623 L28.3562 868.334 L28.3562 861.427 L56.1743 854.107 L28.3562 846.818 L28.3562 840.962 L64.0042 850.287 L64.0042 857.194 L34.7856 864.865 L64.0042 872.567 L64.0042 879.474 L28.3562 888.8 Z" fill="#000000" fill-rule="evenodd" fill-opacity="1" /><path clip-path="url(#clip740)" d="M44.7161 801.59 L47.5806 801.59 L47.5806 828.517 Q53.6281 828.135 56.8109 824.888 Q59.9619 821.61 59.9619 815.785 Q59.9619 812.411 59.1344 809.26 Q58.3069 806.078 56.6518 802.958 L62.1899 802.958 Q63.5267 806.109 64.227 809.42 Q64.9272 812.73 64.9272 816.135 Q64.9272 824.665 59.9619 829.662 Q54.9967 834.628 46.5303 834.628 Q37.7774 834.628 32.6531 829.917 Q27.4968 825.175 27.4968 817.154 Q27.4968 809.961 32.1438 805.791 Q36.7589 801.59 44.7161 801.59 M42.9973 807.446 Q38.1912 807.51 35.3266 810.152 Q32.4621 812.762 32.4621 817.09 Q32.4621 821.992 35.2312 824.952 Q38.0002 827.88 43.0292 828.326 L42.9973 807.446 Z" fill="#000000" fill-rule="evenodd" fill-opacity="1" /><path clip-path="url(#clip740)" d="M33.8307 771.321 Q33.2578 772.307 33.0032 773.485 Q32.7167 774.631 32.7167 776.031 Q32.7167 780.997 35.9632 783.67 Q39.1779 786.312 45.2253 786.312 L64.0042 786.312 L64.0042 792.2 L28.3562 792.2 L28.3562 786.312 L33.8944 786.312 Q30.6479 784.466 29.0883 781.506 Q27.4968 778.546 27.4968 774.313 Q27.4968 773.708 27.5923 772.976 Q27.656 772.244 27.8151 771.353 L33.8307 771.321 Z" fill="#000000" fill-rule="evenodd" fill-opacity="1" /><path clip-path="url(#clip740)" d="M14.5426 730.389 Q21.8632 734.654 29.0246 736.723 Q36.186 738.792 43.5384 738.792 Q50.8908 738.792 58.1159 736.723 Q65.3091 734.622 72.5979 730.389 L72.5979 735.482 Q65.1182 740.256 57.8931 742.643 Q50.668 744.999 43.5384 744.999 Q36.4406 744.999 29.2474 742.643 Q22.0542 740.288 14.5426 735.482 L14.5426 730.389 Z" fill="#000000" fill-rule="evenodd" fill-opacity="1" /><path clip-path="url(#clip740)" d="M16.4842 718.772 L16.4842 709.191 L48.8219 697.065 L16.4842 684.874 L16.4842 675.294 L64.0042 675.294 L64.0042 681.564 L22.277 681.564 L54.8694 693.818 L54.8694 700.28 L22.277 712.533 L64.0042 712.533 L64.0042 718.772 L16.4842 718.772 Z" fill="#000000" fill-rule="evenodd" fill-opacity="1" /><path clip-path="url(#clip740)" d="M16.4842 666.764 L16.4842 660.271 L56.6518 650.277 L16.4842 640.315 L16.4842 633.089 L56.6518 623.095 L16.4842 613.133 L16.4842 606.608 L64.0042 618.544 L64.0042 626.628 L22.7544 636.654 L64.0042 646.776 L64.0042 654.86 L16.4842 666.764 Z" fill="#000000" fill-rule="evenodd" fill-opacity="1" /><path clip-path="url(#clip740)" d="M14.5426 599.256 L14.5426 594.163 Q22.0542 589.389 29.2474 587.034 Q36.4406 584.646 43.5384 584.646 Q50.668 584.646 57.8931 587.034 Q65.1182 589.389 72.5979 594.163 L72.5979 599.256 Q65.3091 595.023 58.1159 592.954 Q50.8908 590.853 43.5384 590.853 Q36.186 590.853 29.0246 592.954 Q21.8632 595.023 14.5426 599.256 Z" fill="#000000" fill-rule="evenodd" fill-opacity="1" /><path clip-path="url(#clip740)" d="M1011.13 18.8205 L1011.13 41.5461 L1021.42 41.5461 Q1027.13 41.5461 1030.25 38.5889 Q1033.37 35.6318 1033.37 30.163 Q1033.37 24.7348 1030.25 21.7777 Q1027.13 18.8205 1021.42 18.8205 L1011.13 18.8205 M1002.95 12.096 L1021.42 12.096 Q1031.59 12.096 1036.77 16.714 Q1042 21.2916 1042 30.163 Q1042 39.1155 1036.77 43.6931 Q1031.59 48.2706 1021.42 48.2706 L1011.13 48.2706 L1011.13 72.576 L1002.95 72.576 L1002.95 12.096 Z" fill="#000000" fill-rule="evenodd" fill-opacity="1" /><path clip-path="url(#clip740)" d="M1067.28 32.4315 Q1061.28 32.4315 1057.8 37.1306 Q1054.31 41.7891 1054.31 49.9314 Q1054.31 58.0738 1057.76 62.7728 Q1061.24 67.4314 1067.28 67.4314 Q1073.23 67.4314 1076.71 62.7323 Q1080.2 58.0333 1080.2 49.9314 Q1080.2 41.8701 1076.71 37.1711 Q1073.23 32.4315 1067.28 32.4315 M1067.28 26.1121 Q1077 26.1121 1082.55 32.4315 Q1088.1 38.7509 1088.1 49.9314 Q1088.1 61.0714 1082.55 67.4314 Q1077 73.7508 1067.28 73.7508 Q1057.51 73.7508 1051.96 67.4314 Q1046.45 61.0714 1046.45 49.9314 Q1046.45 38.7509 1051.96 32.4315 Q1057.51 26.1121 1067.28 26.1121 Z" fill="#000000" fill-rule="evenodd" fill-opacity="1" /><path clip-path="url(#clip740)" d="M1096.12 27.2059 L1103.57 27.2059 L1112.89 62.6108 L1122.16 27.2059 L1130.96 27.2059 L1140.27 62.6108 L1149.55 27.2059 L1157 27.2059 L1145.13 72.576 L1136.34 72.576 L1126.58 35.3887 L1116.78 72.576 L1107.99 72.576 L1096.12 27.2059 Z" fill="#000000" fill-rule="evenodd" fill-opacity="1" /><path clip-path="url(#clip740)" d="M1207.11 48.0275 L1207.11 51.6733 L1172.84 51.6733 Q1173.33 59.3701 1177.46 63.421 Q1181.63 67.4314 1189.05 67.4314 Q1193.34 67.4314 1197.35 66.3781 Q1201.4 65.3249 1205.37 63.2184 L1205.37 70.267 Q1201.36 71.9684 1197.15 72.8596 Q1192.93 73.7508 1188.6 73.7508 Q1177.74 73.7508 1171.38 67.4314 Q1165.06 61.1119 1165.06 50.3365 Q1165.06 39.1965 1171.06 32.6746 Q1177.1 26.1121 1187.3 26.1121 Q1196.46 26.1121 1201.77 32.0264 Q1207.11 37.9003 1207.11 48.0275 M1199.66 45.84 Q1199.58 39.7232 1196.22 36.0774 Q1192.89 32.4315 1187.38 32.4315 Q1181.15 32.4315 1177.38 35.9558 Q1173.65 39.4801 1173.08 45.8805 L1199.66 45.84 Z" fill="#000000" fill-rule="evenodd" fill-opacity="1" /><path clip-path="url(#clip740)" d="M1245.64 34.1734 Q1244.38 33.4443 1242.88 33.1202 Q1241.42 32.7556 1239.64 32.7556 Q1233.32 32.7556 1229.92 36.8875 Q1226.56 40.9789 1226.56 48.6757 L1226.56 72.576 L1219.06 72.576 L1219.06 27.2059 L1226.56 27.2059 L1226.56 34.2544 Q1228.91 30.1225 1232.67 28.1376 Q1236.44 26.1121 1241.83 26.1121 Q1242.6 26.1121 1243.53 26.2337 Q1244.46 26.3147 1245.6 26.5172 L1245.64 34.1734 Z" fill="#000000" fill-rule="evenodd" fill-opacity="1" /><path clip-path="url(#clip740)" d="M1302.79 9.54393 L1302.79 15.7418 L1295.66 15.7418 Q1291.65 15.7418 1290.07 17.3622 Q1288.54 18.9825 1288.54 23.1955 L1288.54 27.2059 L1300.81 27.2059 L1300.81 32.9987 L1288.54 32.9987 L1288.54 72.576 L1281.04 72.576 L1281.04 32.9987 L1273.91 32.9987 L1273.91 27.2059 L1281.04 27.2059 L1281.04 24.0462 Q1281.04 16.471 1284.57 13.0277 Q1288.09 9.54393 1295.75 9.54393 L1302.79 9.54393 Z" fill="#000000" fill-rule="evenodd" fill-opacity="1" /><path clip-path="url(#clip740)" d="M1309.03 9.54393 L1316.49 9.54393 L1316.49 72.576 L1309.03 72.576 L1309.03 9.54393 Z" fill="#000000" fill-rule="evenodd" fill-opacity="1" /><path clip-path="url(#clip740)" d="M1349.66 32.4315 Q1343.67 32.4315 1340.18 37.1306 Q1336.7 41.7891 1336.7 49.9314 Q1336.7 58.0738 1340.14 62.7728 Q1343.63 67.4314 1349.66 67.4314 Q1355.62 67.4314 1359.1 62.7323 Q1362.59 58.0333 1362.59 49.9314 Q1362.59 41.8701 1359.1 37.1711 Q1355.62 32.4315 1349.66 32.4315 M1349.66 26.1121 Q1359.39 26.1121 1364.94 32.4315 Q1370.49 38.7509 1370.49 49.9314 Q1370.49 61.0714 1364.94 67.4314 Q1359.39 73.7508 1349.66 73.7508 Q1339.9 73.7508 1334.35 67.4314 Q1328.84 61.0714 1328.84 49.9314 Q1328.84 38.7509 1334.35 32.4315 Q1339.9 26.1121 1349.66 26.1121 Z" fill="#000000" fill-rule="evenodd" fill-opacity="1" /><path clip-path="url(#clip740)" d="M1378.51 27.2059 L1385.96 27.2059 L1395.28 62.6108 L1404.55 27.2059 L1413.34 27.2059 L1422.66 62.6108 L1431.94 27.2059 L1439.39 27.2059 L1427.52 72.576 L1418.73 72.576 L1408.97 35.3887 L1399.17 72.576 L1390.38 72.576 L1378.51 27.2059 Z" fill="#000000" fill-rule="evenodd" fill-opacity="1" /><polyline clip-path="url(#clip742)" style="stroke:#009af9; stroke-linecap:round; stroke-linejoin:round; stroke-width:4; stroke-opacity:1; fill:none" points="302.574,1386.4 313.576,1386.4 324.577,1386.4 335.578,1386.4 346.579,1386.4 357.58,1386.4 368.581,1386.4 379.582,1386.4 390.583,1386.4 401.585,1386.4 412.586,1354.94 423.587,1276.3 434.588,1213.38 445.589,1166.2 456.59,1181.93 467.591,1307.75 478.592,1386.4 489.594,1386.4 500.595,1386.4 511.596,1386.4 522.597,1386.4 533.598,1386.4 544.599,1386.4 555.6,1386.4 566.602,1386.4 577.603,1386.4 588.604,1386.4 599.605,1386.4 610.606,1386.4 621.607,1386.4 632.608,1386.4 643.609,1386.4 654.611,1307.75 665.612,1213.38 676.613,977.456 687.614,945.999 698.615,930.27 709.616,1024.64 720.617,1244.84 731.619,1370.67 742.62,1386.4 753.621,1386.4 764.622,1386.4 775.623,1386.4 786.624,1386.4 797.625,1386.4 808.626,1386.4 819.628,1386.4 830.629,1386.4 841.63,1386.4 852.631,1386.4 863.632,1386.4 874.633,1386.4 885.634,1386.4 896.635,1386.4 907.637,1386.4 918.638,1386.4 929.639,1339.21 940.64,1323.48 951.641,1323.48 962.642,1339.21 973.643,1386.4 984.645,1386.4 995.646,1386.4 1006.65,1386.4 1017.65,1386.4 1028.65,1386.4 1039.65,1386.4 1050.65,1386.4 1061.65,1386.4 1072.65,1386.4 1083.65,1386.4 1094.66,1386.4 1105.66,1386.4 1116.66,1386.4 1127.66,1386.4 1138.66,1386.4 1149.66,1386.4 1160.66,1386.4 1171.66,1386.4 1182.66,1323.48 1193.67,1260.57 1204.67,1244.84 1215.67,1260.57 1226.67,1323.48 1237.67,1354.94 1248.67,1386.4 1259.67,1386.4 1270.67,1386.4 1281.68,1386.4 1292.68,1386.4 1303.68,1386.4 1314.68,1386.4 1325.68,1386.4 1336.68,1386.4 1347.68,1386.4 1358.68,1386.4 1369.68,1386.4 1380.69,1386.4 1391.69,1386.4 1402.69,1386.4 1413.69,1386.4 1424.69,1323.48 1435.69,1197.65 1446.69,993.184 1457.69,835.899 1468.69,725.8 1479.7,867.356 1490.7,1119.01 1501.7,1354.94 1512.7,1386.4 1523.7,1386.4 1534.7,1386.4 1545.7,1386.4 1556.7,1386.4 1567.7,1386.4 1578.71,1386.4 1589.71,1386.4 1600.71,1386.4 1611.71,1386.4 1622.71,1386.4 1633.71,1386.4 1644.71,1386.4 1655.71,1386.4 1666.71,1386.4 1677.72,1354.94 1688.72,1276.3 1699.72,1181.93 1710.72,1087.55 1721.72,1024.64 1732.72,1166.2 1743.72,1292.02 1754.72,1370.67 1765.72,1386.4 1776.73,1386.4 1787.73,1386.4 1798.73,1386.4 1809.73,1386.4 1820.73,1386.4 1831.73,1386.4 1842.73,1386.4 1853.73,1386.4 1864.74,1386.4 1875.74,1386.4 1886.74,1386.4 1897.74,1386.4 1908.74,1386.4 1919.74,1386.4 1930.74,1339.21 1941.74,1323.48 1952.74,1323.48 1963.75,1323.48 1974.75,1276.3 1985.75,1323.48 1996.75,1323.48 2007.75,1386.4 2018.75,1386.4 2029.75,1386.4 2040.75,1386.4 2051.75,1386.4 2062.76,1386.4 2073.76,1386.4 2084.76,1386.4 2095.76,1386.4 2106.76,1386.4 2117.76,1386.4 2128.76,1386.4 2139.76,1386.4 "/>
<polyline clip-path="url(#clip742)" style="stroke:#e26f46; stroke-linecap:round; stroke-linejoin:round; stroke-width:4; stroke-opacity:1; fill:none" points="302.574,737.832 313.576,715.568 324.577,675.154 335.578,633.288 346.579,607.636 357.58,559.478 368.581,559.236 379.582,570.61 390.583,609.33 401.585,787.201 412.586,706.13 423.587,661.36 434.588,686.77 445.589,681.688 456.59,618.042 467.591,590.212 478.592,555.122 489.594,536.971 500.595,534.067 511.596,534.309 522.597,532.131 533.598,520.273 544.599,535.277 555.6,554.396 566.602,1160.61 577.603,1126.24 588.604,1175.37 599.605,1183.84 610.606,1196.18 621.607,1207.56 632.608,1203.44 643.609,1202.96 654.611,1195.7 665.612,1199.57 676.613,1231.51 687.614,1223.29 698.615,1213.85 709.616,1234.18 720.617,1206.59 731.619,1156.49 742.62,1187.47 753.621,1211.43 764.622,1183.11 775.623,1188.68 786.624,1202.72 797.625,1231.03 808.626,1257.65 819.628,1248.45 830.629,672.976 841.63,620.946 852.631,584.404 863.632,564.802 874.633,539.634 885.634,550.524 896.635,589.002 907.637,609.088 918.638,614.896 929.639,619.01 940.64,611.992 951.641,609.33 962.642,630.626 973.643,649.986 984.645,656.762 995.646,683.382 1006.65,702.742 1017.65,746.061 1028.65,726.7 1039.65,716.052 1050.65,804.625 1061.65,767.115 1072.65,770.261 1083.65,824.227 1094.66,1216.27 1105.66,1180.69 1116.66,1089.7 1127.66,1049.53 1138.66,1048.56 1149.66,1076.39 1160.66,1050.98 1171.66,1051.95 1182.66,972.574 1193.67,883.033 1204.67,898.521 1215.67,761.549 1226.67,607.878 1237.67,545.442 1248.67,510.593 1259.67,468.001 1270.67,474.535 1281.68,478.407 1292.68,474.051 1303.68,457.111 1314.68,466.065 1325.68,475.987 1336.68,502.123 1347.68,468.969 1358.68,635.224 1369.68,587.55 1380.69,634.74 1391.69,641.516 1402.69,750.901 1413.69,731.782 1424.69,735.654 1435.69,814.063 1446.69,717.262 1457.69,671.766 1468.69,638.128 1479.7,632.32 1490.7,660.634 1501.7,706.614 1512.7,712.422 1523.7,736.138 1534.7,782.361 1545.7,832.939 1556.7,881.097 1567.7,944.985 1578.71,933.369 1589.71,993.87 1600.71,1063.57 1611.71,1123.58 1622.71,1147.54 1633.71,1105.67 1644.71,1065.02 1655.71,1027.27 1666.71,1036.46 1677.72,952.004 1688.72,911.347 1699.72,819.629 1710.72,801.721 1721.72,770.987 1732.72,703.226 1743.72,664.022 1754.72,692.336 1765.72,676.848 1776.73,741.22 1787.73,693.546 1798.73,768.083 1809.73,841.167 1820.73,857.381 1831.73,859.317 1842.73,874.805 1853.73,844.797 1864.74,847.701 1875.74,886.663 1886.74,614.17 1897.74,508.899 1908.74,474.777 1919.74,477.197 1930.74,476.955 1941.74,480.585 1952.74,469.695 1963.75,467.759 1974.75,472.841 1985.75,469.211 1996.75,464.129 2007.75,463.403 2018.75,460.983 2029.75,458.563 2040.75,458.079 2051.75,457.353 2062.76,482.037 2073.76,489.297 2084.76,509.141 2095.76,501.397 2106.76,545.926 2117.76,643.936 2128.76,871.417 2139.76,955.876 "/>
<polyline clip-path="url(#clip742)" style="stroke:#3da44d; stroke-linecap:round; stroke-linejoin:round; stroke-width:4; stroke-opacity:1; fill:none" points="302.574,1296.13 313.576,1296.07 324.577,1295.11 335.578,1292.89 346.579,1293.06 357.58,1293.2 368.581,1293.32 379.582,1293.03 390.583,1295.3 401.585,1297.95 412.586,1304.91 423.587,1303.18 434.588,1299.4 445.589,1293.63 456.59,1294.31 467.591,1294.25 478.592,1294.22 489.594,1294.57 500.595,1294.03 511.596,1297.61 522.597,1298.57 533.598,1297.55 544.599,1296.78 555.6,1296.13 566.602,1328.79 577.603,1328.27 588.604,1337.54 599.605,1339.95 610.606,1347.29 621.607,1343.39 632.608,1338.19 643.609,1338.31 654.611,1333.96 665.612,1335.92 676.613,1335.18 687.614,1345.98 698.615,1346.21 709.616,1354.48 720.617,1358.09 731.619,1357.46 742.62,1364.85 753.621,1362.52 764.622,1361.36 775.623,1354.22 786.624,1354.73 797.625,1362.95 808.626,1365.19 819.628,1363.86 830.629,1293.74 841.63,1292.66 852.631,1291.92 863.632,1292.18 874.633,1292.09 885.634,1294.31 896.635,1294.71 907.637,1293.86 918.638,1293.57 929.639,1294.82 940.64,1295.42 951.641,1298.12 962.642,1297.46 973.643,1298.2 984.645,1299.8 995.646,1304.14 1006.65,1305.31 1017.65,1306.53 1028.65,1308.41 1039.65,1311.28 1050.65,1309.63 1061.65,1311.93 1072.65,1316.71 1083.65,1322.31 1094.66,1368.01 1105.66,1366.5 1116.66,1369.97 1127.66,1370.02 1138.66,1362.38 1149.66,1372.58 1160.66,1370.42 1171.66,1356.38 1182.66,1332.28 1193.67,1308.78 1204.67,1301.1 1215.67,1294.76 1226.67,1292.18 1237.67,1291.75 1248.67,1290.93 1259.67,1290.7 1270.67,1290.93 1281.68,1291.13 1292.68,1291.52 1303.68,1291.3 1314.68,1291.58 1325.68,1291.7 1336.68,1294.82 1347.68,1295.39 1358.68,1294 1369.68,1293.37 1380.69,1294.03 1391.69,1294.11 1402.69,1292.89 1413.69,1293.14 1424.69,1293.03 1435.69,1294 1446.69,1293.83 1457.69,1293.32 1468.69,1293.26 1479.7,1293 1490.7,1293.03 1501.7,1293.14 1512.7,1294.37 1523.7,1295.59 1534.7,1296.02 1545.7,1295.28 1556.7,1299.8 1567.7,1307.13 1578.71,1313.66 1589.71,1326.51 1600.71,1339.44 1611.71,1354.36 1622.71,1326.88 1633.71,1332.37 1644.71,1323.16 1655.71,1316.9 1666.71,1317.44 1677.72,1307.41 1688.72,1316.76 1699.72,1317.76 1710.72,1313.1 1721.72,1312.7 1732.72,1312.39 1743.72,1300.36 1754.72,1294.4 1765.72,1296.07 1776.73,1296.98 1787.73,1307.5 1798.73,1311.5 1809.73,1312.98 1820.73,1315.06 1831.73,1318.01 1842.73,1317.67 1853.73,1315.26 1864.74,1314.92 1875.74,1319.26 1886.74,1303.58 1897.74,1302.86 1908.74,1305.48 1919.74,1303.01 1930.74,1303.77 1941.74,1303.04 1952.74,1302.75 1963.75,1302.84 1974.75,1302.64 1985.75,1303.43 1996.75,1303.4 2007.75,1302.92 2018.75,1302.89 2029.75,1303.04 2040.75,1302.89 2051.75,1302.84 2062.76,1302.95 2073.76,1303.38 2084.76,1303.35 2095.76,1303.18 2106.76,1305.74 2117.76,1303.92 2128.76,1304.6 2139.76,1304.37 "/>
<polyline clip-path="url(#clip742)" style="stroke:#c271d2; stroke-linecap:round; stroke-linejoin:round; stroke-width:4; stroke-opacity:1; fill:none" points="302.574,1193.44 313.576,1386.4 324.577,1386.4 335.578,1386.4 346.579,1386.4 357.58,1386.4 368.581,1386.4 379.582,1386.4 390.583,1386.4 401.585,1386.4 412.586,1386.4 423.587,1386.4 434.588,1386.4 445.589,1386.4 456.59,1386.4 467.591,1386.4 478.592,1386.4 489.594,1386.4 500.595,1386.4 511.596,1386.4 522.597,1386.4 533.598,1386.4 544.599,1386.4 555.6,1386.4 566.602,1386.4 577.603,1386.4 588.604,1386.4 599.605,1386.4 610.606,1386.4 621.607,1386.4 632.608,1386.4 643.609,1386.4 654.611,1076.88 665.612,988.342 676.613,783.621 687.614,754.736 698.615,729.797 709.616,1386.38 720.617,1386.4 731.619,1386.4 742.62,1178.19 753.621,1199.82 764.622,1170.34 775.623,1386.4 786.624,1386.4 797.625,1386.4 808.626,1386.4 819.628,1386.4 830.629,1386.4 841.63,1386.4 852.631,1386.4 863.632,1386.4 874.633,1386.4 885.634,1386.4 896.635,1386.4 907.637,1386.4 918.638,1386.4 929.639,1386.4 940.64,470.362 951.641,470.4 962.642,1040.38 973.643,1386.4 984.645,1386.4 995.646,613.392 1006.65,633.917 1017.65,678.457 1028.65,1194.59 1039.65,1386.4 1050.65,1386.4 1061.65,1386.4 1072.65,1386.4 1083.65,1386.4 1094.66,1386.4 1105.66,1386.4 1116.66,1386.4 1127.66,1386.4 1138.66,1386.4 1149.66,1386.4 1160.66,1047.27 1171.66,1034.2 1182.66,867.807 1193.67,691.848 1204.67,1386.4 1215.67,1386.4 1226.67,1386.4 1237.67,1386.4 1248.67,1386.4 1259.67,384.567 1270.67,1386.4 1281.68,1386.4 1292.68,1386.4 1303.68,1386.4 1314.68,1386.4 1325.68,1386.4 1336.68,1386.4 1347.68,1386.4 1358.68,1386.4 1369.68,1386.4 1380.69,1386.4 1391.69,1386.4 1402.69,1386.4 1413.69,1386.4 1424.69,1386.4 1435.69,1078.8 1446.69,1386.4 1457.69,1254.33 1468.69,1110.53 1479.7,1246.03 1490.7,1386.4 1501.7,1386.4 1512.7,632.655 1523.7,657.593 1534.7,1386.4 1545.7,1386.4 1556.7,1386.4 1567.7,1386.4 1578.71,1386.4 1589.71,1386.4 1600.71,1386.4 1611.71,1386.4 1622.71,1386.4 1633.71,1386.4 1644.71,1386.4 1655.71,1386.4 1666.71,1386.4 1677.72,1386.4 1688.72,743.877 1699.72,558.782 1710.72,1386.4 1721.72,1386.4 1732.72,1386.4 1743.72,1386.4 1754.72,1386.4 1765.72,1386.4 1776.73,1386.4 1787.73,1386.4 1798.73,1386.4 1809.73,1386.4 1820.73,1386.4 1831.73,1386.4 1842.73,1386.4 1853.73,1386.4 1864.74,1386.4 1875.74,1386.4 1886.74,1386.4 1897.74,1386.4 1908.74,1386.4 1919.74,1386.4 1930.74,1386.4 1941.74,1386.4 1952.74,1386.4 1963.75,1386.4 1974.75,1386.4 1985.75,1386.4 1996.75,1386.4 2007.75,1386.4 2018.75,389.742 2029.75,1386.4 2040.75,1386.4 2051.75,1386.4 2062.76,1386.4 2073.76,1386.4 2084.76,1386.4 2095.76,1386.4 2106.76,1386.4 2117.76,1386.4 2128.76,1386.4 2139.76,1386.4 "/>
<polyline clip-path="url(#clip742)" style="stroke:#ac8d18; stroke-linecap:round; stroke-linejoin:round; stroke-width:4; stroke-opacity:1; fill:none" points="302.574,840.522 313.576,625.245 324.577,583.864 335.578,539.781 346.579,514.299 357.58,466.283 368.581,466.155 379.582,477.245 390.583,518.239 401.585,698.753 412.586,593.189 423.587,468.043 434.588,426.759 445.589,368.722 456.59,321.486 467.591,419.427 478.592,462.95 489.594,445.141 500.595,441.697 511.596,445.521 522.597,444.309 533.598,431.428 544.599,445.664 555.6,464.129 566.602,1103 577.603,1068.12 588.604,1126.51 599.605,1137.4 610.606,1157.07 621.607,1164.55 632.608,1155.24 643.609,1154.87 654.611,1374.13 665.612,1374.13 676.613,1374.13 687.614,1374.13 698.615,1374.13 709.616,840.522 720.617,1036.72 731.619,1111.83 742.62,1374.13 753.621,1374.13 764.622,1374.13 775.623,1156.51 786.624,1171.06 797.625,1207.58 808.626,1236.45 819.628,1225.92 830.629,580.322 841.63,527.212 852.631,489.93 863.632,470.584 874.633,445.331 885.634,458.438 896.635,497.314 907.637,516.547 918.638,522.071 929.639,480.25 940.64,1374.13 951.641,1374.13 962.642,840.522 973.643,561.794 984.645,570.162 995.646,1374.13 1006.65,1374.13 1017.65,1374.13 1028.65,840.522 1039.65,640.934 1050.65,727.858 1061.65,692.65 1072.65,700.571 1083.65,760.136 1094.66,1197.88 1105.66,1160.8 1116.66,1073.27 1127.66,1033.16 1138.66,1024.55 1149.66,1062.58 1160.66,1374.13 1171.66,1374.13 1182.66,1374.13 1193.67,1374.13 1204.67,671.672 1215.67,544.09 1226.67,450.747 1237.67,419.341 1248.67,415.125 1259.67,1374.13 1270.67,379.067 1281.68,383.138 1292.68,379.18 1303.68,362.013 1314.68,371.251 1325.68,381.287 1336.68,410.549 1347.68,377.963 1358.68,542.825 1369.68,494.526 1380.69,542.37 1391.69,549.231 1402.69,657.394 1413.69,638.531 1424.69,579.376 1435.69,840.522 1446.69,231.482 1457.69,160.256 1468.69,160.256 1479.7,160.256 1490.7,299.885 1501.7,581.906 1512.7,1374.13 1523.7,1374.13 1534.7,691.98 1545.7,741.819 1556.7,794.497 1567.7,865.718 1578.71,860.639 1589.71,933.986 1600.71,1016.61 1611.71,1091.55 1622.71,1088.03 1633.71,1051.64 1644.71,1001.78 1655.71,957.775 1666.71,967.511 1677.72,841.563 1688.72,1374.13 1699.72,1374.13 1710.72,429.581 1721.72,335.535 1732.72,409.018 1743.72,483.619 1754.72,584.607 1765.72,586.524 1776.73,651.806 1787.73,614.648 1798.73,693.192 1809.73,767.754 1820.73,786.043 1831.73,790.935 1842.73,806.082 1853.73,773.658 1864.74,776.221 1875.74,819.531 1886.74,531.349 1897.74,425.368 1908.74,393.861 1919.74,393.808 1930.74,347.148 1941.74,334.311 1952.74,323.137 1963.75,321.286 1974.75,278.984 1985.75,323.335 1996.75,318.224 2007.75,379.929 2018.75,1374.13 2029.75,375.203 2040.75,374.577 2051.75,373.794 2062.76,398.592 2073.76,406.278 2084.76,426.094 2095.76,418.179 2106.76,465.265 2117.76,561.457 2128.76,789.62 2139.76,873.851 "/>
<path clip-path="url(#clip740)" d="M312.373 283.436 L641.854 283.436 L641.854 166.796 L312.373 166.796  Z" fill="#ffffff" fill-rule="evenodd" fill-opacity="1"/>
<polyline clip-path="url(#clip740)" style="stroke:#000000; stroke-linecap:round; stroke-linejoin:round; stroke-width:4; stroke-opacity:1; fill:none" points="312.373,283.436 641.854,283.436 641.854,166.796 312.373,166.796 312.373,283.436 "/>
<polyline clip-path="url(#clip740)" style="stroke:#009af9; stroke-linecap:round; stroke-linejoin:round; stroke-width:1.5; stroke-opacity:1; fill:none" points="334.011,186.236 463.839,186.236 "/>
<path clip-path="url(#clip740)" d="M493.819 180.181 L493.819 181.891 Q492.82 181.414 491.935 181.179 Q491.05 180.945 490.225 180.945 Q488.793 180.945 488.011 181.5 Q487.239 182.056 487.239 183.08 Q487.239 183.94 487.751 184.382 Q488.272 184.816 489.713 185.086 L490.772 185.303 Q492.734 185.676 493.662 186.622 Q494.6 187.559 494.6 189.139 Q494.6 191.023 493.333 191.995 Q492.074 192.967 489.635 192.967 Q488.715 192.967 487.673 192.759 Q486.64 192.551 485.529 192.143 L485.529 190.337 Q486.597 190.936 487.621 191.24 Q488.645 191.544 489.635 191.544 Q491.136 191.544 491.952 190.954 Q492.768 190.363 492.768 189.27 Q492.768 188.315 492.178 187.777 Q491.597 187.238 490.26 186.969 L489.192 186.761 Q487.23 186.37 486.353 185.537 Q485.477 184.704 485.477 183.219 Q485.477 181.5 486.683 180.511 Q487.899 179.521 490.025 179.521 Q490.937 179.521 491.883 179.686 Q492.829 179.851 493.819 180.181 Z" fill="#000000" fill-rule="evenodd" fill-opacity="1" /><path clip-path="url(#clip740)" d="M501.032 184.113 Q499.748 184.113 499.001 185.12 Q498.254 186.119 498.254 187.863 Q498.254 189.608 498.992 190.615 Q499.739 191.613 501.032 191.613 Q502.308 191.613 503.055 190.606 Q503.801 189.599 503.801 187.863 Q503.801 186.136 503.055 185.129 Q502.308 184.113 501.032 184.113 M501.032 182.759 Q503.116 182.759 504.305 184.113 Q505.494 185.467 505.494 187.863 Q505.494 190.25 504.305 191.613 Q503.116 192.967 501.032 192.967 Q498.94 192.967 497.751 191.613 Q496.57 190.25 496.57 187.863 Q496.57 185.467 497.751 184.113 Q498.94 182.759 501.032 182.759 Z" fill="#000000" fill-rule="evenodd" fill-opacity="1" /><path clip-path="url(#clip740)" d="M508.142 179.209 L509.739 179.209 L509.739 192.716 L508.142 192.716 L508.142 179.209 Z" fill="#000000" fill-rule="evenodd" fill-opacity="1" /><path clip-path="url(#clip740)" d="M517.499 187.829 Q515.563 187.829 514.817 188.271 Q514.07 188.714 514.07 189.782 Q514.07 190.632 514.626 191.136 Q515.19 191.631 516.154 191.631 Q517.482 191.631 518.28 190.693 Q519.088 189.747 519.088 188.184 L519.088 187.829 L517.499 187.829 M520.685 187.169 L520.685 192.716 L519.088 192.716 L519.088 191.24 Q518.541 192.125 517.725 192.551 Q516.909 192.967 515.728 192.967 Q514.235 192.967 513.35 192.134 Q512.473 191.292 512.473 189.886 Q512.473 188.245 513.567 187.412 Q514.669 186.579 516.848 186.579 L519.088 186.579 L519.088 186.422 Q519.088 185.32 518.359 184.721 Q517.638 184.113 516.327 184.113 Q515.494 184.113 514.704 184.313 Q513.914 184.513 513.185 184.912 L513.185 183.436 Q514.062 183.098 514.886 182.933 Q515.711 182.759 516.492 182.759 Q518.602 182.759 519.643 183.853 Q520.685 184.947 520.685 187.169 Z" fill="#000000" fill-rule="evenodd" fill-opacity="1" /><path clip-path="url(#clip740)" d="M529.608 184.487 Q529.339 184.33 529.018 184.261 Q528.706 184.183 528.324 184.183 Q526.97 184.183 526.24 185.068 Q525.52 185.945 525.52 187.594 L525.52 192.716 L523.914 192.716 L523.914 182.994 L525.52 182.994 L525.52 184.504 Q526.023 183.619 526.831 183.193 Q527.638 182.759 528.792 182.759 Q528.957 182.759 529.157 182.785 Q529.357 182.803 529.6 182.846 L529.608 184.487 Z" fill="#000000" fill-rule="evenodd" fill-opacity="1" /><polyline clip-path="url(#clip740)" style="stroke:#e26f46; stroke-linecap:round; stroke-linejoin:round; stroke-width:1.5; stroke-opacity:1; fill:none" points="334.011,205.676 463.839,205.676 "/>
<path clip-path="url(#clip740)" d="M485.477 199.196 L487.248 199.196 L489.973 210.151 L492.69 199.196 L494.661 199.196 L497.386 210.151 L500.103 199.196 L501.883 199.196 L498.628 212.156 L496.423 212.156 L493.689 200.906 L490.928 212.156 L488.723 212.156 L485.477 199.196 Z" fill="#000000" fill-rule="evenodd" fill-opacity="1" /><path clip-path="url(#clip740)" d="M503.749 202.434 L505.346 202.434 L505.346 212.156 L503.749 212.156 L503.749 202.434 M503.749 198.649 L505.346 198.649 L505.346 200.671 L503.749 200.671 L503.749 198.649 Z" fill="#000000" fill-rule="evenodd" fill-opacity="1" /><path clip-path="url(#clip740)" d="M516.77 206.288 L516.77 212.156 L515.173 212.156 L515.173 206.34 Q515.173 204.96 514.635 204.274 Q514.096 203.588 513.02 203.588 Q511.727 203.588 510.98 204.413 Q510.234 205.237 510.234 206.661 L510.234 212.156 L508.628 212.156 L508.628 202.434 L510.234 202.434 L510.234 203.944 Q510.806 203.067 511.579 202.633 Q512.36 202.199 513.376 202.199 Q515.051 202.199 515.911 203.241 Q516.77 204.274 516.77 206.288 Z" fill="#000000" fill-rule="evenodd" fill-opacity="1" /><path clip-path="url(#clip740)" d="M526.353 203.909 L526.353 198.649 L527.95 198.649 L527.95 212.156 L526.353 212.156 L526.353 210.697 Q525.85 211.565 525.077 211.991 Q524.313 212.407 523.237 212.407 Q521.475 212.407 520.364 211.001 Q519.261 209.595 519.261 207.303 Q519.261 205.012 520.364 203.605 Q521.475 202.199 523.237 202.199 Q524.313 202.199 525.077 202.625 Q525.85 203.041 526.353 203.909 M520.911 207.303 Q520.911 209.065 521.631 210.072 Q522.36 211.071 523.628 211.071 Q524.895 211.071 525.624 210.072 Q526.353 209.065 526.353 207.303 Q526.353 205.541 525.624 204.543 Q524.895 203.536 523.628 203.536 Q522.36 203.536 521.631 204.543 Q520.911 205.541 520.911 207.303 Z" fill="#000000" fill-rule="evenodd" fill-opacity="1" /><path clip-path="url(#clip740)" d="M540.728 198.666 Q539.565 200.663 539.001 202.616 Q538.437 204.569 538.437 206.574 Q538.437 208.579 539.001 210.55 Q539.574 212.512 540.728 214.499 L539.339 214.499 Q538.037 212.46 537.386 210.489 Q536.744 208.519 536.744 206.574 Q536.744 204.638 537.386 202.677 Q538.029 200.715 539.339 198.666 L540.728 198.666 Z" fill="#000000" fill-rule="evenodd" fill-opacity="1" /><path clip-path="url(#clip740)" d="M547.594 203.553 Q546.31 203.553 545.563 204.56 Q544.817 205.559 544.817 207.303 Q544.817 209.048 545.555 210.055 Q546.301 211.053 547.594 211.053 Q548.871 211.053 549.617 210.046 Q550.364 209.039 550.364 207.303 Q550.364 205.576 549.617 204.569 Q548.871 203.553 547.594 203.553 M547.594 202.199 Q549.678 202.199 550.867 203.553 Q552.056 204.907 552.056 207.303 Q552.056 209.69 550.867 211.053 Q549.678 212.407 547.594 212.407 Q545.502 212.407 544.313 211.053 Q543.133 209.69 543.133 207.303 Q543.133 204.907 544.313 203.553 Q545.502 202.199 547.594 202.199 Z" fill="#000000" fill-rule="evenodd" fill-opacity="1" /><path clip-path="url(#clip740)" d="M562.785 206.288 L562.785 212.156 L561.188 212.156 L561.188 206.34 Q561.188 204.96 560.65 204.274 Q560.112 203.588 559.035 203.588 Q557.742 203.588 556.995 204.413 Q556.249 205.237 556.249 206.661 L556.249 212.156 L554.643 212.156 L554.643 202.434 L556.249 202.434 L556.249 203.944 Q556.822 203.067 557.594 202.633 Q558.376 202.199 559.391 202.199 Q561.067 202.199 561.926 203.241 Q562.785 204.274 562.785 206.288 Z" fill="#000000" fill-rule="evenodd" fill-opacity="1" /><path clip-path="url(#clip740)" d="M572.169 202.72 L572.169 204.23 Q571.492 203.883 570.763 203.71 Q570.034 203.536 569.252 203.536 Q568.063 203.536 567.464 203.901 Q566.874 204.265 566.874 204.994 Q566.874 205.55 567.299 205.871 Q567.725 206.184 569.009 206.47 L569.556 206.592 Q571.258 206.956 571.969 207.624 Q572.69 208.284 572.69 209.473 Q572.69 210.828 571.613 211.618 Q570.546 212.407 568.671 212.407 Q567.89 212.407 567.039 212.251 Q566.197 212.104 565.259 211.8 L565.259 210.151 Q566.145 210.611 567.004 210.845 Q567.863 211.071 568.705 211.071 Q569.834 211.071 570.442 210.689 Q571.049 210.298 571.049 209.595 Q571.049 208.944 570.607 208.597 Q570.172 208.249 568.688 207.928 L568.133 207.798 Q566.648 207.486 565.988 206.843 Q565.329 206.192 565.329 205.064 Q565.329 203.692 566.301 202.946 Q567.273 202.199 569.061 202.199 Q569.947 202.199 570.728 202.329 Q571.509 202.46 572.169 202.72 Z" fill="#000000" fill-rule="evenodd" fill-opacity="1" /><path clip-path="url(#clip740)" d="M583.315 206.288 L583.315 212.156 L581.718 212.156 L581.718 206.34 Q581.718 204.96 581.179 204.274 Q580.641 203.588 579.565 203.588 Q578.271 203.588 577.525 204.413 Q576.778 205.237 576.778 206.661 L576.778 212.156 L575.172 212.156 L575.172 198.649 L576.778 198.649 L576.778 203.944 Q577.351 203.067 578.124 202.633 Q578.905 202.199 579.921 202.199 Q581.596 202.199 582.455 203.241 Q583.315 204.274 583.315 206.288 Z" fill="#000000" fill-rule="evenodd" fill-opacity="1" /><path clip-path="url(#clip740)" d="M590.268 203.553 Q588.983 203.553 588.237 204.56 Q587.49 205.559 587.49 207.303 Q587.49 209.048 588.228 210.055 Q588.974 211.053 590.268 211.053 Q591.544 211.053 592.29 210.046 Q593.037 209.039 593.037 207.303 Q593.037 205.576 592.29 204.569 Q591.544 203.553 590.268 203.553 M590.268 202.199 Q592.351 202.199 593.54 203.553 Q594.73 204.907 594.73 207.303 Q594.73 209.69 593.54 211.053 Q592.351 212.407 590.268 212.407 Q588.176 212.407 586.987 211.053 Q585.806 209.69 585.806 207.303 Q585.806 204.907 586.987 203.553 Q588.176 202.199 590.268 202.199 Z" fill="#000000" fill-rule="evenodd" fill-opacity="1" /><path clip-path="url(#clip740)" d="M603.011 203.927 Q602.742 203.77 602.421 203.701 Q602.108 203.623 601.726 203.623 Q600.372 203.623 599.643 204.508 Q598.922 205.385 598.922 207.034 L598.922 212.156 L597.316 212.156 L597.316 202.434 L598.922 202.434 L598.922 203.944 Q599.426 203.059 600.233 202.633 Q601.04 202.199 602.195 202.199 Q602.36 202.199 602.559 202.225 Q602.759 202.243 603.002 202.286 L603.011 203.927 Z" fill="#000000" fill-rule="evenodd" fill-opacity="1" /><path clip-path="url(#clip740)" d="M612.611 206.895 L612.611 207.677 L605.268 207.677 Q605.372 209.326 606.257 210.194 Q607.151 211.053 608.74 211.053 Q609.66 211.053 610.519 210.828 Q611.388 210.602 612.238 210.151 L612.238 211.661 Q611.379 212.026 610.476 212.216 Q609.573 212.407 608.644 212.407 Q606.318 212.407 604.955 211.053 Q603.601 209.699 603.601 207.39 Q603.601 205.003 604.886 203.605 Q606.179 202.199 608.367 202.199 Q610.329 202.199 611.466 203.467 Q612.611 204.725 612.611 206.895 M611.014 206.427 Q610.997 205.116 610.276 204.335 Q609.565 203.553 608.384 203.553 Q607.047 203.553 606.24 204.309 Q605.441 205.064 605.32 206.435 L611.014 206.427 Z" fill="#000000" fill-rule="evenodd" fill-opacity="1" /><path clip-path="url(#clip740)" d="M614.981 198.666 L616.37 198.666 Q617.672 200.715 618.315 202.677 Q618.966 204.638 618.966 206.574 Q618.966 208.519 618.315 210.489 Q617.672 212.46 616.37 214.499 L614.981 214.499 Q616.136 212.512 616.7 210.55 Q617.273 208.579 617.273 206.574 Q617.273 204.569 616.7 202.616 Q616.136 200.663 614.981 198.666 Z" fill="#000000" fill-rule="evenodd" fill-opacity="1" /><polyline clip-path="url(#clip740)" style="stroke:#3da44d; stroke-linecap:round; stroke-linejoin:round; stroke-width:1.5; stroke-opacity:1; fill:none" points="334.011,225.116 463.839,225.116 "/>
<path clip-path="url(#clip740)" d="M485.477 218.636 L487.248 218.636 L489.973 229.591 L492.69 218.636 L494.661 218.636 L497.386 229.591 L500.103 218.636 L501.883 218.636 L498.628 231.596 L496.423 231.596 L493.689 220.346 L490.928 231.596 L488.723 231.596 L485.477 218.636 Z" fill="#000000" fill-rule="evenodd" fill-opacity="1" /><path clip-path="url(#clip740)" d="M503.749 221.874 L505.346 221.874 L505.346 231.596 L503.749 231.596 L503.749 221.874 M503.749 218.089 L505.346 218.089 L505.346 220.111 L503.749 220.111 L503.749 218.089 Z" fill="#000000" fill-rule="evenodd" fill-opacity="1" /><path clip-path="url(#clip740)" d="M516.77 225.728 L516.77 231.596 L515.173 231.596 L515.173 225.78 Q515.173 224.4 514.635 223.714 Q514.096 223.028 513.02 223.028 Q511.727 223.028 510.98 223.853 Q510.234 224.677 510.234 226.101 L510.234 231.596 L508.628 231.596 L508.628 221.874 L510.234 221.874 L510.234 223.384 Q510.806 222.507 511.579 222.073 Q512.36 221.639 513.376 221.639 Q515.051 221.639 515.911 222.681 Q516.77 223.714 516.77 225.728 Z" fill="#000000" fill-rule="evenodd" fill-opacity="1" /><path clip-path="url(#clip740)" d="M526.353 223.349 L526.353 218.089 L527.95 218.089 L527.95 231.596 L526.353 231.596 L526.353 230.137 Q525.85 231.005 525.077 231.431 Q524.313 231.847 523.237 231.847 Q521.475 231.847 520.364 230.441 Q519.261 229.035 519.261 226.743 Q519.261 224.452 520.364 223.045 Q521.475 221.639 523.237 221.639 Q524.313 221.639 525.077 222.065 Q525.85 222.481 526.353 223.349 M520.911 226.743 Q520.911 228.505 521.631 229.512 Q522.36 230.511 523.628 230.511 Q524.895 230.511 525.624 229.512 Q526.353 228.505 526.353 226.743 Q526.353 224.981 525.624 223.983 Q524.895 222.976 523.628 222.976 Q522.36 222.976 521.631 223.983 Q520.911 224.981 520.911 226.743 Z" fill="#000000" fill-rule="evenodd" fill-opacity="1" /><path clip-path="url(#clip740)" d="M540.728 218.106 Q539.565 220.103 539.001 222.056 Q538.437 224.009 538.437 226.014 Q538.437 228.019 539.001 229.99 Q539.574 231.952 540.728 233.939 L539.339 233.939 Q538.037 231.9 537.386 229.929 Q536.744 227.959 536.744 226.014 Q536.744 224.078 537.386 222.117 Q538.029 220.155 539.339 218.106 L540.728 218.106 Z" fill="#000000" fill-rule="evenodd" fill-opacity="1" /><path clip-path="url(#clip740)" d="M547.594 222.993 Q546.31 222.993 545.563 224 Q544.817 224.999 544.817 226.743 Q544.817 228.488 545.555 229.495 Q546.301 230.493 547.594 230.493 Q548.871 230.493 549.617 229.486 Q550.364 228.479 550.364 226.743 Q550.364 225.016 549.617 224.009 Q548.871 222.993 547.594 222.993 M547.594 221.639 Q549.678 221.639 550.867 222.993 Q552.056 224.347 552.056 226.743 Q552.056 229.13 550.867 230.493 Q549.678 231.847 547.594 231.847 Q545.502 231.847 544.313 230.493 Q543.133 229.13 543.133 226.743 Q543.133 224.347 544.313 222.993 Q545.502 221.639 547.594 221.639 Z" fill="#000000" fill-rule="evenodd" fill-opacity="1" /><path clip-path="url(#clip740)" d="M559.626 218.089 L559.626 219.417 L558.098 219.417 Q557.239 219.417 556.9 219.764 Q556.57 220.111 556.57 221.014 L556.57 221.874 L559.2 221.874 L559.2 223.115 L556.57 223.115 L556.57 231.596 L554.964 231.596 L554.964 223.115 L553.436 223.115 L553.436 221.874 L554.964 221.874 L554.964 221.196 Q554.964 219.573 555.719 218.835 Q556.475 218.089 558.115 218.089 L559.626 218.089 Z" fill="#000000" fill-rule="evenodd" fill-opacity="1" /><path clip-path="url(#clip740)" d="M565.884 218.089 L565.884 219.417 L564.357 219.417 Q563.497 219.417 563.159 219.764 Q562.829 220.111 562.829 221.014 L562.829 221.874 L565.459 221.874 L565.459 223.115 L562.829 223.115 L562.829 231.596 L561.223 231.596 L561.223 223.115 L559.695 223.115 L559.695 221.874 L561.223 221.874 L561.223 221.196 Q561.223 219.573 561.978 218.835 Q562.733 218.089 564.374 218.089 L565.884 218.089 Z" fill="#000000" fill-rule="evenodd" fill-opacity="1" /><path clip-path="url(#clip740)" d="M573.419 222.16 L573.419 223.67 Q572.742 223.323 572.013 223.15 Q571.284 222.976 570.502 222.976 Q569.313 222.976 568.714 223.341 Q568.124 223.705 568.124 224.434 Q568.124 224.99 568.549 225.311 Q568.975 225.624 570.259 225.91 L570.806 226.032 Q572.508 226.396 573.219 227.064 Q573.94 227.724 573.94 228.913 Q573.94 230.268 572.863 231.058 Q571.796 231.847 569.921 231.847 Q569.139 231.847 568.289 231.691 Q567.447 231.544 566.509 231.24 L566.509 229.591 Q567.395 230.051 568.254 230.285 Q569.113 230.511 569.955 230.511 Q571.084 230.511 571.692 230.129 Q572.299 229.738 572.299 229.035 Q572.299 228.384 571.856 228.037 Q571.422 227.689 569.938 227.368 L569.383 227.238 Q567.898 226.926 567.238 226.283 Q566.579 225.632 566.579 224.504 Q566.579 223.132 567.551 222.386 Q568.523 221.639 570.311 221.639 Q571.197 221.639 571.978 221.769 Q572.759 221.9 573.419 222.16 Z" fill="#000000" fill-rule="evenodd" fill-opacity="1" /><path clip-path="url(#clip740)" d="M584.565 225.728 L584.565 231.596 L582.968 231.596 L582.968 225.78 Q582.968 224.4 582.429 223.714 Q581.891 223.028 580.815 223.028 Q579.521 223.028 578.775 223.853 Q578.028 224.677 578.028 226.101 L578.028 231.596 L576.422 231.596 L576.422 218.089 L578.028 218.089 L578.028 223.384 Q578.601 222.507 579.374 222.073 Q580.155 221.639 581.171 221.639 Q582.846 221.639 583.705 222.681 Q584.565 223.714 584.565 225.728 Z" fill="#000000" fill-rule="evenodd" fill-opacity="1" /><path clip-path="url(#clip740)" d="M591.518 222.993 Q590.233 222.993 589.487 224 Q588.74 224.999 588.74 226.743 Q588.74 228.488 589.478 229.495 Q590.224 230.493 591.518 230.493 Q592.794 230.493 593.54 229.486 Q594.287 228.479 594.287 226.743 Q594.287 225.016 593.54 224.009 Q592.794 222.993 591.518 222.993 M591.518 221.639 Q593.601 221.639 594.79 222.993 Q595.98 224.347 595.98 226.743 Q595.98 229.13 594.79 230.493 Q593.601 231.847 591.518 231.847 Q589.426 231.847 588.237 230.493 Q587.056 229.13 587.056 226.743 Q587.056 224.347 588.237 222.993 Q589.426 221.639 591.518 221.639 Z" fill="#000000" fill-rule="evenodd" fill-opacity="1" /><path clip-path="url(#clip740)" d="M604.261 223.367 Q603.992 223.21 603.671 223.141 Q603.358 223.063 602.976 223.063 Q601.622 223.063 600.893 223.948 Q600.172 224.825 600.172 226.474 L600.172 231.596 L598.566 231.596 L598.566 221.874 L600.172 221.874 L600.172 223.384 Q600.676 222.499 601.483 222.073 Q602.29 221.639 603.445 221.639 Q603.61 221.639 603.809 221.665 Q604.009 221.683 604.252 221.726 L604.261 223.367 Z" fill="#000000" fill-rule="evenodd" fill-opacity="1" /><path clip-path="url(#clip740)" d="M613.861 226.335 L613.861 227.117 L606.518 227.117 Q606.622 228.766 607.507 229.634 Q608.401 230.493 609.99 230.493 Q610.91 230.493 611.769 230.268 Q612.638 230.042 613.488 229.591 L613.488 231.101 Q612.629 231.466 611.726 231.656 Q610.823 231.847 609.894 231.847 Q607.568 231.847 606.205 230.493 Q604.851 229.139 604.851 226.83 Q604.851 224.443 606.136 223.045 Q607.429 221.639 609.617 221.639 Q611.579 221.639 612.716 222.907 Q613.861 224.165 613.861 226.335 M612.264 225.867 Q612.247 224.556 611.526 223.775 Q610.815 222.993 609.634 222.993 Q608.297 222.993 607.49 223.749 Q606.691 224.504 606.57 225.875 L612.264 225.867 Z" fill="#000000" fill-rule="evenodd" fill-opacity="1" /><path clip-path="url(#clip740)" d="M616.231 218.106 L617.62 218.106 Q618.922 220.155 619.565 222.117 Q620.216 224.078 620.216 226.014 Q620.216 227.959 619.565 229.929 Q618.922 231.9 617.62 233.939 L616.231 233.939 Q617.386 231.952 617.95 229.99 Q618.523 228.019 618.523 226.014 Q618.523 224.009 617.95 222.056 Q617.386 220.103 616.231 218.106 Z" fill="#000000" fill-rule="evenodd" fill-opacity="1" /><polyline clip-path="url(#clip740)" style="stroke:#c271d2; stroke-linecap:round; stroke-linejoin:round; stroke-width:1.5; stroke-opacity:1; fill:none" points="334.011,244.556 463.839,244.556 "/>
<path clip-path="url(#clip740)" d="M493.819 238.501 L493.819 240.211 Q492.82 239.734 491.935 239.499 Q491.05 239.265 490.225 239.265 Q488.793 239.265 488.011 239.82 Q487.239 240.376 487.239 241.4 Q487.239 242.26 487.751 242.702 Q488.272 243.136 489.713 243.406 L490.772 243.623 Q492.734 243.996 493.662 244.942 Q494.6 245.879 494.6 247.459 Q494.6 249.343 493.333 250.315 Q492.074 251.287 489.635 251.287 Q488.715 251.287 487.673 251.079 Q486.64 250.871 485.529 250.463 L485.529 248.657 Q486.597 249.256 487.621 249.56 Q488.645 249.864 489.635 249.864 Q491.136 249.864 491.952 249.274 Q492.768 248.683 492.768 247.59 Q492.768 246.635 492.178 246.097 Q491.597 245.558 490.26 245.289 L489.192 245.081 Q487.23 244.69 486.353 243.857 Q485.477 243.024 485.477 241.539 Q485.477 239.82 486.683 238.831 Q487.899 237.841 490.025 237.841 Q490.937 237.841 491.883 238.006 Q492.829 238.171 493.819 238.501 Z" fill="#000000" fill-rule="evenodd" fill-opacity="1" /><path clip-path="url(#clip740)" d="M505.581 245.775 L505.581 246.557 L498.237 246.557 Q498.341 248.206 499.227 249.074 Q500.121 249.933 501.709 249.933 Q502.629 249.933 503.489 249.708 Q504.357 249.482 505.208 249.031 L505.208 250.541 Q504.348 250.906 503.445 251.096 Q502.543 251.287 501.614 251.287 Q499.287 251.287 497.925 249.933 Q496.57 248.579 496.57 246.27 Q496.57 243.883 497.855 242.485 Q499.149 241.079 501.336 241.079 Q503.298 241.079 504.435 242.347 Q505.581 243.605 505.581 245.775 M503.984 245.307 Q503.966 243.996 503.246 243.215 Q502.534 242.433 501.353 242.433 Q500.017 242.433 499.209 243.189 Q498.411 243.944 498.289 245.315 L503.984 245.307 Z" fill="#000000" fill-rule="evenodd" fill-opacity="1" /><path clip-path="url(#clip740)" d="M508.202 237.529 L509.8 237.529 L509.8 251.036 L508.202 251.036 L508.202 237.529 Z" fill="#000000" fill-rule="evenodd" fill-opacity="1" /><path clip-path="url(#clip740)" d="M513.142 237.529 L514.739 237.529 L514.739 251.036 L513.142 251.036 L513.142 237.529 Z" fill="#000000" fill-rule="evenodd" fill-opacity="1" /><polyline clip-path="url(#clip740)" style="stroke:#ac8d18; stroke-linecap:round; stroke-linejoin:round; stroke-width:1.5; stroke-opacity:1; fill:none" points="334.011,263.996 463.839,263.996 "/>
<path clip-path="url(#clip740)" d="M485.477 257.516 L493.671 257.516 L493.671 258.991 L487.23 258.991 L487.23 262.828 L493.402 262.828 L493.402 264.304 L487.23 264.304 L487.23 269 L493.827 269 L493.827 270.476 L485.477 270.476 L485.477 257.516 Z" fill="#000000" fill-rule="evenodd" fill-opacity="1" /><path clip-path="url(#clip740)" d="M496.64 256.969 L498.237 256.969 L498.237 270.476 L496.64 270.476 L496.64 256.969 Z" fill="#000000" fill-rule="evenodd" fill-opacity="1" /><path clip-path="url(#clip740)" d="M509.895 265.215 L509.895 265.997 L502.551 265.997 Q502.655 267.646 503.541 268.514 Q504.435 269.373 506.024 269.373 Q506.944 269.373 507.803 269.148 Q508.671 268.922 509.522 268.471 L509.522 269.981 Q508.662 270.346 507.76 270.536 Q506.857 270.727 505.928 270.727 Q503.602 270.727 502.239 269.373 Q500.885 268.019 500.885 265.71 Q500.885 263.323 502.169 261.925 Q503.463 260.519 505.65 260.519 Q507.612 260.519 508.749 261.787 Q509.895 263.045 509.895 265.215 M508.298 264.747 Q508.28 263.436 507.56 262.655 Q506.848 261.873 505.668 261.873 Q504.331 261.873 503.524 262.629 Q502.725 263.384 502.603 264.755 L508.298 264.747 Z" fill="#000000" fill-rule="evenodd" fill-opacity="1" /><path clip-path="url(#clip740)" d="M519.513 261.127 L519.513 262.62 Q518.836 262.247 518.15 262.064 Q517.473 261.873 516.779 261.873 Q515.225 261.873 514.365 262.863 Q513.506 263.844 513.506 265.623 Q513.506 267.403 514.365 268.392 Q515.225 269.373 516.779 269.373 Q517.473 269.373 518.15 269.191 Q518.836 269 519.513 268.627 L519.513 270.102 Q518.845 270.415 518.124 270.571 Q517.412 270.727 516.605 270.727 Q514.409 270.727 513.115 269.347 Q511.822 267.967 511.822 265.623 Q511.822 263.245 513.124 261.882 Q514.435 260.519 516.709 260.519 Q517.447 260.519 518.15 260.675 Q518.853 260.823 519.513 261.127 Z" fill="#000000" fill-rule="evenodd" fill-opacity="1" /><path clip-path="url(#clip740)" d="M523.871 257.993 L523.871 260.754 L527.161 260.754 L527.161 261.995 L523.871 261.995 L523.871 267.273 Q523.871 268.462 524.192 268.8 Q524.522 269.139 525.52 269.139 L527.161 269.139 L527.161 270.476 L525.52 270.476 Q523.671 270.476 522.968 269.79 Q522.265 269.096 522.265 267.273 L522.265 261.995 L521.093 261.995 L521.093 260.754 L522.265 260.754 L522.265 257.993 L523.871 257.993 Z" fill="#000000" fill-rule="evenodd" fill-opacity="1" /><path clip-path="url(#clip740)" d="M534.895 262.247 Q534.626 262.09 534.305 262.021 Q533.992 261.943 533.61 261.943 Q532.256 261.943 531.527 262.828 Q530.806 263.705 530.806 265.354 L530.806 270.476 L529.2 270.476 L529.2 260.754 L530.806 260.754 L530.806 262.264 Q531.31 261.379 532.117 260.953 Q532.924 260.519 534.079 260.519 Q534.244 260.519 534.444 260.545 Q534.643 260.563 534.886 260.606 L534.895 262.247 Z" fill="#000000" fill-rule="evenodd" fill-opacity="1" /><path clip-path="url(#clip740)" d="M539.947 261.873 Q538.662 261.873 537.916 262.88 Q537.169 263.879 537.169 265.623 Q537.169 267.368 537.907 268.375 Q538.654 269.373 539.947 269.373 Q541.223 269.373 541.97 268.366 Q542.716 267.359 542.716 265.623 Q542.716 263.896 541.97 262.889 Q541.223 261.873 539.947 261.873 M539.947 260.519 Q542.03 260.519 543.219 261.873 Q544.409 263.227 544.409 265.623 Q544.409 268.01 543.219 269.373 Q542.03 270.727 539.947 270.727 Q537.855 270.727 536.666 269.373 Q535.485 268.01 535.485 265.623 Q535.485 263.227 536.666 261.873 Q537.855 260.519 539.947 260.519 Z" fill="#000000" fill-rule="evenodd" fill-opacity="1" /><path clip-path="url(#clip740)" d="M547.056 256.969 L548.653 256.969 L548.653 270.476 L547.056 270.476 L547.056 256.969 Z" fill="#000000" fill-rule="evenodd" fill-opacity="1" /><path clip-path="url(#clip740)" d="M556.041 271.378 Q555.364 273.115 554.721 273.644 Q554.079 274.174 553.002 274.174 L551.726 274.174 L551.726 272.837 L552.664 272.837 Q553.324 272.837 553.688 272.524 Q554.053 272.212 554.495 271.049 L554.782 270.319 L550.85 260.754 L552.542 260.754 L555.581 268.358 L558.619 260.754 L560.311 260.754 L556.041 271.378 Z" fill="#000000" fill-rule="evenodd" fill-opacity="1" /><path clip-path="url(#clip740)" d="M561.822 260.754 L569.409 260.754 L569.409 262.212 L563.402 269.2 L569.409 269.2 L569.409 270.476 L561.605 270.476 L561.605 269.017 L567.612 262.03 L561.822 262.03 L561.822 260.754 Z" fill="#000000" fill-rule="evenodd" fill-opacity="1" /><path clip-path="url(#clip740)" d="M580.164 265.215 L580.164 265.997 L572.82 265.997 Q572.924 267.646 573.81 268.514 Q574.704 269.373 576.292 269.373 Q577.212 269.373 578.072 269.148 Q578.94 268.922 579.79 268.471 L579.79 269.981 Q578.931 270.346 578.028 270.536 Q577.126 270.727 576.197 270.727 Q573.87 270.727 572.508 269.373 Q571.153 268.019 571.153 265.71 Q571.153 263.323 572.438 261.925 Q573.731 260.519 575.919 260.519 Q577.881 260.519 579.018 261.787 Q580.164 263.045 580.164 265.215 M578.567 264.747 Q578.549 263.436 577.829 262.655 Q577.117 261.873 575.936 261.873 Q574.6 261.873 573.792 262.629 Q572.994 263.384 572.872 264.755 L578.567 264.747 Z" fill="#000000" fill-rule="evenodd" fill-opacity="1" /><path clip-path="url(#clip740)" d="M588.419 262.247 Q588.15 262.09 587.829 262.021 Q587.516 261.943 587.134 261.943 Q585.78 261.943 585.051 262.828 Q584.33 263.705 584.33 265.354 L584.33 270.476 L582.724 270.476 L582.724 260.754 L584.33 260.754 L584.33 262.264 Q584.834 261.379 585.641 260.953 Q586.448 260.519 587.603 260.519 Q587.768 260.519 587.968 260.545 Q588.167 260.563 588.41 260.606 L588.419 262.247 Z" fill="#000000" fill-rule="evenodd" fill-opacity="1" /><path clip-path="url(#clip740)" d="M247.459 1423.18 L2194.88 1423.18 L2194.88 123.472 L247.459 123.472  Z" fill="#000000" fill-rule="evenodd" fill-opacity="0"/>
<polyline clip-path="url(#clip740)" style="stroke:#000000; stroke-linecap:round; stroke-linejoin:round; stroke-width:4; stroke-opacity:1; fill:none" points="2194.88,1423.18 2194.88,123.472 "/>
<polyline clip-path="url(#clip740)" style="stroke:#000000; stroke-linecap:round; stroke-linejoin:round; stroke-width:4; stroke-opacity:1; fill:none" points="2194.88,1363.32 2175.98,1363.32 "/>
<polyline clip-path="url(#clip740)" style="stroke:#000000; stroke-linecap:round; stroke-linejoin:round; stroke-width:4; stroke-opacity:1; fill:none" points="2194.88,1139.29 2175.98,1139.29 "/>
<polyline clip-path="url(#clip740)" style="stroke:#000000; stroke-linecap:round; stroke-linejoin:round; stroke-width:4; stroke-opacity:1; fill:none" points="2194.88,915.252 2175.98,915.252 "/>
<polyline clip-path="url(#clip740)" style="stroke:#000000; stroke-linecap:round; stroke-linejoin:round; stroke-width:4; stroke-opacity:1; fill:none" points="2194.88,691.217 2175.98,691.217 "/>
<polyline clip-path="url(#clip740)" style="stroke:#000000; stroke-linecap:round; stroke-linejoin:round; stroke-width:4; stroke-opacity:1; fill:none" points="2194.88,467.183 2175.98,467.183 "/>
<polyline clip-path="url(#clip740)" style="stroke:#000000; stroke-linecap:round; stroke-linejoin:round; stroke-width:4; stroke-opacity:1; fill:none" points="2194.88,243.149 2175.98,243.149 "/>
<path clip-path="url(#clip740)" d="M2246.5 1361.97 Q2249.86 1362.68 2251.74 1364.95 Q2253.63 1367.22 2253.63 1370.55 Q2253.63 1375.67 2250.12 1378.47 Q2246.6 1381.27 2240.12 1381.27 Q2237.94 1381.27 2235.62 1380.83 Q2233.33 1380.41 2230.88 1379.56 L2230.88 1375.04 Q2232.82 1376.18 2235.14 1376.76 Q2237.45 1377.34 2239.98 1377.34 Q2244.37 1377.34 2246.67 1375.6 Q2248.98 1373.86 2248.98 1370.55 Q2248.98 1367.5 2246.83 1365.79 Q2244.7 1364.05 2240.88 1364.05 L2236.85 1364.05 L2236.85 1360.21 L2241.06 1360.21 Q2244.51 1360.21 2246.34 1358.84 Q2248.17 1357.45 2248.17 1354.86 Q2248.17 1352.2 2246.27 1350.79 Q2244.4 1349.35 2240.88 1349.35 Q2238.96 1349.35 2236.76 1349.77 Q2234.56 1350.18 2231.92 1351.06 L2231.92 1346.9 Q2234.58 1346.16 2236.9 1345.79 Q2239.24 1345.42 2241.3 1345.42 Q2246.62 1345.42 2249.72 1347.85 Q2252.82 1350.25 2252.82 1354.37 Q2252.82 1357.24 2251.18 1359.23 Q2249.54 1361.2 2246.5 1361.97 Z" fill="#000000" fill-rule="evenodd" fill-opacity="1" /><path clip-path="url(#clip740)" d="M2272.5 1349.12 Q2268.89 1349.12 2267.06 1352.68 Q2265.25 1356.23 2265.25 1363.35 Q2265.25 1370.46 2267.06 1374.03 Q2268.89 1377.57 2272.5 1377.57 Q2276.13 1377.57 2277.94 1374.03 Q2279.77 1370.46 2279.77 1363.35 Q2279.77 1356.23 2277.94 1352.68 Q2276.13 1349.12 2272.5 1349.12 M2272.5 1345.42 Q2278.31 1345.42 2281.36 1350.02 Q2284.44 1354.6 2284.44 1363.35 Q2284.44 1372.08 2281.36 1376.69 Q2278.31 1381.27 2272.5 1381.27 Q2266.69 1381.27 2263.61 1376.69 Q2260.55 1372.08 2260.55 1363.35 Q2260.55 1354.6 2263.61 1350.02 Q2266.69 1345.42 2272.5 1345.42 Z" fill="#000000" fill-rule="evenodd" fill-opacity="1" /><path clip-path="url(#clip740)" d="M2246.48 1126.08 L2234.68 1144.53 L2246.48 1144.53 L2246.48 1126.08 M2245.25 1122.01 L2251.13 1122.01 L2251.13 1144.53 L2256.06 1144.53 L2256.06 1148.42 L2251.13 1148.42 L2251.13 1156.57 L2246.48 1156.57 L2246.48 1148.42 L2230.88 1148.42 L2230.88 1143.9 L2245.25 1122.01 Z" fill="#000000" fill-rule="evenodd" fill-opacity="1" /><path clip-path="url(#clip740)" d="M2273.8 1125.08 Q2270.18 1125.08 2268.36 1128.65 Q2266.55 1132.19 2266.55 1139.32 Q2266.55 1146.43 2268.36 1149.99 Q2270.18 1153.53 2273.8 1153.53 Q2277.43 1153.53 2279.24 1149.99 Q2281.06 1146.43 2281.06 1139.32 Q2281.06 1132.19 2279.24 1128.65 Q2277.43 1125.08 2273.8 1125.08 M2273.8 1121.38 Q2279.61 1121.38 2282.66 1125.99 Q2285.74 1130.57 2285.74 1139.32 Q2285.74 1148.05 2282.66 1152.65 Q2279.61 1157.24 2273.8 1157.24 Q2267.99 1157.24 2264.91 1152.65 Q2261.85 1148.05 2261.85 1139.32 Q2261.85 1130.57 2264.91 1125.99 Q2267.99 1121.38 2273.8 1121.38 Z" fill="#000000" fill-rule="evenodd" fill-opacity="1" /><path clip-path="url(#clip740)" d="M2232.34 897.972 L2250.69 897.972 L2250.69 901.907 L2236.62 901.907 L2236.62 910.379 Q2237.64 910.032 2238.66 909.87 Q2239.68 909.685 2240.69 909.685 Q2246.48 909.685 2249.86 912.856 Q2253.24 916.027 2253.24 921.444 Q2253.24 927.022 2249.77 930.124 Q2246.3 933.203 2239.98 933.203 Q2237.8 933.203 2235.53 932.833 Q2233.29 932.462 2230.88 931.721 L2230.88 927.022 Q2232.96 928.157 2235.18 928.712 Q2237.41 929.268 2239.88 929.268 Q2243.89 929.268 2246.23 927.161 Q2248.56 925.055 2248.56 921.444 Q2248.56 917.833 2246.23 915.726 Q2243.89 913.62 2239.88 913.62 Q2238.01 913.62 2236.13 914.036 Q2234.28 914.453 2232.34 915.333 L2232.34 897.972 Z" fill="#000000" fill-rule="evenodd" fill-opacity="1" /><path clip-path="url(#clip740)" d="M2272.45 901.05 Q2268.84 901.05 2267.01 904.615 Q2265.21 908.157 2265.21 915.286 Q2265.21 922.393 2267.01 925.958 Q2268.84 929.499 2272.45 929.499 Q2276.09 929.499 2277.89 925.958 Q2279.72 922.393 2279.72 915.286 Q2279.72 908.157 2277.89 904.615 Q2276.09 901.05 2272.45 901.05 M2272.45 897.347 Q2278.26 897.347 2281.32 901.953 Q2284.4 906.536 2284.4 915.286 Q2284.4 924.013 2281.32 928.62 Q2278.26 933.203 2272.45 933.203 Q2266.64 933.203 2263.56 928.62 Q2260.51 924.013 2260.51 915.286 Q2260.51 906.536 2263.56 901.953 Q2266.64 897.347 2272.45 897.347 Z" fill="#000000" fill-rule="evenodd" fill-opacity="1" /><path clip-path="url(#clip740)" d="M2243.22 689.354 Q2240.07 689.354 2238.22 691.507 Q2236.39 693.66 2236.39 697.41 Q2236.39 701.136 2238.22 703.312 Q2240.07 705.465 2243.22 705.465 Q2246.37 705.465 2248.19 703.312 Q2250.05 701.136 2250.05 697.41 Q2250.05 693.66 2248.19 691.507 Q2246.37 689.354 2243.22 689.354 M2252.5 674.701 L2252.5 678.961 Q2250.74 678.127 2248.93 677.687 Q2247.15 677.248 2245.39 677.248 Q2240.76 677.248 2238.31 680.373 Q2235.88 683.498 2235.53 689.817 Q2236.9 687.803 2238.96 686.738 Q2241.02 685.65 2243.49 685.65 Q2248.7 685.65 2251.71 688.822 Q2254.74 691.97 2254.74 697.41 Q2254.74 702.734 2251.6 705.951 Q2248.45 709.169 2243.22 709.169 Q2237.22 709.169 2234.05 704.585 Q2230.88 699.979 2230.88 691.252 Q2230.88 683.058 2234.77 678.197 Q2238.66 673.312 2245.21 673.312 Q2246.97 673.312 2248.75 673.66 Q2250.55 674.007 2252.5 674.701 Z" fill="#000000" fill-rule="evenodd" fill-opacity="1" /><path clip-path="url(#clip740)" d="M2272.8 677.016 Q2269.19 677.016 2267.36 680.581 Q2265.55 684.123 2265.55 691.252 Q2265.55 698.359 2267.36 701.923 Q2269.19 705.465 2272.8 705.465 Q2276.43 705.465 2278.24 701.923 Q2280.07 698.359 2280.07 691.252 Q2280.07 684.123 2278.24 680.581 Q2276.43 677.016 2272.8 677.016 M2272.8 673.312 Q2278.61 673.312 2281.67 677.919 Q2284.74 682.502 2284.74 691.252 Q2284.74 699.979 2281.67 704.585 Q2278.61 709.169 2272.8 709.169 Q2266.99 709.169 2263.91 704.585 Q2260.86 699.979 2260.86 691.252 Q2260.86 682.502 2263.91 677.919 Q2266.99 673.312 2272.8 673.312 Z" fill="#000000" fill-rule="evenodd" fill-opacity="1" /><path clip-path="url(#clip740)" d="M2230.88 449.903 L2253.1 449.903 L2253.1 451.894 L2240.55 484.463 L2235.67 484.463 L2247.48 453.838 L2230.88 453.838 L2230.88 449.903 Z" fill="#000000" fill-rule="evenodd" fill-opacity="1" /><path clip-path="url(#clip740)" d="M2272.22 452.982 Q2268.61 452.982 2266.78 456.547 Q2264.98 460.088 2264.98 467.218 Q2264.98 474.324 2266.78 477.889 Q2268.61 481.431 2272.22 481.431 Q2275.86 481.431 2277.66 477.889 Q2279.49 474.324 2279.49 467.218 Q2279.49 460.088 2277.66 456.547 Q2275.86 452.982 2272.22 452.982 M2272.22 449.278 Q2278.03 449.278 2281.09 453.885 Q2284.17 458.468 2284.17 467.218 Q2284.17 475.945 2281.09 480.551 Q2278.03 485.134 2272.22 485.134 Q2266.41 485.134 2263.33 480.551 Q2260.28 475.945 2260.28 467.218 Q2260.28 458.468 2263.33 453.885 Q2266.41 449.278 2272.22 449.278 Z" fill="#000000" fill-rule="evenodd" fill-opacity="1" /><path clip-path="url(#clip740)" d="M2242.73 244.017 Q2239.4 244.017 2237.48 245.799 Q2235.58 247.582 2235.58 250.707 Q2235.58 253.832 2237.48 255.614 Q2239.4 257.397 2242.73 257.397 Q2246.06 257.397 2247.99 255.614 Q2249.91 253.809 2249.91 250.707 Q2249.91 247.582 2247.99 245.799 Q2246.09 244.017 2242.73 244.017 M2238.05 242.026 Q2235.05 241.286 2233.36 239.225 Q2231.69 237.165 2231.69 234.202 Q2231.69 230.059 2234.63 227.651 Q2237.59 225.244 2242.73 225.244 Q2247.89 225.244 2250.83 227.651 Q2253.77 230.059 2253.77 234.202 Q2253.77 237.165 2252.08 239.225 Q2250.42 241.286 2247.43 242.026 Q2250.81 242.813 2252.68 245.105 Q2254.58 247.397 2254.58 250.707 Q2254.58 255.73 2251.5 258.415 Q2248.45 261.1 2242.73 261.1 Q2237.01 261.1 2233.93 258.415 Q2230.88 255.73 2230.88 250.707 Q2230.88 247.397 2232.78 245.105 Q2234.68 242.813 2238.05 242.026 M2236.34 234.642 Q2236.34 237.327 2238.01 238.832 Q2239.7 240.336 2242.73 240.336 Q2245.74 240.336 2247.43 238.832 Q2249.14 237.327 2249.14 234.642 Q2249.14 231.957 2247.43 230.452 Q2245.74 228.948 2242.73 228.948 Q2239.7 228.948 2238.01 230.452 Q2236.34 231.957 2236.34 234.642 Z" fill="#000000" fill-rule="evenodd" fill-opacity="1" /><path clip-path="url(#clip740)" d="M2272.89 228.948 Q2269.28 228.948 2267.45 232.512 Q2265.65 236.054 2265.65 243.184 Q2265.65 250.29 2267.45 253.855 Q2269.28 257.397 2272.89 257.397 Q2276.53 257.397 2278.33 253.855 Q2280.16 250.29 2280.16 243.184 Q2280.16 236.054 2278.33 232.512 Q2276.53 228.948 2272.89 228.948 M2272.89 225.244 Q2278.7 225.244 2281.76 229.85 Q2284.84 234.434 2284.84 243.184 Q2284.84 251.91 2281.76 256.517 Q2278.7 261.1 2272.89 261.1 Q2267.08 261.1 2264 256.517 Q2260.95 251.91 2260.95 243.184 Q2260.95 234.434 2264 229.85 Q2267.08 225.244 2272.89 225.244 Z" fill="#000000" fill-rule="evenodd" fill-opacity="1" /><path clip-path="url(#clip740)" d="M2336.53 988.917 L2354.38 988.917 L2354.38 980.832 Q2354.38 976.344 2352.06 973.893 Q2349.74 971.443 2345.44 971.443 Q2341.17 971.443 2338.85 973.893 Q2336.53 976.344 2336.53 980.832 L2336.53 988.917 M2331.24 995.346 L2331.24 980.832 Q2331.24 972.843 2334.87 968.769 Q2338.47 964.663 2345.44 964.663 Q2352.47 964.663 2356.07 968.769 Q2359.67 972.843 2359.67 980.832 L2359.67 988.917 L2378.76 988.917 L2378.76 995.346 L2331.24 995.346 Z" fill="#000000" fill-rule="evenodd" fill-opacity="1" /><path clip-path="url(#clip740)" d="M2348.59 936.781 Q2348.02 937.768 2347.76 938.946 Q2347.48 940.092 2347.48 941.492 Q2347.48 946.457 2350.72 949.131 Q2353.94 951.773 2359.99 951.773 L2378.76 951.773 L2378.76 957.661 L2343.12 957.661 L2343.12 951.773 L2348.65 951.773 Q2345.41 949.927 2343.85 946.967 Q2342.26 944.006 2342.26 939.773 Q2342.26 939.169 2342.35 938.436 Q2342.42 937.704 2342.57 936.813 L2348.59 936.781 Z" fill="#000000" fill-rule="evenodd" fill-opacity="1" /><path clip-path="url(#clip740)" d="M2343.12 930.639 L2343.12 924.782 L2378.76 924.782 L2378.76 930.639 L2343.12 930.639 M2329.24 930.639 L2329.24 924.782 L2336.65 924.782 L2336.65 930.639 L2329.24 930.639 Z" fill="#000000" fill-rule="evenodd" fill-opacity="1" /><path clip-path="url(#clip740)" d="M2344.48 886.874 L2349.96 886.874 Q2348.59 889.357 2347.92 891.871 Q2347.22 894.354 2347.22 896.9 Q2347.22 902.598 2350.85 905.749 Q2354.45 908.9 2360.97 908.9 Q2367.5 908.9 2371.12 905.749 Q2374.72 902.598 2374.72 896.9 Q2374.72 894.354 2374.05 891.871 Q2373.35 889.357 2371.98 886.874 L2377.4 886.874 Q2378.54 889.325 2379.11 891.967 Q2379.69 894.577 2379.69 897.537 Q2379.69 905.589 2374.63 910.332 Q2369.57 915.074 2360.97 915.074 Q2352.25 915.074 2347.25 910.3 Q2342.26 905.494 2342.26 897.155 Q2342.26 894.449 2342.83 891.871 Q2343.37 889.293 2344.48 886.874 Z" fill="#000000" fill-rule="evenodd" fill-opacity="1" /><path clip-path="url(#clip740)" d="M2359.48 846.197 L2362.34 846.197 L2362.34 873.124 Q2368.39 872.742 2371.57 869.496 Q2374.72 866.218 2374.72 860.393 Q2374.72 857.019 2373.89 853.868 Q2373.07 850.685 2371.41 847.566 L2376.95 847.566 Q2378.29 850.717 2378.99 854.027 Q2379.69 857.337 2379.69 860.743 Q2379.69 869.273 2374.72 874.27 Q2369.76 879.235 2361.29 879.235 Q2352.54 879.235 2347.41 874.525 Q2342.26 869.782 2342.26 861.762 Q2342.26 854.568 2346.9 850.399 Q2351.52 846.197 2359.48 846.197 M2357.76 852.054 Q2352.95 852.118 2350.09 854.759 Q2347.22 857.369 2347.22 861.698 Q2347.22 866.6 2349.99 869.56 Q2352.76 872.488 2357.79 872.933 L2357.76 852.054 Z" fill="#000000" fill-rule="evenodd" fill-opacity="1" /><path clip-path="url(#clip740)" d="M2329.3 801.797 Q2336.62 806.062 2343.78 808.13 Q2350.95 810.199 2358.3 810.199 Q2365.65 810.199 2372.88 808.13 Q2380.07 806.03 2387.36 801.797 L2387.36 806.889 Q2379.88 811.663 2372.65 814.051 Q2365.43 816.406 2358.3 816.406 Q2351.2 816.406 2344.01 814.051 Q2336.81 811.695 2329.3 806.889 L2329.3 801.797 Z" fill="#000000" fill-rule="evenodd" fill-opacity="1" /><path clip-path="url(#clip740)" d="M2334.9 759.433 L2341.68 759.433 Q2338.34 762.329 2336.91 765.035 Q2335.48 767.708 2335.48 770.955 Q2335.48 775.952 2338.66 779.167 Q2341.84 782.381 2347.79 783.4 L2347.79 765.035 L2351.71 766.785 L2351.71 783.909 Q2352.47 783.973 2353.21 784.004 Q2353.94 784.004 2355.05 784.004 Q2356.07 784.004 2356.8 784.004 Q2357.53 783.973 2358.3 783.909 L2358.3 769.713 L2362.21 771.496 L2362.21 783.4 Q2368.16 782.381 2371.38 779.167 Q2374.59 775.952 2374.59 770.955 Q2374.59 767.708 2373.16 765.035 Q2371.73 762.329 2368.39 759.433 L2375.1 759.433 Q2377.4 762.266 2378.54 765.226 Q2379.69 768.154 2379.69 771.209 Q2379.69 778.753 2375.07 783.686 Q2370.46 788.588 2362.21 789.861 L2362.21 796.577 L2358.3 794.826 L2358.3 790.402 Q2357.57 790.402 2356.83 790.434 Q2356.07 790.434 2355.05 790.434 Q2353.94 790.434 2353.21 790.434 Q2352.44 790.402 2351.71 790.402 L2351.71 796.577 L2347.79 794.826 L2347.79 789.861 Q2339.61 788.588 2335 783.654 Q2330.38 778.721 2330.38 771.209 Q2330.38 768.09 2331.53 765.162 Q2332.64 762.202 2334.9 759.433 Z" fill="#000000" fill-rule="evenodd" fill-opacity="1" /><path clip-path="url(#clip740)" d="M2331.24 738.553 L2331.24 733.142 L2384.81 749.693 L2384.81 755.104 L2331.24 738.553 Z" fill="#000000" fill-rule="evenodd" fill-opacity="1" /><path clip-path="url(#clip740)" d="M2331.24 726.745 L2331.24 717.165 L2363.58 705.038 L2331.24 692.848 L2331.24 683.267 L2378.76 683.267 L2378.76 689.537 L2337.04 689.537 L2369.63 701.791 L2369.63 708.253 L2337.04 720.507 L2378.76 720.507 L2378.76 726.745 L2331.24 726.745 Z" fill="#000000" fill-rule="evenodd" fill-opacity="1" /><path clip-path="url(#clip740)" d="M2331.24 674.737 L2331.24 668.244 L2371.41 658.25 L2331.24 648.288 L2331.24 641.063 L2371.41 631.068 L2331.24 621.106 L2331.24 614.581 L2378.76 626.517 L2378.76 634.601 L2337.51 644.627 L2378.76 654.749 L2378.76 662.833 L2331.24 674.737 Z" fill="#000000" fill-rule="evenodd" fill-opacity="1" /><path clip-path="url(#clip740)" d="M2357.25 576.673 L2378.76 576.673 L2378.76 582.53 L2357.44 582.53 Q2352.38 582.53 2349.86 584.503 Q2347.35 586.477 2347.35 590.423 Q2347.35 595.166 2350.37 597.903 Q2353.4 600.64 2358.62 600.64 L2378.76 600.64 L2378.76 606.529 L2329.24 606.529 L2329.24 600.64 L2348.65 600.64 Q2345.44 598.54 2343.85 595.707 Q2342.26 592.842 2342.26 589.118 Q2342.26 582.975 2346.08 579.824 Q2349.86 576.673 2357.25 576.673 Z" fill="#000000" fill-rule="evenodd" fill-opacity="1" /><path clip-path="url(#clip740)" d="M2329.3 565.915 L2329.3 560.823 Q2336.81 556.049 2344.01 553.693 Q2351.2 551.306 2358.3 551.306 Q2365.43 551.306 2372.65 553.693 Q2379.88 556.049 2387.36 560.823 L2387.36 565.915 Q2380.07 561.682 2372.88 559.613 Q2365.65 557.513 2358.3 557.513 Q2350.95 557.513 2343.78 559.613 Q2336.62 561.682 2329.3 565.915 Z" fill="#000000" fill-rule="evenodd" fill-opacity="1" /><polyline clip-path="url(#clip742)" style="stroke:#000000; stroke-linecap:round; stroke-linejoin:round; stroke-width:4; stroke-opacity:1; fill:none" stroke-dasharray="16, 10" points="302.574,491.379 313.576,579.648 324.577,685.169 335.578,915.924 346.579,967.676 357.58,960.059 368.581,920.853 379.582,800.546 390.583,1031.75 401.585,924.661 412.586,793.377 423.587,632.52 434.588,749.466 445.589,898.225 456.59,917.044 467.591,914.131 478.592,901.81 489.594,675.087 500.595,903.826 511.596,974.621 522.597,906.29 533.598,970.588 544.599,891.504 555.6,970.14 566.602,980.222 577.603,995.904 588.604,1049.67 599.605,1052.36 610.606,1006.66 621.607,860.139 632.608,721.91 643.609,577.408 654.611,342.172 665.612,250.318 676.613,371.073 687.614,384.291 698.615,460.238 709.616,469.424 720.617,501.909 731.619,467.183 742.62,384.291 753.621,160.256 764.622,437.163 775.623,503.477 786.624,652.684 797.625,829.895 808.626,915.7 819.628,878.734 830.629,1012.03 841.63,1016.29 852.631,1027.27 863.632,1054.15 874.633,1007.11 885.634,989.631 896.635,878.286 907.637,861.259 918.638,856.555 929.639,854.538 940.64,399.973 951.641,399.973 962.642,490.483 973.643,598.915 984.645,699.955 995.646,352.03 1006.65,361.887 1017.65,399.973 1028.65,510.422 1039.65,834.151 1050.65,852.074 1061.65,638.345 1072.65,871.565 1083.65,915.252 1094.66,963.643 1105.66,1002.4 1116.66,1003.07 1127.66,968.572 1138.66,785.984 1149.66,498.324 1160.66,374.209 1171.66,356.734 1182.66,386.755 1193.67,439.627 1204.67,528.345 1215.67,576.064 1226.67,633.865 1237.67,745.882 1248.67,758.652 1259.67,404.006 1270.67,850.506 1281.68,915.252 1292.68,892.848 1303.68,937.655 1314.68,970.364 1325.68,1040.71 1336.68,1213.22 1347.68,1014.72 1358.68,1085.52 1369.68,1219.49 1380.69,1094.48 1391.69,901.138 1402.69,747.002 1413.69,541.339 1424.69,559.037 1435.69,507.509 1446.69,825.638 1457.69,890.832 1468.69,913.011 1479.7,857.899 1490.7,826.758 1501.7,593.314 1512.7,340.828 1523.7,372.641 1534.7,781.279 1545.7,809.283 1556.7,914.804 1567.7,856.107 1578.71,908.307 1589.71,891.28 1600.71,923.989 1611.71,945.944 1622.71,1027.27 1633.71,1060.87 1644.71,915.252 1655.71,808.163 1666.71,690.769 1677.72,468.079 1688.72,461.134 1699.72,437.387 1710.72,834.375 1721.72,859.691 1732.72,893.744 1743.72,899.793 1754.72,889.04 1765.72,579.2 1776.73,867.98 1787.73,886.575 1798.73,889.04 1809.73,974.173 1820.73,994.784 1831.73,1007.55 1842.73,986.943 1853.73,994.112 1864.74,937.655 1875.74,1056.62 1886.74,1259.59 1897.74,1386.4 1908.74,1139.29 1919.74,1177.37 1930.74,975.069 1941.74,942.136 1952.74,881.647 1963.75,881.198 1974.75,893.072 1985.75,915.252 1996.75,896.433 2007.75,874.477 2018.75,411.175 2029.75,880.526 2040.75,876.494 2051.75,953.786 2062.76,968.796 2073.76,1025.03 2084.76,1090 2095.76,993.216 2106.76,1085.52 2117.76,994.112 2128.76,996.576 2139.76,1027.27 "/>
<path clip-path="url(#clip740)" d="M1894.55 205.676 L2129.97 205.676 L2129.97 166.796 L1894.55 166.796  Z" fill="#ffffff" fill-rule="evenodd" fill-opacity="1"/>
<polyline clip-path="url(#clip740)" style="stroke:#000000; stroke-linecap:round; stroke-linejoin:round; stroke-width:4; stroke-opacity:1; fill:none" points="1894.55,205.676 2129.97,205.676 2129.97,166.796 1894.55,166.796 1894.55,205.676 "/>
<polyline clip-path="url(#clip740)" style="stroke:#000000; stroke-linecap:round; stroke-linejoin:round; stroke-width:1.5; stroke-opacity:1; fill:none" stroke-dasharray="8, 5" points="1916.18,186.236 2046.01,186.236 "/>
<path clip-path="url(#clip740)" d="M2069.4 181.197 L2069.4 186.066 L2071.61 186.066 Q2072.83 186.066 2073.5 185.433 Q2074.17 184.799 2074.17 183.627 Q2074.17 182.464 2073.5 181.83 Q2072.83 181.197 2071.61 181.197 L2069.4 181.197 M2067.65 179.756 L2071.61 179.756 Q2073.79 179.756 2074.9 180.745 Q2076.02 181.726 2076.02 183.627 Q2076.02 185.546 2074.9 186.527 Q2073.79 187.507 2071.61 187.507 L2069.4 187.507 L2069.4 192.716 L2067.65 192.716 L2067.65 179.756 Z" fill="#000000" fill-rule="evenodd" fill-opacity="1" /><path clip-path="url(#clip740)" d="M2083.62 184.487 Q2083.35 184.33 2083.03 184.261 Q2082.72 184.183 2082.34 184.183 Q2080.98 184.183 2080.25 185.068 Q2079.53 185.945 2079.53 187.594 L2079.53 192.716 L2077.93 192.716 L2077.93 182.994 L2079.53 182.994 L2079.53 184.504 Q2080.04 183.619 2080.84 183.193 Q2081.65 182.759 2082.81 182.759 Q2082.97 182.759 2083.17 182.785 Q2083.37 182.803 2083.61 182.846 L2083.62 184.487 Z" fill="#000000" fill-rule="evenodd" fill-opacity="1" /><path clip-path="url(#clip740)" d="M2085.3 182.994 L2086.89 182.994 L2086.89 192.716 L2085.3 192.716 L2085.3 182.994 M2085.3 179.209 L2086.89 179.209 L2086.89 181.231 L2085.3 181.231 L2085.3 179.209 Z" fill="#000000" fill-rule="evenodd" fill-opacity="1" /><path clip-path="url(#clip740)" d="M2097.23 183.367 L2097.23 184.86 Q2096.56 184.487 2095.87 184.304 Q2095.19 184.113 2094.5 184.113 Q2092.95 184.113 2092.09 185.103 Q2091.23 186.084 2091.23 187.863 Q2091.23 189.643 2092.09 190.632 Q2092.95 191.613 2094.5 191.613 Q2095.19 191.613 2095.87 191.431 Q2096.56 191.24 2097.23 190.867 L2097.23 192.342 Q2096.56 192.655 2095.84 192.811 Q2095.13 192.967 2094.33 192.967 Q2092.13 192.967 2090.84 191.587 Q2089.54 190.207 2089.54 187.863 Q2089.54 185.485 2090.84 184.122 Q2092.16 182.759 2094.43 182.759 Q2095.17 182.759 2095.87 182.915 Q2096.57 183.063 2097.23 183.367 Z" fill="#000000" fill-rule="evenodd" fill-opacity="1" /><path clip-path="url(#clip740)" d="M2108.33 187.455 L2108.33 188.237 L2100.98 188.237 Q2101.09 189.886 2101.97 190.754 Q2102.87 191.613 2104.46 191.613 Q2105.38 191.613 2106.24 191.388 Q2107.1 191.162 2107.95 190.711 L2107.95 192.221 Q2107.09 192.586 2106.19 192.776 Q2105.29 192.967 2104.36 192.967 Q2102.03 192.967 2100.67 191.613 Q2099.32 190.259 2099.32 187.95 Q2099.32 185.563 2100.6 184.165 Q2101.89 182.759 2104.08 182.759 Q2106.04 182.759 2107.18 184.027 Q2108.33 185.285 2108.33 187.455 M2106.73 186.987 Q2106.71 185.676 2105.99 184.895 Q2105.28 184.113 2104.1 184.113 Q2102.76 184.113 2101.96 184.869 Q2101.16 185.624 2101.04 186.995 L2106.73 186.987 Z" fill="#000000" fill-rule="evenodd" fill-opacity="1" /></svg>
