<?xml version="1.0" encoding="utf-8"?>
<svg xmlns="http://www.w3.org/2000/svg" xmlns:xlink="http://www.w3.org/1999/xlink" width="600" height="400" viewBox="0 0 2400 1600">
<defs>
  <clipPath id="clip900">
    <rect x="0" y="0" width="2400" height="1600"/>
  </clipPath>
</defs>
<path clip-path="url(#clip900)" d="M0 1600 L2400 1600 L2400 0 L0 0  Z" fill="#ffffff" fill-rule="evenodd" fill-opacity="1"/>
<defs>
  <clipPath id="clip901">
    <rect x="480" y="0" width="1681" height="1600"/>
  </clipPath>
</defs>
<path clip-path="url(#clip900)" d="M175.445 1423.18 L2194.88 1423.18 L2194.88 123.472 L175.445 123.472  Z" fill="#ffffff" fill-rule="evenodd" fill-opacity="1"/>
<defs>
  <clipPath id="clip902">
    <rect x="175" y="123" width="2020" height="1301"/>
  </clipPath>
</defs>
<polyline clip-path="url(#clip902)" style="stroke:#000000; stroke-linecap:round; stroke-linejoin:round; stroke-width:2; stroke-opacity:0.1; fill:none" points="221.191,1423.18 221.191,123.472 "/>
<polyline clip-path="url(#clip902)" style="stroke:#000000; stroke-linecap:round; stroke-linejoin:round; stroke-width:2; stroke-opacity:0.1; fill:none" points="791.588,1423.18 791.588,123.472 "/>
<polyline clip-path="url(#clip902)" style="stroke:#000000; stroke-linecap:round; stroke-linejoin:round; stroke-width:2; stroke-opacity:0.1; fill:none" points="1361.99,1423.18 1361.99,123.472 "/>
<polyline clip-path="url(#clip902)" style="stroke:#000000; stroke-linecap:round; stroke-linejoin:round; stroke-width:2; stroke-opacity:0.1; fill:none" points="1932.38,1423.18 1932.38,123.472 "/>
<polyline clip-path="url(#clip900)" style="stroke:#000000; stroke-linecap:round; stroke-linejoin:round; stroke-width:4; stroke-opacity:1; fill:none" points="175.445,1423.18 2194.88,1423.18 "/>
<polyline clip-path="url(#clip900)" style="stroke:#000000; stroke-linecap:round; stroke-linejoin:round; stroke-width:4; stroke-opacity:1; fill:none" points="221.191,1423.18 221.191,1404.28 "/>
<polyline clip-path="url(#clip900)" style="stroke:#000000; stroke-linecap:round; stroke-linejoin:round; stroke-width:4; stroke-opacity:1; fill:none" points="791.588,1423.18 791.588,1404.28 "/>
<polyline clip-path="url(#clip900)" style="stroke:#000000; stroke-linecap:round; stroke-linejoin:round; stroke-width:4; stroke-opacity:1; fill:none" points="1361.99,1423.18 1361.99,1404.28 "/>
<polyline clip-path="url(#clip900)" style="stroke:#000000; stroke-linecap:round; stroke-linejoin:round; stroke-width:4; stroke-opacity:1; fill:none" points="1932.38,1423.18 1932.38,1404.28 "/>
<path clip-path="url(#clip900)" d="M221.191 1454.1 Q217.58 1454.1 215.751 1457.66 Q213.946 1461.2 213.946 1468.33 Q213.946 1475.44 215.751 1479.01 Q217.58 1482.55 221.191 1482.55 Q224.825 1482.55 226.631 1479.01 Q228.46 1475.44 228.46 1468.33 Q228.46 1461.2 226.631 1457.66 Q224.825 1454.1 221.191 1454.1 M221.191 1450.39 Q227.001 1450.39 230.057 1455 Q233.135 1459.58 233.135 1468.33 Q233.135 1477.06 230.057 1481.67 Q227.001 1486.25 221.191 1486.25 Q215.381 1486.25 212.302 1481.67 Q209.247 1477.06 209.247 1468.33 Q209.247 1459.58 212.302 1455 Q215.381 1450.39 221.191 1450.39 Z" fill="#000000" fill-rule="evenodd" fill-opacity="1" /><path clip-path="url(#clip900)" d="M766.287 1451.02 L784.644 1451.02 L784.644 1454.96 L770.57 1454.96 L770.57 1463.43 Q771.588 1463.08 772.607 1462.92 Q773.625 1462.73 774.644 1462.73 Q780.431 1462.73 783.81 1465.9 Q787.19 1469.08 787.19 1474.49 Q787.19 1480.07 783.718 1483.17 Q780.246 1486.25 773.926 1486.25 Q771.75 1486.25 769.482 1485.88 Q767.236 1485.51 764.829 1484.77 L764.829 1480.07 Q766.912 1481.2 769.135 1481.76 Q771.357 1482.32 773.834 1482.32 Q777.838 1482.32 780.176 1480.21 Q782.514 1478.1 782.514 1474.49 Q782.514 1470.88 780.176 1468.77 Q777.838 1466.67 773.834 1466.67 Q771.959 1466.67 770.084 1467.08 Q768.232 1467.5 766.287 1468.38 L766.287 1451.02 Z" fill="#000000" fill-rule="evenodd" fill-opacity="1" /><path clip-path="url(#clip900)" d="M806.403 1454.1 Q802.792 1454.1 800.963 1457.66 Q799.158 1461.2 799.158 1468.33 Q799.158 1475.44 800.963 1479.01 Q802.792 1482.55 806.403 1482.55 Q810.037 1482.55 811.843 1479.01 Q813.671 1475.44 813.671 1468.33 Q813.671 1461.2 811.843 1457.66 Q810.037 1454.1 806.403 1454.1 M806.403 1450.39 Q812.213 1450.39 815.269 1455 Q818.347 1459.58 818.347 1468.33 Q818.347 1477.06 815.269 1481.67 Q812.213 1486.25 806.403 1486.25 Q800.593 1486.25 797.514 1481.67 Q794.458 1477.06 794.458 1468.33 Q794.458 1459.58 797.514 1455 Q800.593 1450.39 806.403 1450.39 Z" fill="#000000" fill-rule="evenodd" fill-opacity="1" /><path clip-path="url(#clip900)" d="M1321.59 1481.64 L1329.23 1481.64 L1329.23 1455.28 L1320.92 1456.95 L1320.92 1452.69 L1329.18 1451.02 L1333.86 1451.02 L1333.86 1481.64 L1341.5 1481.64 L1341.5 1485.58 L1321.59 1485.58 L1321.59 1481.64 Z" fill="#000000" fill-rule="evenodd" fill-opacity="1" /><path clip-path="url(#clip900)" d="M1360.94 1454.1 Q1357.33 1454.1 1355.5 1457.66 Q1353.7 1461.2 1353.7 1468.33 Q1353.7 1475.44 1355.5 1479.01 Q1357.33 1482.55 1360.94 1482.55 Q1364.58 1482.55 1366.38 1479.01 Q1368.21 1475.44 1368.21 1468.33 Q1368.21 1461.2 1366.38 1457.66 Q1364.58 1454.1 1360.94 1454.1 M1360.94 1450.39 Q1366.75 1450.39 1369.81 1455 Q1372.89 1459.58 1372.89 1468.33 Q1372.89 1477.06 1369.81 1481.67 Q1366.75 1486.25 1360.94 1486.25 Q1355.13 1486.25 1352.05 1481.67 Q1349 1477.06 1349 1468.33 Q1349 1459.58 1352.05 1455 Q1355.13 1450.39 1360.94 1450.39 Z" fill="#000000" fill-rule="evenodd" fill-opacity="1" /><path clip-path="url(#clip900)" d="M1391.11 1454.1 Q1387.49 1454.1 1385.67 1457.66 Q1383.86 1461.2 1383.86 1468.33 Q1383.86 1475.44 1385.67 1479.01 Q1387.49 1482.55 1391.11 1482.55 Q1394.74 1482.55 1396.55 1479.01 Q1398.37 1475.44 1398.37 1468.33 Q1398.37 1461.2 1396.55 1457.66 Q1394.74 1454.1 1391.11 1454.1 M1391.11 1450.39 Q1396.92 1450.39 1399.97 1455 Q1403.05 1459.58 1403.05 1468.33 Q1403.05 1477.06 1399.97 1481.67 Q1396.92 1486.25 1391.11 1486.25 Q1385.3 1486.25 1382.22 1481.67 Q1379.16 1477.06 1379.16 1468.33 Q1379.16 1459.58 1382.22 1455 Q1385.3 1450.39 1391.11 1450.39 Z" fill="#000000" fill-rule="evenodd" fill-opacity="1" /><path clip-path="url(#clip900)" d="M1891.99 1481.64 L1899.63 1481.64 L1899.63 1455.28 L1891.32 1456.95 L1891.32 1452.69 L1899.58 1451.02 L1904.26 1451.02 L1904.26 1481.64 L1911.9 1481.64 L1911.9 1485.58 L1891.99 1485.58 L1891.99 1481.64 Z" fill="#000000" fill-rule="evenodd" fill-opacity="1" /><path clip-path="url(#clip900)" d="M1921.39 1451.02 L1939.74 1451.02 L1939.74 1454.96 L1925.67 1454.96 L1925.67 1463.43 Q1926.69 1463.08 1927.71 1462.92 Q1928.72 1462.73 1929.74 1462.73 Q1935.53 1462.73 1938.91 1465.9 Q1942.29 1469.08 1942.29 1474.49 Q1942.29 1480.07 1938.82 1483.17 Q1935.35 1486.25 1929.03 1486.25 Q1926.85 1486.25 1924.58 1485.88 Q1922.34 1485.51 1919.93 1484.77 L1919.93 1480.07 Q1922.01 1481.2 1924.23 1481.76 Q1926.46 1482.32 1928.93 1482.32 Q1932.94 1482.32 1935.28 1480.21 Q1937.61 1478.1 1937.61 1474.49 Q1937.61 1470.88 1935.28 1468.77 Q1932.94 1466.67 1928.93 1466.67 Q1927.06 1466.67 1925.18 1467.08 Q1923.33 1467.5 1921.39 1468.38 L1921.39 1451.02 Z" fill="#000000" fill-rule="evenodd" fill-opacity="1" /><path clip-path="url(#clip900)" d="M1961.5 1454.1 Q1957.89 1454.1 1956.06 1457.66 Q1954.26 1461.2 1954.26 1468.33 Q1954.26 1475.44 1956.06 1479.01 Q1957.89 1482.55 1961.5 1482.55 Q1965.14 1482.55 1966.94 1479.01 Q1968.77 1475.44 1968.77 1468.33 Q1968.77 1461.2 1966.94 1457.66 Q1965.14 1454.1 1961.5 1454.1 M1961.5 1450.39 Q1967.31 1450.39 1970.37 1455 Q1973.45 1459.58 1973.45 1468.33 Q1973.45 1477.06 1970.37 1481.67 Q1967.31 1486.25 1961.5 1486.25 Q1955.69 1486.25 1952.61 1481.67 Q1949.56 1477.06 1949.56 1468.33 Q1949.56 1459.58 1952.61 1455 Q1955.69 1450.39 1961.5 1450.39 Z" fill="#000000" fill-rule="evenodd" fill-opacity="1" /><path clip-path="url(#clip900)" d="M1107.04 1520.52 L1147.24 1520.52 L1147.24 1525.93 L1130.37 1525.93 L1130.37 1568.04 L1123.91 1568.04 L1123.91 1525.93 L1107.04 1525.93 L1107.04 1520.52 Z" fill="#000000" fill-rule="evenodd" fill-opacity="1" /><path clip-path="url(#clip900)" d="M1151.19 1532.4 L1157.04 1532.4 L1157.04 1568.04 L1151.19 1568.04 L1151.19 1532.4 M1151.19 1518.52 L1157.04 1518.52 L1157.04 1525.93 L1151.19 1525.93 L1151.19 1518.52 Z" fill="#000000" fill-rule="evenodd" fill-opacity="1" /><path clip-path="url(#clip900)" d="M1197.05 1539.24 Q1199.25 1535.29 1202.3 1533.41 Q1205.36 1531.54 1209.5 1531.54 Q1215.07 1531.54 1218.09 1535.45 Q1221.11 1539.33 1221.11 1546.53 L1221.11 1568.04 L1215.22 1568.04 L1215.22 1546.72 Q1215.22 1541.59 1213.41 1539.11 Q1211.6 1536.63 1207.87 1536.63 Q1203.32 1536.63 1200.68 1539.65 Q1198.04 1542.68 1198.04 1547.9 L1198.04 1568.04 L1192.15 1568.04 L1192.15 1546.72 Q1192.15 1541.56 1190.33 1539.11 Q1188.52 1536.63 1184.73 1536.63 Q1180.24 1536.63 1177.6 1539.68 Q1174.96 1542.71 1174.96 1547.9 L1174.96 1568.04 L1169.07 1568.04 L1169.07 1532.4 L1174.96 1532.4 L1174.96 1537.93 Q1176.97 1534.66 1179.77 1533.1 Q1182.57 1531.54 1186.42 1531.54 Q1190.3 1531.54 1193.01 1533.51 Q1195.75 1535.48 1197.05 1539.24 Z" fill="#000000" fill-rule="evenodd" fill-opacity="1" /><path clip-path="url(#clip900)" d="M1263.29 1548.76 L1263.29 1551.62 L1236.36 1551.62 Q1236.74 1557.67 1239.99 1560.85 Q1243.27 1564 1249.09 1564 Q1252.46 1564 1255.61 1563.17 Q1258.8 1562.35 1261.92 1560.69 L1261.92 1566.23 Q1258.77 1567.57 1255.46 1568.27 Q1252.15 1568.97 1248.74 1568.97 Q1240.21 1568.97 1235.21 1564 Q1230.25 1559.04 1230.25 1550.57 Q1230.25 1541.82 1234.96 1536.69 Q1239.7 1531.54 1247.72 1531.54 Q1254.91 1531.54 1259.08 1536.18 Q1263.29 1540.8 1263.29 1548.76 M1257.43 1547.04 Q1257.37 1542.23 1254.72 1539.37 Q1252.11 1536.5 1247.78 1536.5 Q1242.88 1536.5 1239.92 1539.27 Q1236.99 1542.04 1236.55 1547.07 L1257.43 1547.04 Z" fill="#000000" fill-rule="evenodd" fill-opacity="1" /><polyline clip-path="url(#clip900)" style="stroke:#000000; stroke-linecap:round; stroke-linejoin:round; stroke-width:4; stroke-opacity:1; fill:none" points="175.445,1423.18 175.445,123.472 "/>
<polyline clip-path="url(#clip900)" style="stroke:#000000; stroke-linecap:round; stroke-linejoin:round; stroke-width:4; stroke-opacity:1; fill:none" points="175.445,1386.4 194.343,1386.4 "/>
<polyline clip-path="url(#clip900)" style="stroke:#000000; stroke-linecap:round; stroke-linejoin:round; stroke-width:4; stroke-opacity:1; fill:none" points="175.445,1037.94 194.343,1037.94 "/>
<polyline clip-path="url(#clip900)" style="stroke:#000000; stroke-linecap:round; stroke-linejoin:round; stroke-width:4; stroke-opacity:1; fill:none" points="175.445,689.489 194.343,689.489 "/>
<polyline clip-path="url(#clip900)" style="stroke:#000000; stroke-linecap:round; stroke-linejoin:round; stroke-width:4; stroke-opacity:1; fill:none" points="175.445,341.036 194.343,341.036 "/>
<path clip-path="url(#clip900)" d="M127.501 1372.19 Q123.89 1372.19 122.061 1375.76 Q120.255 1379.3 120.255 1386.43 Q120.255 1393.54 122.061 1397.1 Q123.89 1400.64 127.501 1400.64 Q131.135 1400.64 132.941 1397.1 Q134.769 1393.54 134.769 1386.43 Q134.769 1379.3 132.941 1375.76 Q131.135 1372.19 127.501 1372.19 M127.501 1368.49 Q133.311 1368.49 136.367 1373.1 Q139.445 1377.68 139.445 1386.43 Q139.445 1395.16 136.367 1399.76 Q133.311 1404.35 127.501 1404.35 Q121.691 1404.35 118.612 1399.76 Q115.556 1395.16 115.556 1386.43 Q115.556 1377.68 118.612 1373.1 Q121.691 1368.49 127.501 1368.49 Z" fill="#000000" fill-rule="evenodd" fill-opacity="1" /><path clip-path="url(#clip900)" d="M123.126 1051.29 L139.445 1051.29 L139.445 1055.22 L117.501 1055.22 L117.501 1051.29 Q120.163 1048.53 124.746 1043.9 Q129.353 1039.25 130.533 1037.91 Q132.779 1035.38 133.658 1033.65 Q134.561 1031.89 134.561 1030.2 Q134.561 1027.44 132.617 1025.71 Q130.695 1023.97 127.593 1023.97 Q125.394 1023.97 122.941 1024.74 Q120.51 1025.5 117.732 1027.05 L117.732 1022.33 Q120.556 1021.19 123.01 1020.62 Q125.464 1020.04 127.501 1020.04 Q132.871 1020.04 136.066 1022.72 Q139.26 1025.41 139.26 1029.9 Q139.26 1032.03 138.45 1033.95 Q137.663 1035.85 135.556 1038.44 Q134.978 1039.11 131.876 1042.33 Q128.774 1045.52 123.126 1051.29 Z" fill="#000000" fill-rule="evenodd" fill-opacity="1" /><path clip-path="url(#clip900)" d="M129.862 676.283 L118.056 694.732 L129.862 694.732 L129.862 676.283 M128.635 672.209 L134.515 672.209 L134.515 694.732 L139.445 694.732 L139.445 698.621 L134.515 698.621 L134.515 706.769 L129.862 706.769 L129.862 698.621 L114.26 698.621 L114.26 694.107 L128.635 672.209 Z" fill="#000000" fill-rule="evenodd" fill-opacity="1" /><path clip-path="url(#clip900)" d="M127.917 339.172 Q124.769 339.172 122.918 341.325 Q121.089 343.478 121.089 347.228 Q121.089 350.955 122.918 353.131 Q124.769 355.283 127.917 355.283 Q131.066 355.283 132.894 353.131 Q134.746 350.955 134.746 347.228 Q134.746 343.478 132.894 341.325 Q131.066 339.172 127.917 339.172 M137.2 324.52 L137.2 328.779 Q135.441 327.946 133.635 327.506 Q131.853 327.066 130.093 327.066 Q125.464 327.066 123.01 330.191 Q120.58 333.316 120.232 339.635 Q121.598 337.622 123.658 336.557 Q125.718 335.469 128.195 335.469 Q133.404 335.469 136.413 338.64 Q139.445 341.788 139.445 347.228 Q139.445 352.552 136.297 355.77 Q133.149 358.987 127.917 358.987 Q121.922 358.987 118.751 354.404 Q115.58 349.797 115.58 341.071 Q115.58 332.876 119.468 328.015 Q123.357 323.131 129.908 323.131 Q131.667 323.131 133.45 323.478 Q135.255 323.825 137.2 324.52 Z" fill="#000000" fill-rule="evenodd" fill-opacity="1" /><path clip-path="url(#clip900)" d="M21.7677 955.576 L39.6235 955.576 L39.6235 947.492 Q39.6235 943.004 37.3 940.553 Q34.9765 938.102 30.6797 938.102 Q26.4147 938.102 24.0912 940.553 Q21.7677 943.004 21.7677 947.492 L21.7677 955.576 M16.4842 962.006 L16.4842 947.492 Q16.4842 939.503 20.1126 935.429 Q23.7092 931.323 30.6797 931.323 Q37.7138 931.323 41.3104 935.429 Q44.907 939.503 44.907 947.492 L44.907 955.576 L64.0042 955.576 L64.0042 962.006 L16.4842 962.006 Z" fill="#000000" fill-rule="evenodd" fill-opacity="1" /><path clip-path="url(#clip900)" d="M32.4621 911.462 Q32.4621 916.172 36.1542 918.91 Q39.8145 921.647 46.212 921.647 Q52.6095 921.647 56.3017 918.942 Q59.9619 916.204 59.9619 911.462 Q59.9619 906.783 56.2698 904.046 Q52.5777 901.309 46.212 901.309 Q39.8781 901.309 36.186 904.046 Q32.4621 906.783 32.4621 911.462 M27.4968 911.462 Q27.4968 903.823 32.4621 899.462 Q37.4273 895.102 46.212 895.102 Q54.9649 895.102 59.9619 899.462 Q64.9272 903.823 64.9272 911.462 Q64.9272 919.132 59.9619 923.493 Q54.9649 927.822 46.212 927.822 Q37.4273 927.822 32.4621 923.493 Q27.4968 919.132 27.4968 911.462 Z" fill="#000000" fill-rule="evenodd" fill-opacity="1" /><path clip-path="url(#clip900)" d="M28.3562 888.8 L28.3562 882.943 L56.1743 875.623 L28.3562 868.334 L28.3562 861.427 L56.1743 854.107 L28.3562 846.818 L28.3562 840.962 L64.0042 850.287 L64.0042 857.194 L34.7856 864.865 L64.0042 872.567 L64.0042 879.474 L28.3562 888.8 Z" fill="#000000" fill-rule="evenodd" fill-opacity="1" /><path clip-path="url(#clip900)" d="M44.7161 801.59 L47.5806 801.59 L47.5806 828.517 Q53.6281 828.135 56.8109 824.888 Q59.9619 821.61 59.9619 815.785 Q59.9619 812.411 59.1344 809.26 Q58.3069 806.078 56.6518 802.958 L62.1899 802.958 Q63.5267 806.109 64.227 809.42 Q64.9272 812.73 64.9272 816.135 Q64.9272 824.665 59.9619 829.662 Q54.9967 834.628 46.5303 834.628 Q37.7774 834.628 32.6531 829.917 Q27.4968 825.175 27.4968 817.154 Q27.4968 809.961 32.1438 805.791 Q36.7589 801.59 44.7161 801.59 M42.9973 807.446 Q38.1912 807.51 35.3266 810.152 Q32.4621 812.762 32.4621 817.09 Q32.4621 821.992 35.2312 824.952 Q38.0002 827.88 43.0292 828.326 L42.9973 807.446 Z" fill="#000000" fill-rule="evenodd" fill-opacity="1" /><path clip-path="url(#clip900)" d="M33.8307 771.321 Q33.2578 772.307 33.0032 773.485 Q32.7167 774.631 32.7167 776.031 Q32.7167 780.997 35.9632 783.67 Q39.1779 786.312 45.2253 786.312 L64.0042 786.312 L64.0042 792.2 L28.3562 792.2 L28.3562 786.312 L33.8944 786.312 Q30.6479 784.466 29.0883 781.506 Q27.4968 778.546 27.4968 774.313 Q27.4968 773.708 27.5923 772.976 Q27.656 772.244 27.8151 771.353 L33.8307 771.321 Z" fill="#000000" fill-rule="evenodd" fill-opacity="1" /><path clip-path="url(#clip900)" d="M14.5426 730.389 Q21.8632 734.654 29.0246 736.723 Q36.186 738.792 43.5384 738.792 Q50.8908 738.792 58.1159 736.723 Q65.3091 734.622 72.5979 730.389 L72.5979 735.482 Q65.1182 740.256 57.8931 742.643 Q50.668 744.999 43.5384 744.999 Q36.4406 744.999 29.2474 742.643 Q22.0542 740.288 14.5426 735.482 L14.5426 730.389 Z" fill="#000000" fill-rule="evenodd" fill-opacity="1" /><path clip-path="url(#clip900)" d="M16.4842 718.772 L16.4842 709.191 L48.8219 697.065 L16.4842 684.874 L16.4842 675.294 L64.0042 675.294 L64.0042 681.564 L22.277 681.564 L54.8694 693.818 L54.8694 700.28 L22.277 712.533 L64.0042 712.533 L64.0042 718.772 L16.4842 718.772 Z" fill="#000000" fill-rule="evenodd" fill-opacity="1" /><path clip-path="url(#clip900)" d="M16.4842 666.764 L16.4842 660.271 L56.6518 650.277 L16.4842 640.315 L16.4842 633.089 L56.6518 623.095 L16.4842 613.133 L16.4842 606.608 L64.0042 618.544 L64.0042 626.628 L22.7544 636.654 L64.0042 646.776 L64.0042 654.86 L16.4842 666.764 Z" fill="#000000" fill-rule="evenodd" fill-opacity="1" /><path clip-path="url(#clip900)" d="M14.5426 599.256 L14.5426 594.163 Q22.0542 589.389 29.2474 587.034 Q36.4406 584.646 43.5384 584.646 Q50.668 584.646 57.8931 587.034 Q65.1182 589.389 72.5979 594.163 L72.5979 599.256 Q65.3091 595.023 58.1159 592.954 Q50.8908 590.853 43.5384 590.853 Q36.186 590.853 29.0246 592.954 Q21.8632 595.023 14.5426 599.256 Z" fill="#000000" fill-rule="evenodd" fill-opacity="1" /><path clip-path="url(#clip900)" d="M975.123 18.8205 L975.123 41.5461 L985.412 41.5461 Q991.124 41.5461 994.243 38.5889 Q997.362 35.6318 997.362 30.163 Q997.362 24.7348 994.243 21.7777 Q991.124 18.8205 985.412 18.8205 L975.123 18.8205 M966.94 12.096 L985.412 12.096 Q995.58 12.096 1000.76 16.714 Q1005.99 21.2916 1005.99 30.163 Q1005.99 39.1155 1000.76 43.6931 Q995.58 48.2706 985.412 48.2706 L975.123 48.2706 L975.123 72.576 L966.94 72.576 L966.94 12.096 Z" fill="#000000" fill-rule="evenodd" fill-opacity="1" /><path clip-path="url(#clip900)" d="M1031.27 32.4315 Q1025.27 32.4315 1021.79 37.1306 Q1018.31 41.7891 1018.31 49.9314 Q1018.31 58.0738 1021.75 62.7728 Q1025.23 67.4314 1031.27 67.4314 Q1037.22 67.4314 1040.71 62.7323 Q1044.19 58.0333 1044.19 49.9314 Q1044.19 41.8701 1040.71 37.1711 Q1037.22 32.4315 1031.27 32.4315 M1031.27 26.1121 Q1040.99 26.1121 1046.54 32.4315 Q1052.09 38.7509 1052.09 49.9314 Q1052.09 61.0714 1046.54 67.4314 Q1040.99 73.7508 1031.27 73.7508 Q1021.51 73.7508 1015.96 67.4314 Q1010.45 61.0714 1010.45 49.9314 Q1010.45 38.7509 1015.96 32.4315 Q1021.51 26.1121 1031.27 26.1121 Z" fill="#000000" fill-rule="evenodd" fill-opacity="1" /><path clip-path="url(#clip900)" d="M1060.11 27.2059 L1067.56 27.2059 L1076.88 62.6108 L1086.16 27.2059 L1094.95 27.2059 L1104.27 62.6108 L1113.54 27.2059 L1121 27.2059 L1109.13 72.576 L1100.34 72.576 L1090.57 35.3887 L1080.77 72.576 L1071.98 72.576 L1060.11 27.2059 Z" fill="#000000" fill-rule="evenodd" fill-opacity="1" /><path clip-path="url(#clip900)" d="M1171.11 48.0275 L1171.11 51.6733 L1136.83 51.6733 Q1137.32 59.3701 1141.45 63.421 Q1145.63 67.4314 1153.04 67.4314 Q1157.33 67.4314 1161.34 66.3781 Q1165.39 65.3249 1169.36 63.2184 L1169.36 70.267 Q1165.35 71.9684 1161.14 72.8596 Q1156.93 73.7508 1152.59 73.7508 Q1141.74 73.7508 1135.38 67.4314 Q1129.06 61.1119 1129.06 50.3365 Q1129.06 39.1965 1135.05 32.6746 Q1141.09 26.1121 1151.3 26.1121 Q1160.45 26.1121 1165.76 32.0264 Q1171.11 37.9003 1171.11 48.0275 M1163.65 45.84 Q1163.57 39.7232 1160.21 36.0774 Q1156.89 32.4315 1151.38 32.4315 Q1145.14 32.4315 1141.37 35.9558 Q1137.65 39.4801 1137.08 45.8805 L1163.65 45.84 Z" fill="#000000" fill-rule="evenodd" fill-opacity="1" /><path clip-path="url(#clip900)" d="M1209.63 34.1734 Q1208.37 33.4443 1206.87 33.1202 Q1205.42 32.7556 1203.63 32.7556 Q1197.31 32.7556 1193.91 36.8875 Q1190.55 40.9789 1190.55 48.6757 L1190.55 72.576 L1183.06 72.576 L1183.06 27.2059 L1190.55 27.2059 L1190.55 34.2544 Q1192.9 30.1225 1196.67 28.1376 Q1200.43 26.1121 1205.82 26.1121 Q1206.59 26.1121 1207.52 26.2337 Q1208.45 26.3147 1209.59 26.5172 L1209.63 34.1734 Z" fill="#000000" fill-rule="evenodd" fill-opacity="1" /><path clip-path="url(#clip900)" d="M1266.79 9.54393 L1266.79 15.7418 L1259.66 15.7418 Q1255.65 15.7418 1254.07 17.3622 Q1252.53 18.9825 1252.53 23.1955 L1252.53 27.2059 L1264.8 27.2059 L1264.8 32.9987 L1252.53 32.9987 L1252.53 72.576 L1245.03 72.576 L1245.03 32.9987 L1237.9 32.9987 L1237.9 27.2059 L1245.03 27.2059 L1245.03 24.0462 Q1245.03 16.471 1248.56 13.0277 Q1252.08 9.54393 1259.74 9.54393 L1266.79 9.54393 Z" fill="#000000" fill-rule="evenodd" fill-opacity="1" /><path clip-path="url(#clip900)" d="M1273.03 9.54393 L1280.48 9.54393 L1280.48 72.576 L1273.03 72.576 L1273.03 9.54393 Z" fill="#000000" fill-rule="evenodd" fill-opacity="1" /><path clip-path="url(#clip900)" d="M1313.66 32.4315 Q1307.66 32.4315 1304.18 37.1306 Q1300.69 41.7891 1300.69 49.9314 Q1300.69 58.0738 1304.14 62.7728 Q1307.62 67.4314 1313.66 67.4314 Q1319.61 67.4314 1323.1 62.7323 Q1326.58 58.0333 1326.58 49.9314 Q1326.58 41.8701 1323.1 37.1711 Q1319.61 32.4315 1313.66 32.4315 M1313.66 26.1121 Q1323.38 26.1121 1328.93 32.4315 Q1334.48 38.7509 1334.48 49.9314 Q1334.48 61.0714 1328.93 67.4314 Q1323.38 73.7508 1313.66 73.7508 Q1303.89 73.7508 1298.34 67.4314 Q1292.84 61.0714 1292.84 49.9314 Q1292.84 38.7509 1298.34 32.4315 Q1303.89 26.1121 1313.66 26.1121 Z" fill="#000000" fill-rule="evenodd" fill-opacity="1" /><path clip-path="url(#clip900)" d="M1342.5 27.2059 L1349.95 27.2059 L1359.27 62.6108 L1368.55 27.2059 L1377.34 27.2059 L1386.65 62.6108 L1395.93 27.2059 L1403.38 27.2059 L1391.52 72.576 L1382.72 72.576 L1372.96 35.3887 L1363.16 72.576 L1354.37 72.576 L1342.5 27.2059 Z" fill="#000000" fill-rule="evenodd" fill-opacity="1" /><polyline clip-path="url(#clip902)" style="stroke:#009af9; stroke-linecap:round; stroke-linejoin:round; stroke-width:4; stroke-opacity:1; fill:none" points="232.599,1386.4 244.007,1386.4 255.415,1386.4 266.823,1386.4 278.231,1386.4 289.639,1386.4 301.047,1386.4 312.455,1386.4 323.863,1386.4 335.27,1386.4 346.678,1353.03 358.086,1269.63 369.494,1202.9 380.902,1152.86 392.31,1169.54 403.718,1302.99 415.126,1386.4 426.534,1386.4 437.942,1386.4 449.35,1386.4 460.758,1386.4 472.166,1386.4 483.574,1386.4 494.982,1386.4 506.39,1386.4 517.798,1386.4 529.205,1386.4 540.613,1386.4 552.021,1386.4 563.429,1386.4 574.837,1386.4 586.245,1386.4 597.653,1302.99 609.061,1202.9 620.469,952.689 631.877,919.326 643.285,902.645 654.693,1002.73 666.101,1236.27 677.509,1369.71 688.917,1386.4 700.325,1386.4 711.733,1386.4 723.14,1386.4 734.548,1386.4 745.956,1386.4 757.364,1386.4 768.772,1386.4 780.18,1386.4 791.588,1386.4 802.996,1386.4 814.404,1386.4 825.812,1386.4 837.22,1386.4 848.628,1386.4 860.036,1386.4 871.444,1386.4 882.852,1336.35 894.26,1319.67 905.668,1319.67 917.075,1336.35 928.483,1386.4 939.891,1386.4 951.299,1386.4 962.707,1386.4 974.115,1386.4 985.523,1386.4 996.931,1386.4 1008.34,1386.4 1019.75,1386.4 1031.15,1386.4 1042.56,1386.4 1053.97,1386.4 1065.38,1386.4 1076.79,1386.4 1088.19,1386.4 1099.6,1386.4 1111.01,1386.4 1122.42,1386.4 1133.83,1386.4 1145.23,1319.67 1156.64,1252.95 1168.05,1236.27 1179.46,1252.95 1190.87,1319.67 1202.27,1353.03 1213.68,1386.4 1225.09,1386.4 1236.5,1386.4 1247.91,1386.4 1259.31,1386.4 1270.72,1386.4 1282.13,1386.4 1293.54,1386.4 1304.95,1386.4 1316.35,1386.4 1327.76,1386.4 1339.17,1386.4 1350.58,1386.4 1361.99,1386.4 1373.39,1386.4 1384.8,1386.4 1396.21,1319.67 1407.62,1186.22 1419.02,969.37 1430.43,802.559 1441.84,685.792 1453.25,835.921 1464.66,1102.82 1476.06,1353.03 1487.47,1386.4 1498.88,1386.4 1510.29,1386.4 1521.7,1386.4 1533.1,1386.4 1544.51,1386.4 1555.92,1386.4 1567.33,1386.4 1578.74,1386.4 1590.14,1386.4 1601.55,1386.4 1612.96,1386.4 1624.37,1386.4 1635.78,1386.4 1647.18,1386.4 1658.59,1353.03 1670,1269.63 1681.41,1169.54 1692.82,1069.46 1704.22,1002.73 1715.63,1152.86 1727.04,1286.31 1738.45,1369.71 1749.86,1386.4 1761.26,1386.4 1772.67,1386.4 1784.08,1386.4 1795.49,1386.4 1806.89,1386.4 1818.3,1386.4 1829.71,1386.4 1841.12,1386.4 1852.53,1386.4 1863.93,1386.4 1875.34,1386.4 1886.75,1386.4 1898.16,1386.4 1909.57,1386.4 1920.97,1336.35 1932.38,1319.67 1943.79,1319.67 1955.2,1319.67 1966.61,1269.63 1978.01,1319.67 1989.42,1319.67 2000.83,1386.4 2012.24,1386.4 2023.65,1386.4 2035.05,1386.4 2046.46,1386.4 2057.87,1386.4 2069.28,1386.4 2080.69,1386.4 2092.09,1386.4 2103.5,1386.4 2114.91,1386.4 2126.32,1386.4 2137.73,1386.4 "/>
<polyline clip-path="url(#clip902)" style="stroke:#e26f46; stroke-linecap:round; stroke-linejoin:round; stroke-width:4; stroke-opacity:1; fill:none" points="232.599,530.653 244.007,501.276 255.415,447.952 266.823,392.712 278.231,358.865 289.639,295.323 301.047,295.004 312.455,310.011 323.863,361.1 335.27,595.791 346.678,488.823 358.086,429.752 369.494,463.279 380.902,456.573 392.31,372.596 403.718,335.875 415.126,289.576 426.534,265.628 437.942,261.796 449.35,262.115 460.758,259.242 472.166,243.595 483.574,263.393 494.982,288.618 506.39,1088.48 517.798,1043.14 529.205,1107.96 540.613,1119.14 552.021,1135.42 563.429,1150.43 574.837,1145 586.245,1144.36 597.653,1134.78 609.061,1139.89 620.469,1182.04 631.877,1171.18 643.285,1158.73 654.693,1185.55 666.101,1149.15 677.509,1083.05 688.917,1123.93 700.325,1155.54 711.733,1118.18 723.14,1125.52 734.548,1144.04 745.956,1181.4 757.364,1216.52 768.772,1204.39 780.18,445.078 791.588,376.427 802.996,328.212 814.404,302.348 825.812,269.14 837.22,283.509 848.628,334.279 860.036,360.781 871.444,368.445 882.852,373.873 894.26,364.613 905.668,361.1 917.075,389.2 928.483,414.744 939.891,423.685 951.299,458.808 962.707,484.353 974.115,541.509 985.523,515.964 996.931,501.915 1008.34,618.781 1019.75,569.289 1031.15,573.44 1042.56,644.645 1053.97,1161.92 1065.38,1114.98 1076.79,994.925 1088.19,941.92 1099.6,940.643 1111.01,977.363 1122.42,943.836 1133.83,945.113 1145.23,840.38 1156.64,722.237 1168.05,742.673 1179.46,561.945 1190.87,359.185 1202.27,276.803 1213.68,230.823 1225.09,174.625 1236.5,183.246 1247.91,188.355 1259.31,182.608 1270.72,160.256 1282.13,172.071 1293.54,185.162 1304.95,219.647 1316.35,175.902 1327.76,395.266 1339.17,332.363 1350.58,394.628 1361.99,403.568 1373.39,547.895 1384.8,522.67 1396.21,527.779 1407.62,631.234 1419.02,503.511 1430.43,443.482 1441.84,399.098 1453.25,391.435 1464.66,428.794 1476.06,489.462 1487.47,497.125 1498.88,528.417 1510.29,589.405 1521.7,656.14 1533.1,719.682 1544.51,803.979 1555.92,788.653 1567.33,868.48 1578.74,960.44 1590.14,1039.63 1601.55,1071.24 1612.96,1016 1624.37,962.356 1635.78,912.544 1647.18,924.678 1658.59,813.239 1670,759.596 1681.41,638.578 1692.82,614.95 1704.22,574.398 1715.63,484.992 1727.04,433.264 1738.45,470.623 1749.86,450.187 1761.26,535.123 1772.67,472.219 1784.08,570.566 1795.49,666.997 1806.89,688.39 1818.3,690.945 1829.71,711.38 1841.12,671.786 1852.53,675.618 1863.93,727.026 1875.34,367.487 1886.75,228.588 1898.16,183.566 1909.57,186.759 1920.97,186.439 1932.38,191.229 1943.79,176.86 1955.2,174.306 1966.61,181.011 1978.01,176.222 1989.42,169.516 2000.83,168.558 2012.24,165.365 2023.65,162.172 2035.05,161.534 2046.46,160.576 2057.87,193.145 2069.28,202.724 2080.69,228.907 2092.09,218.69 2103.5,277.442 2114.91,406.761 2126.32,706.91 2137.73,818.348 "/>
<polyline clip-path="url(#clip902)" style="stroke:#3da44d; stroke-linecap:round; stroke-linejoin:round; stroke-width:4; stroke-opacity:1; fill:none" points="232.599,1386.4 244.007,1386.4 255.415,1386.4 266.823,1386.4 278.231,1386.4 289.639,1386.4 301.047,1386.4 312.455,1386.4 323.863,1386.4 335.27,1386.4 346.678,1386.4 358.086,1386.4 369.494,1386.4 380.902,1386.4 392.31,1386.4 403.718,1386.4 415.126,1386.4 426.534,1386.4 437.942,1386.4 449.35,1386.4 460.758,1386.4 472.166,1386.4 483.574,1386.4 494.982,1386.4 506.39,1386.4 517.798,1386.4 529.205,1386.4 540.613,1386.4 552.021,1386.4 563.429,1386.4 574.837,1386.4 586.245,1386.4 597.653,1386.4 609.061,1386.4 620.469,1386.4 631.877,1386.4 643.285,1386.4 654.693,1386.4 666.101,1386.4 677.509,1386.4 688.917,1386.4 700.325,1386.4 711.733,1386.4 723.14,1386.4 734.548,1386.4 745.956,1386.4 757.364,1386.4 768.772,1386.4 780.18,1386.4 791.588,1386.4 802.996,1386.4 814.404,1386.4 825.812,1386.4 837.22,1386.4 848.628,1386.4 860.036,1386.4 871.444,1386.4 882.852,1386.4 894.26,1386.4 905.668,1386.4 917.075,1386.4 928.483,1386.4 939.891,1386.4 951.299,1386.4 962.707,1386.4 974.115,1386.4 985.523,1386.4 996.931,1386.4 1008.34,1386.4 1019.75,1386.4 1031.15,1386.4 1042.56,1386.4 1053.97,1386.4 1065.38,1386.4 1076.79,1386.4 1088.19,1386.4 1099.6,1386.4 1111.01,1386.4 1122.42,1386.4 1133.83,1386.4 1145.23,1386.4 1156.64,1386.4 1168.05,1386.4 1179.46,1386.4 1190.87,1386.4 1202.27,1386.4 1213.68,1386.4 1225.09,1386.4 1236.5,1386.4 1247.91,1386.4 1259.31,1386.4 1270.72,1386.4 1282.13,1386.4 1293.54,1386.4 1304.95,1386.4 1316.35,1386.4 1327.76,1386.4 1339.17,1386.4 1350.58,1386.4 1361.99,1386.4 1373.39,1386.4 1384.8,1386.4 1396.21,1386.4 1407.62,1386.4 1419.02,1386.4 1430.43,1386.4 1441.84,1386.4 1453.25,1386.4 1464.66,1386.4 1476.06,1386.4 1487.47,1386.4 1498.88,1386.4 1510.29,1386.4 1521.7,1386.4 1533.1,1386.4 1544.51,1386.4 1555.92,1386.4 1567.33,1386.4 1578.74,1386.4 1590.14,1386.4 1601.55,1386.4 1612.96,1386.4 1624.37,1386.4 1635.78,1386.4 1647.18,1386.4 1658.59,1386.4 1670,1386.4 1681.41,1386.4 1692.82,1386.4 1704.22,1386.4 1715.63,1386.4 1727.04,1386.4 1738.45,1386.4 1749.86,1386.4 1761.26,1386.4 1772.67,1386.4 1784.08,1386.4 1795.49,1386.4 1806.89,1386.4 1818.3,1386.4 1829.71,1386.4 1841.12,1386.4 1852.53,1386.4 1863.93,1386.4 1875.34,1386.4 1886.75,1386.4 1898.16,1386.4 1909.57,1386.4 1920.97,1386.4 1932.38,1386.4 1943.79,1386.4 1955.2,1386.4 1966.61,1386.4 1978.01,1386.4 1989.42,1386.4 2000.83,1386.4 2012.24,1386.4 2023.65,1386.4 2035.05,1386.4 2046.46,1386.4 2057.87,1386.4 2069.28,1386.4 2080.69,1386.4 2092.09,1386.4 2103.5,1386.4 2114.91,1386.4 2126.32,1386.4 2137.73,1386.4 "/>
<polyline clip-path="url(#clip902)" style="stroke:#c271d2; stroke-linecap:round; stroke-linejoin:round; stroke-width:4; stroke-opacity:1; fill:none" points="232.599,1386.4 244.007,1386.4 255.415,1386.4 266.823,1386.4 278.231,1269.85 289.639,1333.39 301.047,1386.4 312.455,1386.4 323.863,1267.61 335.27,1250.31 346.678,1386.4 358.086,1386.4 369.494,1386.4 380.902,1386.4 392.31,1386.4 403.718,1386.4 415.126,1386.4 426.534,1386.4 437.942,1386.4 449.35,1366.6 460.758,1386.4 472.166,1385.12 483.574,1386.4 494.982,1386.4 506.39,540.232 517.798,585.573 529.205,520.754 540.613,509.578 552.021,493.294 563.429,868.951 574.837,874.379 586.245,875.018 597.653,1386.4 609.061,1386.4 620.469,1386.4 631.877,1386.4 643.285,1344.4 654.693,1217.49 666.101,1020.36 677.509,953.006 688.917,1008.92 700.325,1386.4 711.733,901.201 723.14,893.857 734.548,875.337 745.956,837.978 757.364,412.19 768.772,618.238 780.18,1183.64 791.588,1252.29 802.996,1300.5 814.404,1326.37 825.812,1359.57 837.22,1345.21 848.628,1386.4 860.036,1386.4 871.444,1386.4 882.852,1386.4 894.26,1386.4 905.668,1386.4 917.075,1386.4 928.483,1386.4 939.891,1205.03 951.299,1386.4 962.707,1386.4 974.115,1386.4 985.523,1386.4 996.931,1320.71 1008.34,1009.93 1019.75,1386.4 1031.15,1055.27 1042.56,984.069 1053.97,466.791 1065.38,513.729 1076.79,633.789 1088.19,686.794 1099.6,1078.74 1111.01,1270.83 1122.42,1386.4 1133.83,1386.4 1145.23,1386.4 1156.64,1386.4 1168.05,1386.4 1179.46,1386.4 1190.87,1386.4 1202.27,1386.4 1213.68,1386.4 1225.09,1386.4 1236.5,1386.4 1247.91,1386.4 1259.31,1386.4 1270.72,1386.4 1282.13,1386.4 1293.54,1386.4 1304.95,1386.4 1316.35,1386.4 1327.76,1233.45 1339.17,1296.35 1350.58,1234.09 1361.99,1386.4 1373.39,1386.4 1384.8,1386.4 1396.21,1386.4 1407.62,1386.4 1419.02,1386.4 1430.43,1386.4 1441.84,1386.4 1453.25,1386.4 1464.66,1386.4 1476.06,1386.4 1487.47,1386.4 1498.88,1386.4 1510.29,1386.4 1521.7,1363.24 1533.1,909.032 1544.51,1215.4 1555.92,876.929 1567.33,1150.9 1578.74,668.274 1590.14,589.086 1601.55,557.474 1612.96,612.715 1624.37,666.358 1635.78,1106.83 1647.18,1386.4 1658.59,1386.4 1670,1386.4 1681.41,1386.4 1692.82,1386.4 1704.22,1386.4 1715.63,1386.4 1727.04,1386.4 1738.45,1386.4 1749.86,1386.4 1761.26,1386.4 1772.67,1386.4 1784.08,1386.4 1795.49,1352.38 1806.89,1330.99 1818.3,1240.38 1829.71,1308 1841.12,1347.59 1852.53,1343.76 1863.93,901.687 1875.34,1261.23 1886.75,1386.4 1898.16,1386.4 1909.57,1386.4 1920.97,1386.4 1932.38,1386.4 1943.79,1386.4 1955.2,1386.4 1966.61,1386.4 1978.01,1386.4 1989.42,1386.4 2000.83,1386.4 2012.24,1386.4 2023.65,1386.4 2035.05,1386.4 2046.46,1386.4 2057.87,1386.4 2069.28,1386.4 2080.69,1386.4 2092.09,1386.4 2103.5,1351.27 2114.91,1386.4 2126.32,1312.47 2137.73,810.366 "/>
<polyline clip-path="url(#clip902)" style="stroke:#ac8d18; stroke-linecap:round; stroke-linejoin:round; stroke-width:4; stroke-opacity:1; fill:none" points="232.599,645.06 244.007,615.684 255.415,1086.96 266.823,1146.12 278.231,1386.4 289.639,1386.4 301.047,1048.42 312.455,1063.42 323.863,1386.4 335.27,1386.4 346.678,1208.87 358.086,427.392 369.494,1033.2 380.902,976.451 392.31,909.154 403.718,1005.88 415.126,1042.99 426.534,380.035 437.942,1015.21 449.35,1386.4 460.758,1012.65 472.166,1386.4 483.574,1016.8 494.982,1238.78 506.39,1386.4 517.798,1386.4 529.205,1386.4 540.613,1386.4 552.021,1386.4 563.429,1386.4 574.837,1386.4 586.245,1386.4 597.653,1165.78 609.061,1070.81 620.469,1386.4 631.877,818.521 643.285,1386.4 654.693,1386.4 666.101,1386.4 677.509,1386.4 688.917,1386.4 700.325,1269.94 711.733,1386.4 723.14,1386.4 734.548,1386.4 745.956,1386.4 757.364,1386.4 768.772,1386.4 780.18,1386.4 791.588,1386.4 802.996,1386.4 814.404,1386.4 825.812,1386.4 837.22,1386.4 848.628,1087.69 860.036,1114.19 871.444,1121.86 882.852,1077.24 894.26,412.296 905.668,305.817 917.075,1092.57 928.483,1168.16 939.891,1386.4 951.299,573.216 962.707,598.761 974.115,809.382 985.523,1269.38 996.931,1386.4 1008.34,1386.4 1019.75,1322.7 1031.15,1386.4 1042.56,1386.4 1053.97,1386.4 1065.38,1386.4 1076.79,1386.4 1088.19,1386.4 1099.6,1386.4 1111.01,1386.4 1122.42,1058.24 1133.83,1059.52 1145.23,888.064 1156.64,703.196 1168.05,1345.96 1179.46,1181.91 1190.87,1045.87 1202.27,1278.83 1213.68,1374.9 1225.09,289.033 1236.5,936.659 1247.91,941.768 1259.31,936.02 1270.72,1110.42 1282.13,1316.15 1293.54,1329.24 1304.95,1363.72 1316.35,1319.98 1327.76,1386.4 1339.17,1386.4 1350.58,1386.4 1361.99,1156.98 1373.39,1301.31 1384.8,637.078 1396.21,575.462 1407.62,545.47 1419.02,839.898 1430.43,1003.72 1441.84,842.572 1453.25,917.457 1464.66,898.628 1476.06,570.508 1487.47,611.533 1498.88,642.825 1510.29,1342.82 1521.7,1386.4 1533.1,1386.4 1544.51,1386.4 1555.92,1386.4 1567.33,1386.4 1578.74,1386.4 1590.14,1386.4 1601.55,1386.4 1612.96,1386.4 1624.37,1386.4 1635.78,1386.4 1647.18,1386.4 1658.59,894.285 1670,757.236 1681.41,536.133 1692.82,1051.42 1704.22,944.146 1715.63,1004.87 1727.04,1386.4 1738.45,1207.35 1749.86,564.595 1761.26,1288.54 1772.67,1225.63 1784.08,1323.98 1795.49,1386.4 1806.89,1386.4 1818.3,1386.4 1829.71,1386.4 1841.12,1386.4 1852.53,1386.4 1863.93,1386.4 1875.34,1386.4 1886.75,1372.67 1898.16,1327.64 1909.57,1330.84 1920.97,889.809 1932.38,877.917 1943.79,863.549 1955.2,860.994 1966.61,817.656 1978.01,862.91 1989.42,856.204 2000.83,921.971 2012.24,279.773 2023.65,915.585 2035.05,914.946 2046.46,913.988 2057.87,946.557 2069.28,1346.8 2080.69,1372.98 2092.09,972.102 2103.5,1386.4 2114.91,1160.17 2126.32,1386.4 2137.73,1386.4 "/>
<polyline clip-path="url(#clip902)" style="stroke:#00a9ad; stroke-linecap:round; stroke-linejoin:round; stroke-width:4; stroke-opacity:1; fill:none" points="232.599,1271.99 244.007,1271.99 255.415,747.391 266.823,632.983 278.231,242.318 289.639,242.318 301.047,632.983 312.455,632.983 323.863,242.318 335.27,459.705 346.678,632.983 358.086,1271.99 369.494,632.983 380.902,632.983 392.31,632.983 403.718,632.983 415.126,632.983 426.534,1271.99 437.942,632.983 449.35,242.318 460.758,632.983 472.166,242.318 483.574,632.983 494.982,436.233 506.39,242.318 517.798,242.318 529.205,242.318 540.613,242.318 552.021,242.318 563.429,632.983 574.837,632.983 586.245,632.983 597.653,1271.99 609.061,1271.99 620.469,748.332 631.877,1271.99 643.285,632.983 654.693,632.983 666.101,632.983 677.509,632.983 688.917,746.45 700.325,1271.99 711.733,632.983 723.14,632.983 734.548,632.983 745.956,632.983 757.364,242.318 768.772,436.233 780.18,242.318 791.588,242.318 802.996,242.318 814.404,242.318 825.812,242.318 837.22,242.318 848.628,632.983 860.036,632.983 871.444,632.983 882.852,632.983 894.26,1271.99 905.668,1374.95 917.075,632.983 928.483,632.983 939.891,242.318 951.299,1271.99 962.707,1271.99 974.115,1118.52 985.523,632.983 996.931,436.233 1008.34,242.318 1019.75,632.983 1031.15,242.318 1042.56,242.318 1053.97,242.318 1065.38,242.318 1076.79,242.318 1088.19,242.318 1099.6,632.983 1111.01,861.799 1122.42,1271.99 1133.83,1271.99 1145.23,1271.99 1156.64,1271.99 1168.05,632.983 1179.46,632.983 1190.87,632.983 1202.27,351.012 1213.68,242.318 1225.09,1271.99 1236.5,632.983 1247.91,632.983 1259.31,632.983 1270.72,436.233 1282.13,242.318 1293.54,242.318 1304.95,242.318 1316.35,242.318 1327.76,242.318 1339.17,242.318 1350.58,242.318 1361.99,632.983 1373.39,632.983 1384.8,1271.99 1396.21,1271.99 1407.62,1271.99 1419.02,632.983 1430.43,242.318 1441.84,242.318 1453.25,309.898 1464.66,632.983 1476.06,1271.99 1487.47,1271.99 1498.88,1271.99 1510.29,632.983 1521.7,632.983 1533.1,242.318 1544.51,632.983 1555.92,279.186 1567.33,632.983 1578.74,242.318 1590.14,242.318 1601.55,242.318 1612.96,242.318 1624.37,242.318 1635.78,632.983 1647.18,924.678 1658.59,1271.99 1670,1271.99 1681.41,1271.99 1692.82,632.983 1704.22,632.983 1715.63,632.983 1727.04,333.178 1738.45,632.983 1749.86,1271.99 1761.26,632.983 1772.67,632.983 1784.08,632.983 1795.49,632.983 1806.89,632.983 1818.3,544.927 1829.71,632.983 1841.12,632.983 1852.53,632.983 1863.93,242.318 1875.34,242.318 1886.75,242.318 1898.16,242.318 1909.57,242.318 1920.97,632.983 1932.38,632.983 1943.79,632.983 1955.2,632.983 1966.61,632.983 1978.01,632.983 1989.42,632.983 2000.83,632.983 2012.24,1271.99 2023.65,632.983 2035.05,632.983 2046.46,632.983 2057.87,632.983 2069.28,242.318 2080.69,242.318 2092.09,632.983 2103.5,242.318 2114.91,632.983 2126.32,632.983 2137.73,242.318 "/>
<path clip-path="url(#clip900)" d="M242.76 302.876 L579.442 302.876 L579.442 166.796 L242.76 166.796  Z" fill="#ffffff" fill-rule="evenodd" fill-opacity="1"/>
<polyline clip-path="url(#clip900)" style="stroke:#000000; stroke-linecap:round; stroke-linejoin:round; stroke-width:4; stroke-opacity:1; fill:none" points="242.76,302.876 579.442,302.876 579.442,166.796 242.76,166.796 242.76,302.876 "/>
<polyline clip-path="url(#clip900)" style="stroke:#009af9; stroke-linecap:round; stroke-linejoin:round; stroke-width:1.5; stroke-opacity:1; fill:none" points="265.198,186.236 399.827,186.236 "/>
<path clip-path="url(#clip900)" d="M430.607 180.181 L430.607 181.891 Q429.609 181.414 428.723 181.179 Q427.838 180.945 427.013 180.945 Q425.581 180.945 424.8 181.5 Q424.027 182.056 424.027 183.08 Q424.027 183.94 424.539 184.382 Q425.06 184.816 426.501 185.086 L427.56 185.303 Q429.522 185.676 430.451 186.622 Q431.388 187.559 431.388 189.139 Q431.388 191.023 430.121 191.995 Q428.862 192.967 426.423 192.967 Q425.503 192.967 424.461 192.759 Q423.428 192.551 422.317 192.143 L422.317 190.337 Q423.385 190.936 424.409 191.24 Q425.433 191.544 426.423 191.544 Q427.925 191.544 428.741 190.954 Q429.557 190.363 429.557 189.27 Q429.557 188.315 428.966 187.777 Q428.385 187.238 427.048 186.969 L425.98 186.761 Q424.018 186.37 423.142 185.537 Q422.265 184.704 422.265 183.219 Q422.265 181.5 423.471 180.511 Q424.687 179.521 426.813 179.521 Q427.725 179.521 428.671 179.686 Q429.617 179.851 430.607 180.181 Z" fill="#000000" fill-rule="evenodd" fill-opacity="1" /><path clip-path="url(#clip900)" d="M437.82 184.113 Q436.536 184.113 435.789 185.12 Q435.043 186.119 435.043 187.863 Q435.043 189.608 435.78 190.615 Q436.527 191.613 437.82 191.613 Q439.096 191.613 439.843 190.606 Q440.589 189.599 440.589 187.863 Q440.589 186.136 439.843 185.129 Q439.096 184.113 437.82 184.113 M437.82 182.759 Q439.904 182.759 441.093 184.113 Q442.282 185.467 442.282 187.863 Q442.282 190.25 441.093 191.613 Q439.904 192.967 437.82 192.967 Q435.728 192.967 434.539 191.613 Q433.359 190.25 433.359 187.863 Q433.359 185.467 434.539 184.113 Q435.728 182.759 437.82 182.759 Z" fill="#000000" fill-rule="evenodd" fill-opacity="1" /><path clip-path="url(#clip900)" d="M444.93 179.209 L446.527 179.209 L446.527 192.716 L444.93 192.716 L444.93 179.209 Z" fill="#000000" fill-rule="evenodd" fill-opacity="1" /><path clip-path="url(#clip900)" d="M454.287 187.829 Q452.352 187.829 451.605 188.271 Q450.858 188.714 450.858 189.782 Q450.858 190.632 451.414 191.136 Q451.978 191.631 452.942 191.631 Q454.27 191.631 455.069 190.693 Q455.876 189.747 455.876 188.184 L455.876 187.829 L454.287 187.829 M457.473 187.169 L457.473 192.716 L455.876 192.716 L455.876 191.24 Q455.329 192.125 454.513 192.551 Q453.697 192.967 452.516 192.967 Q451.023 192.967 450.138 192.134 Q449.261 191.292 449.261 189.886 Q449.261 188.245 450.355 187.412 Q451.457 186.579 453.636 186.579 L455.876 186.579 L455.876 186.422 Q455.876 185.32 455.147 184.721 Q454.426 184.113 453.115 184.113 Q452.282 184.113 451.492 184.313 Q450.702 184.513 449.973 184.912 L449.973 183.436 Q450.85 183.098 451.674 182.933 Q452.499 182.759 453.28 182.759 Q455.39 182.759 456.431 183.853 Q457.473 184.947 457.473 187.169 Z" fill="#000000" fill-rule="evenodd" fill-opacity="1" /><path clip-path="url(#clip900)" d="M466.397 184.487 Q466.128 184.33 465.806 184.261 Q465.494 184.183 465.112 184.183 Q463.758 184.183 463.029 185.068 Q462.308 185.945 462.308 187.594 L462.308 192.716 L460.702 192.716 L460.702 182.994 L462.308 182.994 L462.308 184.504 Q462.812 183.619 463.619 183.193 Q464.426 182.759 465.581 182.759 Q465.746 182.759 465.945 182.785 Q466.145 182.803 466.388 182.846 L466.397 184.487 Z" fill="#000000" fill-rule="evenodd" fill-opacity="1" /><polyline clip-path="url(#clip900)" style="stroke:#e26f46; stroke-linecap:round; stroke-linejoin:round; stroke-width:1.5; stroke-opacity:1; fill:none" points="265.198,205.676 399.827,205.676 "/>
<path clip-path="url(#clip900)" d="M422.265 199.196 L424.036 199.196 L426.761 210.151 L429.478 199.196 L431.449 199.196 L434.175 210.151 L436.892 199.196 L438.671 199.196 L435.416 212.156 L433.211 212.156 L430.477 200.906 L427.716 212.156 L425.511 212.156 L422.265 199.196 Z" fill="#000000" fill-rule="evenodd" fill-opacity="1" /><path clip-path="url(#clip900)" d="M440.537 202.434 L442.135 202.434 L442.135 212.156 L440.537 212.156 L440.537 202.434 M440.537 198.649 L442.135 198.649 L442.135 200.671 L440.537 200.671 L440.537 198.649 Z" fill="#000000" fill-rule="evenodd" fill-opacity="1" /><path clip-path="url(#clip900)" d="M453.558 206.288 L453.558 212.156 L451.961 212.156 L451.961 206.34 Q451.961 204.96 451.423 204.274 Q450.885 203.588 449.808 203.588 Q448.515 203.588 447.768 204.413 Q447.022 205.237 447.022 206.661 L447.022 212.156 L445.416 212.156 L445.416 202.434 L447.022 202.434 L447.022 203.944 Q447.595 203.067 448.367 202.633 Q449.148 202.199 450.164 202.199 Q451.839 202.199 452.699 203.241 Q453.558 204.274 453.558 206.288 Z" fill="#000000" fill-rule="evenodd" fill-opacity="1" /><path clip-path="url(#clip900)" d="M463.141 203.909 L463.141 198.649 L464.739 198.649 L464.739 212.156 L463.141 212.156 L463.141 210.697 Q462.638 211.565 461.865 211.991 Q461.101 212.407 460.025 212.407 Q458.263 212.407 457.152 211.001 Q456.049 209.595 456.049 207.303 Q456.049 205.012 457.152 203.605 Q458.263 202.199 460.025 202.199 Q461.101 202.199 461.865 202.625 Q462.638 203.041 463.141 203.909 M457.699 207.303 Q457.699 209.065 458.419 210.072 Q459.148 211.071 460.416 211.071 Q461.683 211.071 462.412 210.072 Q463.141 209.065 463.141 207.303 Q463.141 205.541 462.412 204.543 Q461.683 203.536 460.416 203.536 Q459.148 203.536 458.419 204.543 Q457.699 205.541 457.699 207.303 Z" fill="#000000" fill-rule="evenodd" fill-opacity="1" /><path clip-path="url(#clip900)" d="M477.516 198.666 Q476.353 200.663 475.789 202.616 Q475.225 204.569 475.225 206.574 Q475.225 208.579 475.789 210.55 Q476.362 212.512 477.516 214.499 L476.127 214.499 Q474.825 212.46 474.174 210.489 Q473.532 208.519 473.532 206.574 Q473.532 204.638 474.174 202.677 Q474.817 200.715 476.127 198.666 L477.516 198.666 Z" fill="#000000" fill-rule="evenodd" fill-opacity="1" /><path clip-path="url(#clip900)" d="M484.383 203.553 Q483.098 203.553 482.351 204.56 Q481.605 205.559 481.605 207.303 Q481.605 209.048 482.343 210.055 Q483.089 211.053 484.383 211.053 Q485.659 211.053 486.405 210.046 Q487.152 209.039 487.152 207.303 Q487.152 205.576 486.405 204.569 Q485.659 203.553 484.383 203.553 M484.383 202.199 Q486.466 202.199 487.655 203.553 Q488.844 204.907 488.844 207.303 Q488.844 209.69 487.655 211.053 Q486.466 212.407 484.383 212.407 Q482.291 212.407 481.101 211.053 Q479.921 209.69 479.921 207.303 Q479.921 204.907 481.101 203.553 Q482.291 202.199 484.383 202.199 Z" fill="#000000" fill-rule="evenodd" fill-opacity="1" /><path clip-path="url(#clip900)" d="M499.574 206.288 L499.574 212.156 L497.976 212.156 L497.976 206.34 Q497.976 204.96 497.438 204.274 Q496.9 203.588 495.824 203.588 Q494.53 203.588 493.784 204.413 Q493.037 205.237 493.037 206.661 L493.037 212.156 L491.431 212.156 L491.431 202.434 L493.037 202.434 L493.037 203.944 Q493.61 203.067 494.383 202.633 Q495.164 202.199 496.179 202.199 Q497.855 202.199 498.714 203.241 Q499.574 204.274 499.574 206.288 Z" fill="#000000" fill-rule="evenodd" fill-opacity="1" /><path clip-path="url(#clip900)" d="M508.957 202.72 L508.957 204.23 Q508.28 203.883 507.551 203.71 Q506.822 203.536 506.04 203.536 Q504.851 203.536 504.252 203.901 Q503.662 204.265 503.662 204.994 Q503.662 205.55 504.087 205.871 Q504.513 206.184 505.797 206.47 L506.344 206.592 Q508.046 206.956 508.757 207.624 Q509.478 208.284 509.478 209.473 Q509.478 210.828 508.402 211.618 Q507.334 212.407 505.459 212.407 Q504.678 212.407 503.827 212.251 Q502.985 212.104 502.047 211.8 L502.047 210.151 Q502.933 210.611 503.792 210.845 Q504.652 211.071 505.494 211.071 Q506.622 211.071 507.23 210.689 Q507.837 210.298 507.837 209.595 Q507.837 208.944 507.395 208.597 Q506.961 208.249 505.476 207.928 L504.921 207.798 Q503.436 207.486 502.777 206.843 Q502.117 206.192 502.117 205.064 Q502.117 203.692 503.089 202.946 Q504.061 202.199 505.85 202.199 Q506.735 202.199 507.516 202.329 Q508.297 202.46 508.957 202.72 Z" fill="#000000" fill-rule="evenodd" fill-opacity="1" /><path clip-path="url(#clip900)" d="M520.103 206.288 L520.103 212.156 L518.506 212.156 L518.506 206.34 Q518.506 204.96 517.968 204.274 Q517.429 203.588 516.353 203.588 Q515.06 203.588 514.313 204.413 Q513.566 205.237 513.566 206.661 L513.566 212.156 L511.961 212.156 L511.961 198.649 L513.566 198.649 L513.566 203.944 Q514.139 203.067 514.912 202.633 Q515.693 202.199 516.709 202.199 Q518.384 202.199 519.244 203.241 Q520.103 204.274 520.103 206.288 Z" fill="#000000" fill-rule="evenodd" fill-opacity="1" /><path clip-path="url(#clip900)" d="M527.056 203.553 Q525.771 203.553 525.025 204.56 Q524.278 205.559 524.278 207.303 Q524.278 209.048 525.016 210.055 Q525.763 211.053 527.056 211.053 Q528.332 211.053 529.079 210.046 Q529.825 209.039 529.825 207.303 Q529.825 205.576 529.079 204.569 Q528.332 203.553 527.056 203.553 M527.056 202.199 Q529.139 202.199 530.329 203.553 Q531.518 204.907 531.518 207.303 Q531.518 209.69 530.329 211.053 Q529.139 212.407 527.056 212.407 Q524.964 212.407 523.775 211.053 Q522.594 209.69 522.594 207.303 Q522.594 204.907 523.775 203.553 Q524.964 202.199 527.056 202.199 Z" fill="#000000" fill-rule="evenodd" fill-opacity="1" /><path clip-path="url(#clip900)" d="M539.799 203.927 Q539.53 203.77 539.209 203.701 Q538.896 203.623 538.514 203.623 Q537.16 203.623 536.431 204.508 Q535.71 205.385 535.71 207.034 L535.71 212.156 L534.105 212.156 L534.105 202.434 L535.71 202.434 L535.71 203.944 Q536.214 203.059 537.021 202.633 Q537.829 202.199 538.983 202.199 Q539.148 202.199 539.348 202.225 Q539.547 202.243 539.79 202.286 L539.799 203.927 Z" fill="#000000" fill-rule="evenodd" fill-opacity="1" /><path clip-path="url(#clip900)" d="M549.4 206.895 L549.4 207.677 L542.056 207.677 Q542.16 209.326 543.045 210.194 Q543.94 211.053 545.528 211.053 Q546.448 211.053 547.308 210.828 Q548.176 210.602 549.026 210.151 L549.026 211.661 Q548.167 212.026 547.264 212.216 Q546.361 212.407 545.433 212.407 Q543.106 212.407 541.743 211.053 Q540.389 209.699 540.389 207.39 Q540.389 205.003 541.674 203.605 Q542.967 202.199 545.155 202.199 Q547.117 202.199 548.254 203.467 Q549.4 204.725 549.4 206.895 M547.802 206.427 Q547.785 205.116 547.065 204.335 Q546.353 203.553 545.172 203.553 Q543.835 203.553 543.028 204.309 Q542.23 205.064 542.108 206.435 L547.802 206.427 Z" fill="#000000" fill-rule="evenodd" fill-opacity="1" /><path clip-path="url(#clip900)" d="M551.769 198.666 L553.158 198.666 Q554.46 200.715 555.103 202.677 Q555.754 204.638 555.754 206.574 Q555.754 208.519 555.103 210.489 Q554.46 212.46 553.158 214.499 L551.769 214.499 Q552.924 212.512 553.488 210.55 Q554.061 208.579 554.061 206.574 Q554.061 204.569 553.488 202.616 Q552.924 200.663 551.769 198.666 Z" fill="#000000" fill-rule="evenodd" fill-opacity="1" /><polyline clip-path="url(#clip900)" style="stroke:#3da44d; stroke-linecap:round; stroke-linejoin:round; stroke-width:1.5; stroke-opacity:1; fill:none" points="265.198,225.116 399.827,225.116 "/>
<path clip-path="url(#clip900)" d="M422.265 218.636 L424.036 218.636 L426.761 229.591 L429.478 218.636 L431.449 218.636 L434.175 229.591 L436.892 218.636 L438.671 218.636 L435.416 231.596 L433.211 231.596 L430.477 220.346 L427.716 231.596 L425.511 231.596 L422.265 218.636 Z" fill="#000000" fill-rule="evenodd" fill-opacity="1" /><path clip-path="url(#clip900)" d="M440.537 221.874 L442.135 221.874 L442.135 231.596 L440.537 231.596 L440.537 221.874 M440.537 218.089 L442.135 218.089 L442.135 220.111 L440.537 220.111 L440.537 218.089 Z" fill="#000000" fill-rule="evenodd" fill-opacity="1" /><path clip-path="url(#clip900)" d="M453.558 225.728 L453.558 231.596 L451.961 231.596 L451.961 225.78 Q451.961 224.4 451.423 223.714 Q450.885 223.028 449.808 223.028 Q448.515 223.028 447.768 223.853 Q447.022 224.677 447.022 226.101 L447.022 231.596 L445.416 231.596 L445.416 221.874 L447.022 221.874 L447.022 223.384 Q447.595 222.507 448.367 222.073 Q449.148 221.639 450.164 221.639 Q451.839 221.639 452.699 222.681 Q453.558 223.714 453.558 225.728 Z" fill="#000000" fill-rule="evenodd" fill-opacity="1" /><path clip-path="url(#clip900)" d="M463.141 223.349 L463.141 218.089 L464.739 218.089 L464.739 231.596 L463.141 231.596 L463.141 230.137 Q462.638 231.005 461.865 231.431 Q461.101 231.847 460.025 231.847 Q458.263 231.847 457.152 230.441 Q456.049 229.035 456.049 226.743 Q456.049 224.452 457.152 223.045 Q458.263 221.639 460.025 221.639 Q461.101 221.639 461.865 222.065 Q462.638 222.481 463.141 223.349 M457.699 226.743 Q457.699 228.505 458.419 229.512 Q459.148 230.511 460.416 230.511 Q461.683 230.511 462.412 229.512 Q463.141 228.505 463.141 226.743 Q463.141 224.981 462.412 223.983 Q461.683 222.976 460.416 222.976 Q459.148 222.976 458.419 223.983 Q457.699 224.981 457.699 226.743 Z" fill="#000000" fill-rule="evenodd" fill-opacity="1" /><path clip-path="url(#clip900)" d="M477.516 218.106 Q476.353 220.103 475.789 222.056 Q475.225 224.009 475.225 226.014 Q475.225 228.019 475.789 229.99 Q476.362 231.952 477.516 233.939 L476.127 233.939 Q474.825 231.9 474.174 229.929 Q473.532 227.959 473.532 226.014 Q473.532 224.078 474.174 222.117 Q474.817 220.155 476.127 218.106 L477.516 218.106 Z" fill="#000000" fill-rule="evenodd" fill-opacity="1" /><path clip-path="url(#clip900)" d="M484.383 222.993 Q483.098 222.993 482.351 224 Q481.605 224.999 481.605 226.743 Q481.605 228.488 482.343 229.495 Q483.089 230.493 484.383 230.493 Q485.659 230.493 486.405 229.486 Q487.152 228.479 487.152 226.743 Q487.152 225.016 486.405 224.009 Q485.659 222.993 484.383 222.993 M484.383 221.639 Q486.466 221.639 487.655 222.993 Q488.844 224.347 488.844 226.743 Q488.844 229.13 487.655 230.493 Q486.466 231.847 484.383 231.847 Q482.291 231.847 481.101 230.493 Q479.921 229.13 479.921 226.743 Q479.921 224.347 481.101 222.993 Q482.291 221.639 484.383 221.639 Z" fill="#000000" fill-rule="evenodd" fill-opacity="1" /><path clip-path="url(#clip900)" d="M496.414 218.089 L496.414 219.417 L494.886 219.417 Q494.027 219.417 493.688 219.764 Q493.358 220.111 493.358 221.014 L493.358 221.874 L495.988 221.874 L495.988 223.115 L493.358 223.115 L493.358 231.596 L491.752 231.596 L491.752 223.115 L490.225 223.115 L490.225 221.874 L491.752 221.874 L491.752 221.196 Q491.752 219.573 492.508 218.835 Q493.263 218.089 494.903 218.089 L496.414 218.089 Z" fill="#000000" fill-rule="evenodd" fill-opacity="1" /><path clip-path="url(#clip900)" d="M502.672 218.089 L502.672 219.417 L501.145 219.417 Q500.285 219.417 499.947 219.764 Q499.617 220.111 499.617 221.014 L499.617 221.874 L502.247 221.874 L502.247 223.115 L499.617 223.115 L499.617 231.596 L498.011 231.596 L498.011 223.115 L496.483 223.115 L496.483 221.874 L498.011 221.874 L498.011 221.196 Q498.011 219.573 498.766 218.835 Q499.521 218.089 501.162 218.089 L502.672 218.089 Z" fill="#000000" fill-rule="evenodd" fill-opacity="1" /><path clip-path="url(#clip900)" d="M510.207 222.16 L510.207 223.67 Q509.53 223.323 508.801 223.15 Q508.072 222.976 507.29 222.976 Q506.101 222.976 505.502 223.341 Q504.912 223.705 504.912 224.434 Q504.912 224.99 505.337 225.311 Q505.763 225.624 507.047 225.91 L507.594 226.032 Q509.296 226.396 510.007 227.064 Q510.728 227.724 510.728 228.913 Q510.728 230.268 509.652 231.058 Q508.584 231.847 506.709 231.847 Q505.928 231.847 505.077 231.691 Q504.235 231.544 503.297 231.24 L503.297 229.591 Q504.183 230.051 505.042 230.285 Q505.902 230.511 506.744 230.511 Q507.872 230.511 508.48 230.129 Q509.087 229.738 509.087 229.035 Q509.087 228.384 508.645 228.037 Q508.211 227.689 506.726 227.368 L506.171 227.238 Q504.686 226.926 504.027 226.283 Q503.367 225.632 503.367 224.504 Q503.367 223.132 504.339 222.386 Q505.311 221.639 507.1 221.639 Q507.985 221.639 508.766 221.769 Q509.547 221.9 510.207 222.16 Z" fill="#000000" fill-rule="evenodd" fill-opacity="1" /><path clip-path="url(#clip900)" d="M521.353 225.728 L521.353 231.596 L519.756 231.596 L519.756 225.78 Q519.756 224.4 519.218 223.714 Q518.679 223.028 517.603 223.028 Q516.31 223.028 515.563 223.853 Q514.816 224.677 514.816 226.101 L514.816 231.596 L513.211 231.596 L513.211 218.089 L514.816 218.089 L514.816 223.384 Q515.389 222.507 516.162 222.073 Q516.943 221.639 517.959 221.639 Q519.634 221.639 520.494 222.681 Q521.353 223.714 521.353 225.728 Z" fill="#000000" fill-rule="evenodd" fill-opacity="1" /><path clip-path="url(#clip900)" d="M528.306 222.993 Q527.021 222.993 526.275 224 Q525.528 224.999 525.528 226.743 Q525.528 228.488 526.266 229.495 Q527.013 230.493 528.306 230.493 Q529.582 230.493 530.329 229.486 Q531.075 228.479 531.075 226.743 Q531.075 225.016 530.329 224.009 Q529.582 222.993 528.306 222.993 M528.306 221.639 Q530.389 221.639 531.579 222.993 Q532.768 224.347 532.768 226.743 Q532.768 229.13 531.579 230.493 Q530.389 231.847 528.306 231.847 Q526.214 231.847 525.025 230.493 Q523.844 229.13 523.844 226.743 Q523.844 224.347 525.025 222.993 Q526.214 221.639 528.306 221.639 Z" fill="#000000" fill-rule="evenodd" fill-opacity="1" /><path clip-path="url(#clip900)" d="M541.049 223.367 Q540.78 223.21 540.459 223.141 Q540.146 223.063 539.764 223.063 Q538.41 223.063 537.681 223.948 Q536.96 224.825 536.96 226.474 L536.96 231.596 L535.355 231.596 L535.355 221.874 L536.96 221.874 L536.96 223.384 Q537.464 222.499 538.271 222.073 Q539.079 221.639 540.233 221.639 Q540.398 221.639 540.598 221.665 Q540.797 221.683 541.04 221.726 L541.049 223.367 Z" fill="#000000" fill-rule="evenodd" fill-opacity="1" /><path clip-path="url(#clip900)" d="M550.65 226.335 L550.65 227.117 L543.306 227.117 Q543.41 228.766 544.295 229.634 Q545.19 230.493 546.778 230.493 Q547.698 230.493 548.558 230.268 Q549.426 230.042 550.276 229.591 L550.276 231.101 Q549.417 231.466 548.514 231.656 Q547.611 231.847 546.683 231.847 Q544.356 231.847 542.993 230.493 Q541.639 229.139 541.639 226.83 Q541.639 224.443 542.924 223.045 Q544.217 221.639 546.405 221.639 Q548.367 221.639 549.504 222.907 Q550.65 224.165 550.65 226.335 M549.052 225.867 Q549.035 224.556 548.315 223.775 Q547.603 222.993 546.422 222.993 Q545.085 222.993 544.278 223.749 Q543.48 224.504 543.358 225.875 L549.052 225.867 Z" fill="#000000" fill-rule="evenodd" fill-opacity="1" /><path clip-path="url(#clip900)" d="M553.019 218.106 L554.408 218.106 Q555.71 220.155 556.353 222.117 Q557.004 224.078 557.004 226.014 Q557.004 227.959 556.353 229.929 Q555.71 231.9 554.408 233.939 L553.019 233.939 Q554.174 231.952 554.738 229.99 Q555.311 228.019 555.311 226.014 Q555.311 224.009 554.738 222.056 Q554.174 220.103 553.019 218.106 Z" fill="#000000" fill-rule="evenodd" fill-opacity="1" /><polyline clip-path="url(#clip900)" style="stroke:#c271d2; stroke-linecap:round; stroke-linejoin:round; stroke-width:1.5; stroke-opacity:1; fill:none" points="265.198,244.556 399.827,244.556 "/>
<path clip-path="url(#clip900)" d="M424.018 244.847 L424.018 249.595 L426.831 249.595 Q428.246 249.595 428.923 249.013 Q429.609 248.423 429.609 247.216 Q429.609 246.001 428.923 245.428 Q428.246 244.847 426.831 244.847 L424.018 244.847 M424.018 239.517 L424.018 243.423 L426.614 243.423 Q427.899 243.423 428.524 242.945 Q429.157 242.459 429.157 241.47 Q429.157 240.489 428.524 240.003 Q427.899 239.517 426.614 239.517 L424.018 239.517 M422.265 238.076 L426.744 238.076 Q428.749 238.076 429.834 238.909 Q430.919 239.742 430.919 241.279 Q430.919 242.468 430.364 243.171 Q429.808 243.874 428.732 244.048 Q430.025 244.326 430.737 245.211 Q431.458 246.088 431.458 247.407 Q431.458 249.143 430.277 250.09 Q429.096 251.036 426.918 251.036 L422.265 251.036 L422.265 238.076 Z" fill="#000000" fill-rule="evenodd" fill-opacity="1" /><path clip-path="url(#clip900)" d="M434.227 247.199 L434.227 241.314 L435.824 241.314 L435.824 247.138 Q435.824 248.518 436.362 249.213 Q436.9 249.899 437.977 249.899 Q439.27 249.899 440.017 249.074 Q440.772 248.249 440.772 246.826 L440.772 241.314 L442.369 241.314 L442.369 251.036 L440.772 251.036 L440.772 249.543 Q440.19 250.428 439.418 250.862 Q438.654 251.287 437.638 251.287 Q435.963 251.287 435.095 250.246 Q434.227 249.204 434.227 247.199 M438.246 241.079 L438.246 241.079 Z" fill="#000000" fill-rule="evenodd" fill-opacity="1" /><path clip-path="url(#clip900)" d="M449.704 251.938 Q449.027 253.675 448.385 254.204 Q447.742 254.734 446.666 254.734 L445.39 254.734 L445.39 253.397 L446.327 253.397 Q446.987 253.397 447.352 253.084 Q447.716 252.772 448.159 251.609 L448.445 250.879 L444.513 241.314 L446.206 241.314 L449.244 248.918 L452.282 241.314 L453.975 241.314 L449.704 251.938 Z" fill="#000000" fill-rule="evenodd" fill-opacity="1" /><polyline clip-path="url(#clip900)" style="stroke:#ac8d18; stroke-linecap:round; stroke-linejoin:round; stroke-width:1.5; stroke-opacity:1; fill:none" points="265.198,263.996 399.827,263.996 "/>
<path clip-path="url(#clip900)" d="M430.607 257.941 L430.607 259.651 Q429.609 259.174 428.723 258.939 Q427.838 258.705 427.013 258.705 Q425.581 258.705 424.8 259.26 Q424.027 259.816 424.027 260.84 Q424.027 261.7 424.539 262.142 Q425.06 262.576 426.501 262.846 L427.56 263.063 Q429.522 263.436 430.451 264.382 Q431.388 265.319 431.388 266.899 Q431.388 268.783 430.121 269.755 Q428.862 270.727 426.423 270.727 Q425.503 270.727 424.461 270.519 Q423.428 270.311 422.317 269.903 L422.317 268.097 Q423.385 268.696 424.409 269 Q425.433 269.304 426.423 269.304 Q427.925 269.304 428.741 268.714 Q429.557 268.123 429.557 267.03 Q429.557 266.075 428.966 265.537 Q428.385 264.998 427.048 264.729 L425.98 264.521 Q424.018 264.13 423.142 263.297 Q422.265 262.464 422.265 260.979 Q422.265 259.26 423.471 258.271 Q424.687 257.281 426.813 257.281 Q427.725 257.281 428.671 257.446 Q429.617 257.611 430.607 257.941 Z" fill="#000000" fill-rule="evenodd" fill-opacity="1" /><path clip-path="url(#clip900)" d="M442.369 265.215 L442.369 265.997 L435.025 265.997 Q435.129 267.646 436.015 268.514 Q436.909 269.373 438.497 269.373 Q439.418 269.373 440.277 269.148 Q441.145 268.922 441.996 268.471 L441.996 269.981 Q441.136 270.346 440.234 270.536 Q439.331 270.727 438.402 270.727 Q436.076 270.727 434.713 269.373 Q433.359 268.019 433.359 265.71 Q433.359 263.323 434.643 261.925 Q435.937 260.519 438.124 260.519 Q440.086 260.519 441.223 261.787 Q442.369 263.045 442.369 265.215 M440.772 264.747 Q440.754 263.436 440.034 262.655 Q439.322 261.873 438.142 261.873 Q436.805 261.873 435.997 262.629 Q435.199 263.384 435.077 264.755 L440.772 264.747 Z" fill="#000000" fill-rule="evenodd" fill-opacity="1" /><path clip-path="url(#clip900)" d="M444.99 256.969 L446.588 256.969 L446.588 270.476 L444.99 270.476 L444.99 256.969 Z" fill="#000000" fill-rule="evenodd" fill-opacity="1" /><path clip-path="url(#clip900)" d="M449.93 256.969 L451.527 256.969 L451.527 270.476 L449.93 270.476 L449.93 256.969 Z" fill="#000000" fill-rule="evenodd" fill-opacity="1" /><polyline clip-path="url(#clip900)" style="stroke:#00a9ad; stroke-linecap:round; stroke-linejoin:round; stroke-width:1.5; stroke-opacity:1; fill:none" points="265.198,283.436 399.827,283.436 "/>
<path clip-path="url(#clip900)" d="M422.265 276.956 L430.459 276.956 L430.459 278.431 L424.018 278.431 L424.018 282.268 L430.19 282.268 L430.19 283.744 L424.018 283.744 L424.018 288.44 L430.616 288.44 L430.616 289.916 L422.265 289.916 L422.265 276.956 Z" fill="#000000" fill-rule="evenodd" fill-opacity="1" /><path clip-path="url(#clip900)" d="M433.428 276.409 L435.025 276.409 L435.025 289.916 L433.428 289.916 L433.428 276.409 Z" fill="#000000" fill-rule="evenodd" fill-opacity="1" /><path clip-path="url(#clip900)" d="M446.683 284.655 L446.683 285.437 L439.339 285.437 Q439.444 287.086 440.329 287.954 Q441.223 288.813 442.812 288.813 Q443.732 288.813 444.591 288.588 Q445.459 288.362 446.31 287.911 L446.31 289.421 Q445.451 289.786 444.548 289.976 Q443.645 290.167 442.716 290.167 Q440.39 290.167 439.027 288.813 Q437.673 287.459 437.673 285.15 Q437.673 282.763 438.958 281.365 Q440.251 279.959 442.438 279.959 Q444.4 279.959 445.537 281.227 Q446.683 282.485 446.683 284.655 M445.086 284.187 Q445.069 282.876 444.348 282.095 Q443.636 281.313 442.456 281.313 Q441.119 281.313 440.312 282.069 Q439.513 282.824 439.392 284.195 L445.086 284.187 Z" fill="#000000" fill-rule="evenodd" fill-opacity="1" /><path clip-path="url(#clip900)" d="M456.301 280.567 L456.301 282.06 Q455.624 281.687 454.938 281.504 Q454.261 281.313 453.567 281.313 Q452.013 281.313 451.154 282.303 Q450.294 283.284 450.294 285.063 Q450.294 286.843 451.154 287.832 Q452.013 288.813 453.567 288.813 Q454.261 288.813 454.938 288.631 Q455.624 288.44 456.301 288.067 L456.301 289.542 Q455.633 289.855 454.912 290.011 Q454.2 290.167 453.393 290.167 Q451.197 290.167 449.904 288.787 Q448.61 287.407 448.61 285.063 Q448.61 282.685 449.912 281.322 Q451.223 279.959 453.497 279.959 Q454.235 279.959 454.938 280.115 Q455.641 280.263 456.301 280.567 Z" fill="#000000" fill-rule="evenodd" fill-opacity="1" /><path clip-path="url(#clip900)" d="M460.659 277.433 L460.659 280.194 L463.949 280.194 L463.949 281.435 L460.659 281.435 L460.659 286.713 Q460.659 287.902 460.98 288.24 Q461.31 288.579 462.308 288.579 L463.949 288.579 L463.949 289.916 L462.308 289.916 Q460.459 289.916 459.756 289.23 Q459.053 288.536 459.053 286.713 L459.053 281.435 L457.881 281.435 L457.881 280.194 L459.053 280.194 L459.053 277.433 L460.659 277.433 Z" fill="#000000" fill-rule="evenodd" fill-opacity="1" /><path clip-path="url(#clip900)" d="M471.683 281.687 Q471.414 281.53 471.093 281.461 Q470.78 281.383 470.398 281.383 Q469.044 281.383 468.315 282.268 Q467.595 283.145 467.595 284.794 L467.595 289.916 L465.989 289.916 L465.989 280.194 L467.595 280.194 L467.595 281.704 Q468.098 280.819 468.905 280.393 Q469.713 279.959 470.867 279.959 Q471.032 279.959 471.232 279.985 Q471.431 280.003 471.674 280.046 L471.683 281.687 Z" fill="#000000" fill-rule="evenodd" fill-opacity="1" /><path clip-path="url(#clip900)" d="M476.735 281.313 Q475.45 281.313 474.704 282.32 Q473.957 283.319 473.957 285.063 Q473.957 286.808 474.695 287.815 Q475.442 288.813 476.735 288.813 Q478.011 288.813 478.758 287.806 Q479.504 286.799 479.504 285.063 Q479.504 283.336 478.758 282.329 Q478.011 281.313 476.735 281.313 M476.735 279.959 Q478.818 279.959 480.008 281.313 Q481.197 282.667 481.197 285.063 Q481.197 287.45 480.008 288.813 Q478.818 290.167 476.735 290.167 Q474.643 290.167 473.454 288.813 Q472.273 287.45 472.273 285.063 Q472.273 282.667 473.454 281.313 Q474.643 279.959 476.735 279.959 Z" fill="#000000" fill-rule="evenodd" fill-opacity="1" /><path clip-path="url(#clip900)" d="M483.844 276.409 L485.442 276.409 L485.442 289.916 L483.844 289.916 L483.844 276.409 Z" fill="#000000" fill-rule="evenodd" fill-opacity="1" /><path clip-path="url(#clip900)" d="M492.829 290.818 Q492.152 292.555 491.509 293.084 Q490.867 293.614 489.791 293.614 L488.515 293.614 L488.515 292.277 L489.452 292.277 Q490.112 292.277 490.476 291.964 Q490.841 291.652 491.284 290.489 L491.57 289.759 L487.638 280.194 L489.331 280.194 L492.369 287.798 L495.407 280.194 L497.1 280.194 L492.829 290.818 Z" fill="#000000" fill-rule="evenodd" fill-opacity="1" /><path clip-path="url(#clip900)" d="M498.61 280.194 L506.197 280.194 L506.197 281.652 L500.19 288.64 L506.197 288.64 L506.197 289.916 L498.393 289.916 L498.393 288.457 L504.4 281.47 L498.61 281.47 L498.61 280.194 Z" fill="#000000" fill-rule="evenodd" fill-opacity="1" /><path clip-path="url(#clip900)" d="M516.952 284.655 L516.952 285.437 L509.608 285.437 Q509.712 287.086 510.598 287.954 Q511.492 288.813 513.08 288.813 Q514.001 288.813 514.86 288.588 Q515.728 288.362 516.579 287.911 L516.579 289.421 Q515.719 289.786 514.816 289.976 Q513.914 290.167 512.985 290.167 Q510.659 290.167 509.296 288.813 Q507.942 287.459 507.942 285.15 Q507.942 282.763 509.226 281.365 Q510.52 279.959 512.707 279.959 Q514.669 279.959 515.806 281.227 Q516.952 282.485 516.952 284.655 M515.355 284.187 Q515.337 282.876 514.617 282.095 Q513.905 281.313 512.724 281.313 Q511.388 281.313 510.58 282.069 Q509.782 282.824 509.66 284.195 L515.355 284.187 Z" fill="#000000" fill-rule="evenodd" fill-opacity="1" /><path clip-path="url(#clip900)" d="M525.207 281.687 Q524.938 281.53 524.617 281.461 Q524.304 281.383 523.922 281.383 Q522.568 281.383 521.839 282.268 Q521.119 283.145 521.119 284.794 L521.119 289.916 L519.513 289.916 L519.513 280.194 L521.119 280.194 L521.119 281.704 Q521.622 280.819 522.429 280.393 Q523.237 279.959 524.391 279.959 Q524.556 279.959 524.756 279.985 Q524.955 280.003 525.198 280.046 L525.207 281.687 Z" fill="#000000" fill-rule="evenodd" fill-opacity="1" /><path clip-path="url(#clip900)" d="M175.445 1423.18 L2194.88 1423.18 L2194.88 123.472 L175.445 123.472  Z" fill="#000000" fill-rule="evenodd" fill-opacity="0"/>
<polyline clip-path="url(#clip900)" style="stroke:#000000; stroke-linecap:round; stroke-linejoin:round; stroke-width:4; stroke-opacity:1; fill:none" points="2194.88,1423.18 2194.88,123.472 "/>
<polyline clip-path="url(#clip900)" style="stroke:#000000; stroke-linecap:round; stroke-linejoin:round; stroke-width:4; stroke-opacity:1; fill:none" points="2194.88,1363.32 2175.98,1363.32 "/>
<polyline clip-path="url(#clip900)" style="stroke:#000000; stroke-linecap:round; stroke-linejoin:round; stroke-width:4; stroke-opacity:1; fill:none" points="2194.88,1139.29 2175.98,1139.29 "/>
<polyline clip-path="url(#clip900)" style="stroke:#000000; stroke-linecap:round; stroke-linejoin:round; stroke-width:4; stroke-opacity:1; fill:none" points="2194.88,915.252 2175.98,915.252 "/>
<polyline clip-path="url(#clip900)" style="stroke:#000000; stroke-linecap:round; stroke-linejoin:round; stroke-width:4; stroke-opacity:1; fill:none" points="2194.88,691.217 2175.98,691.217 "/>
<polyline clip-path="url(#clip900)" style="stroke:#000000; stroke-linecap:round; stroke-linejoin:round; stroke-width:4; stroke-opacity:1; fill:none" points="2194.88,467.183 2175.98,467.183 "/>
<polyline clip-path="url(#clip900)" style="stroke:#000000; stroke-linecap:round; stroke-linejoin:round; stroke-width:4; stroke-opacity:1; fill:none" points="2194.88,243.149 2175.98,243.149 "/>
<path clip-path="url(#clip900)" d="M2246.5 1361.97 Q2249.86 1362.68 2251.74 1364.95 Q2253.63 1367.22 2253.63 1370.55 Q2253.63 1375.67 2250.12 1378.47 Q2246.6 1381.27 2240.12 1381.27 Q2237.94 1381.27 2235.62 1380.83 Q2233.33 1380.41 2230.88 1379.56 L2230.88 1375.04 Q2232.82 1376.18 2235.14 1376.76 Q2237.45 1377.34 2239.98 1377.34 Q2244.37 1377.34 2246.67 1375.6 Q2248.98 1373.86 2248.98 1370.55 Q2248.98 1367.5 2246.83 1365.79 Q2244.7 1364.05 2240.88 1364.05 L2236.85 1364.05 L2236.85 1360.21 L2241.06 1360.21 Q2244.51 1360.21 2246.34 1358.84 Q2248.17 1357.45 2248.17 1354.86 Q2248.17 1352.2 2246.27 1350.79 Q2244.4 1349.35 2240.88 1349.35 Q2238.96 1349.35 2236.76 1349.77 Q2234.56 1350.18 2231.92 1351.06 L2231.92 1346.9 Q2234.58 1346.16 2236.9 1345.79 Q2239.24 1345.42 2241.3 1345.42 Q2246.62 1345.42 2249.72 1347.85 Q2252.82 1350.25 2252.82 1354.37 Q2252.82 1357.24 2251.18 1359.23 Q2249.54 1361.2 2246.5 1361.97 Z" fill="#000000" fill-rule="evenodd" fill-opacity="1" /><path clip-path="url(#clip900)" d="M2272.5 1349.12 Q2268.89 1349.12 2267.06 1352.68 Q2265.25 1356.23 2265.25 1363.35 Q2265.25 1370.46 2267.06 1374.03 Q2268.89 1377.57 2272.5 1377.57 Q2276.13 1377.57 2277.94 1374.03 Q2279.77 1370.46 2279.77 1363.35 Q2279.77 1356.23 2277.94 1352.68 Q2276.13 1349.12 2272.5 1349.12 M2272.5 1345.42 Q2278.31 1345.42 2281.36 1350.02 Q2284.44 1354.6 2284.44 1363.35 Q2284.44 1372.08 2281.36 1376.69 Q2278.31 1381.27 2272.5 1381.27 Q2266.69 1381.27 2263.61 1376.69 Q2260.55 1372.08 2260.55 1363.35 Q2260.55 1354.6 2263.61 1350.02 Q2266.69 1345.42 2272.5 1345.42 Z" fill="#000000" fill-rule="evenodd" fill-opacity="1" /><path clip-path="url(#clip900)" d="M2246.48 1126.08 L2234.68 1144.53 L2246.48 1144.53 L2246.48 1126.08 M2245.25 1122.01 L2251.13 1122.01 L2251.13 1144.53 L2256.06 1144.53 L2256.06 1148.42 L2251.13 1148.42 L2251.13 1156.57 L2246.48 1156.57 L2246.48 1148.42 L2230.88 1148.42 L2230.88 1143.9 L2245.25 1122.01 Z" fill="#000000" fill-rule="evenodd" fill-opacity="1" /><path clip-path="url(#clip900)" d="M2273.8 1125.08 Q2270.18 1125.08 2268.36 1128.65 Q2266.55 1132.19 2266.55 1139.32 Q2266.55 1146.43 2268.36 1149.99 Q2270.18 1153.53 2273.8 1153.53 Q2277.43 1153.53 2279.24 1149.99 Q2281.06 1146.43 2281.06 1139.32 Q2281.06 1132.19 2279.24 1128.65 Q2277.43 1125.08 2273.8 1125.08 M2273.8 1121.38 Q2279.61 1121.38 2282.66 1125.99 Q2285.74 1130.57 2285.74 1139.32 Q2285.74 1148.05 2282.66 1152.65 Q2279.61 1157.24 2273.8 1157.24 Q2267.99 1157.24 2264.91 1152.65 Q2261.85 1148.05 2261.85 1139.32 Q2261.85 1130.57 2264.91 1125.99 Q2267.99 1121.38 2273.8 1121.38 Z" fill="#000000" fill-rule="evenodd" fill-opacity="1" /><path clip-path="url(#clip900)" d="M2232.34 897.972 L2250.69 897.972 L2250.69 901.907 L2236.62 901.907 L2236.62 910.379 Q2237.64 910.032 2238.66 909.87 Q2239.68 909.685 2240.69 909.685 Q2246.48 909.685 2249.86 912.856 Q2253.24 916.027 2253.24 921.444 Q2253.24 927.022 2249.77 930.124 Q2246.3 933.203 2239.98 933.203 Q2237.8 933.203 2235.53 932.833 Q2233.29 932.462 2230.88 931.721 L2230.88 927.022 Q2232.96 928.157 2235.18 928.712 Q2237.41 929.268 2239.88 929.268 Q2243.89 929.268 2246.23 927.161 Q2248.56 925.055 2248.56 921.444 Q2248.56 917.833 2246.23 915.726 Q2243.89 913.62 2239.88 913.62 Q2238.01 913.62 2236.13 914.036 Q2234.28 914.453 2232.34 915.333 L2232.34 897.972 Z" fill="#000000" fill-rule="evenodd" fill-opacity="1" /><path clip-path="url(#clip900)" d="M2272.45 901.05 Q2268.84 901.05 2267.01 904.615 Q2265.21 908.157 2265.21 915.286 Q2265.21 922.393 2267.01 925.958 Q2268.84 929.499 2272.45 929.499 Q2276.09 929.499 2277.89 925.958 Q2279.72 922.393 2279.72 915.286 Q2279.72 908.157 2277.89 904.615 Q2276.09 901.05 2272.45 901.05 M2272.45 897.347 Q2278.26 897.347 2281.32 901.953 Q2284.4 906.536 2284.4 915.286 Q2284.4 924.013 2281.32 928.62 Q2278.26 933.203 2272.45 933.203 Q2266.64 933.203 2263.56 928.62 Q2260.51 924.013 2260.51 915.286 Q2260.51 906.536 2263.56 901.953 Q2266.64 897.347 2272.45 897.347 Z" fill="#000000" fill-rule="evenodd" fill-opacity="1" /><path clip-path="url(#clip900)" d="M2243.22 689.354 Q2240.07 689.354 2238.22 691.507 Q2236.39 693.66 2236.39 697.41 Q2236.39 701.136 2238.22 703.312 Q2240.07 705.465 2243.22 705.465 Q2246.37 705.465 2248.19 703.312 Q2250.05 701.136 2250.05 697.41 Q2250.05 693.66 2248.19 691.507 Q2246.37 689.354 2243.22 689.354 M2252.5 674.701 L2252.5 678.961 Q2250.74 678.127 2248.93 677.687 Q2247.15 677.248 2245.39 677.248 Q2240.76 677.248 2238.31 680.373 Q2235.88 683.498 2235.53 689.817 Q2236.9 687.803 2238.96 686.738 Q2241.02 685.65 2243.49 685.65 Q2248.7 685.65 2251.71 688.822 Q2254.74 691.97 2254.74 697.41 Q2254.74 702.734 2251.6 705.951 Q2248.45 709.169 2243.22 709.169 Q2237.22 709.169 2234.05 704.585 Q2230.88 699.979 2230.88 691.252 Q2230.88 683.058 2234.77 678.197 Q2238.66 673.312 2245.21 673.312 Q2246.97 673.312 2248.75 673.66 Q2250.55 674.007 2252.5 674.701 Z" fill="#000000" fill-rule="evenodd" fill-opacity="1" /><path clip-path="url(#clip900)" d="M2272.8 677.016 Q2269.19 677.016 2267.36 680.581 Q2265.55 684.123 2265.55 691.252 Q2265.55 698.359 2267.36 701.923 Q2269.19 705.465 2272.8 705.465 Q2276.43 705.465 2278.24 701.923 Q2280.07 698.359 2280.07 691.252 Q2280.07 684.123 2278.24 680.581 Q2276.43 677.016 2272.8 677.016 M2272.8 673.312 Q2278.61 673.312 2281.67 677.919 Q2284.74 682.502 2284.74 691.252 Q2284.74 699.979 2281.67 704.585 Q2278.61 709.169 2272.8 709.169 Q2266.99 709.169 2263.91 704.585 Q2260.86 699.979 2260.86 691.252 Q2260.86 682.502 2263.91 677.919 Q2266.99 673.312 2272.8 673.312 Z" fill="#000000" fill-rule="evenodd" fill-opacity="1" /><path clip-path="url(#clip900)" d="M2230.88 449.903 L2253.1 449.903 L2253.1 451.894 L2240.55 484.463 L2235.67 484.463 L2247.48 453.838 L2230.88 453.838 L2230.88 449.903 Z" fill="#000000" fill-rule="evenodd" fill-opacity="1" /><path clip-path="url(#clip900)" d="M2272.22 452.982 Q2268.61 452.982 2266.78 456.547 Q2264.98 460.088 2264.98 467.218 Q2264.98 474.324 2266.78 477.889 Q2268.61 481.431 2272.22 481.431 Q2275.86 481.431 2277.66 477.889 Q2279.49 474.324 2279.49 467.218 Q2279.49 460.088 2277.66 456.547 Q2275.86 452.982 2272.22 452.982 M2272.22 449.278 Q2278.03 449.278 2281.09 453.885 Q2284.17 458.468 2284.17 467.218 Q2284.17 475.945 2281.09 480.551 Q2278.03 485.134 2272.22 485.134 Q2266.41 485.134 2263.33 480.551 Q2260.28 475.945 2260.28 467.218 Q2260.28 458.468 2263.33 453.885 Q2266.41 449.278 2272.22 449.278 Z" fill="#000000" fill-rule="evenodd" fill-opacity="1" /><path clip-path="url(#clip900)" d="M2242.73 244.017 Q2239.4 244.017 2237.48 245.799 Q2235.58 247.582 2235.58 250.707 Q2235.58 253.832 2237.48 255.614 Q2239.4 257.397 2242.73 257.397 Q2246.06 257.397 2247.99 255.614 Q2249.91 253.809 2249.91 250.707 Q2249.91 247.582 2247.99 245.799 Q2246.09 244.017 2242.73 244.017 M2238.05 242.026 Q2235.05 241.286 2233.36 239.225 Q2231.69 237.165 2231.69 234.202 Q2231.69 230.059 2234.63 227.651 Q2237.59 225.244 2242.73 225.244 Q2247.89 225.244 2250.83 227.651 Q2253.77 230.059 2253.77 234.202 Q2253.77 237.165 2252.08 239.225 Q2250.42 241.286 2247.43 242.026 Q2250.81 242.813 2252.68 245.105 Q2254.58 247.397 2254.58 250.707 Q2254.58 255.73 2251.5 258.415 Q2248.45 261.1 2242.73 261.1 Q2237.01 261.1 2233.93 258.415 Q2230.88 255.73 2230.88 250.707 Q2230.88 247.397 2232.78 245.105 Q2234.68 242.813 2238.05 242.026 M2236.34 234.642 Q2236.34 237.327 2238.01 238.832 Q2239.7 240.336 2242.73 240.336 Q2245.74 240.336 2247.43 238.832 Q2249.14 237.327 2249.14 234.642 Q2249.14 231.957 2247.43 230.452 Q2245.74 228.948 2242.73 228.948 Q2239.7 228.948 2238.01 230.452 Q2236.34 231.957 2236.34 234.642 Z" fill="#000000" fill-rule="evenodd" fill-opacity="1" /><path clip-path="url(#clip900)" d="M2272.89 228.948 Q2269.28 228.948 2267.45 232.512 Q2265.65 236.054 2265.65 243.184 Q2265.65 250.29 2267.45 253.855 Q2269.28 257.397 2272.89 257.397 Q2276.53 257.397 2278.33 253.855 Q2280.16 250.29 2280.16 243.184 Q2280.16 236.054 2278.33 232.512 Q2276.53 228.948 2272.89 228.948 M2272.89 225.244 Q2278.7 225.244 2281.76 229.85 Q2284.84 234.434 2284.84 243.184 Q2284.84 251.91 2281.76 256.517 Q2278.7 261.1 2272.89 261.1 Q2267.08 261.1 2264 256.517 Q2260.95 251.91 2260.95 243.184 Q2260.95 234.434 2264 229.85 Q2267.08 225.244 2272.89 225.244 Z" fill="#000000" fill-rule="evenodd" fill-opacity="1" /><path clip-path="url(#clip900)" d="M2336.53 988.917 L2354.38 988.917 L2354.38 980.832 Q2354.38 976.344 2352.06 973.893 Q2349.74 971.443 2345.44 971.443 Q2341.17 971.443 2338.85 973.893 Q2336.53 976.344 2336.53 980.832 L2336.53 988.917 M2331.24 995.346 L2331.24 980.832 Q2331.24 972.843 2334.87 968.769 Q2338.47 964.663 2345.44 964.663 Q2352.47 964.663 2356.07 968.769 Q2359.67 972.843 2359.67 980.832 L2359.67 988.917 L2378.76 988.917 L2378.76 995.346 L2331.24 995.346 Z" fill="#000000" fill-rule="evenodd" fill-opacity="1" /><path clip-path="url(#clip900)" d="M2348.59 936.781 Q2348.02 937.768 2347.76 938.946 Q2347.48 940.092 2347.48 941.492 Q2347.48 946.457 2350.72 949.131 Q2353.94 951.773 2359.99 951.773 L2378.76 951.773 L2378.76 957.661 L2343.12 957.661 L2343.12 951.773 L2348.65 951.773 Q2345.41 949.927 2343.85 946.967 Q2342.26 944.006 2342.26 939.773 Q2342.26 939.169 2342.35 938.436 Q2342.42 937.704 2342.57 936.813 L2348.59 936.781 Z" fill="#000000" fill-rule="evenodd" fill-opacity="1" /><path clip-path="url(#clip900)" d="M2343.12 930.639 L2343.12 924.782 L2378.76 924.782 L2378.76 930.639 L2343.12 930.639 M2329.24 930.639 L2329.24 924.782 L2336.65 924.782 L2336.65 930.639 L2329.24 930.639 Z" fill="#000000" fill-rule="evenodd" fill-opacity="1" /><path clip-path="url(#clip900)" d="M2344.48 886.874 L2349.96 886.874 Q2348.59 889.357 2347.92 891.871 Q2347.22 894.354 2347.22 896.9 Q2347.22 902.598 2350.85 905.749 Q2354.45 908.9 2360.97 908.9 Q2367.5 908.9 2371.12 905.749 Q2374.72 902.598 2374.72 896.9 Q2374.72 894.354 2374.05 891.871 Q2373.35 889.357 2371.98 886.874 L2377.4 886.874 Q2378.54 889.325 2379.11 891.967 Q2379.69 894.577 2379.69 897.537 Q2379.69 905.589 2374.63 910.332 Q2369.57 915.074 2360.97 915.074 Q2352.25 915.074 2347.25 910.3 Q2342.26 905.494 2342.26 897.155 Q2342.26 894.449 2342.83 891.871 Q2343.37 889.293 2344.48 886.874 Z" fill="#000000" fill-rule="evenodd" fill-opacity="1" /><path clip-path="url(#clip900)" d="M2359.48 846.197 L2362.34 846.197 L2362.34 873.124 Q2368.39 872.742 2371.57 869.496 Q2374.72 866.218 2374.72 860.393 Q2374.72 857.019 2373.89 853.868 Q2373.07 850.685 2371.41 847.566 L2376.95 847.566 Q2378.29 850.717 2378.99 854.027 Q2379.69 857.337 2379.69 860.743 Q2379.69 869.273 2374.72 874.27 Q2369.76 879.235 2361.29 879.235 Q2352.54 879.235 2347.41 874.525 Q2342.26 869.782 2342.26 861.762 Q2342.26 854.568 2346.9 850.399 Q2351.52 846.197 2359.48 846.197 M2357.76 852.054 Q2352.95 852.118 2350.09 854.759 Q2347.22 857.369 2347.22 861.698 Q2347.22 866.6 2349.99 869.56 Q2352.76 872.488 2357.79 872.933 L2357.76 852.054 Z" fill="#000000" fill-rule="evenodd" fill-opacity="1" /><path clip-path="url(#clip900)" d="M2329.3 801.797 Q2336.62 806.062 2343.78 808.13 Q2350.95 810.199 2358.3 810.199 Q2365.65 810.199 2372.88 808.13 Q2380.07 806.03 2387.36 801.797 L2387.36 806.889 Q2379.88 811.663 2372.65 814.051 Q2365.43 816.406 2358.3 816.406 Q2351.2 816.406 2344.01 814.051 Q2336.81 811.695 2329.3 806.889 L2329.3 801.797 Z" fill="#000000" fill-rule="evenodd" fill-opacity="1" /><path clip-path="url(#clip900)" d="M2334.9 759.433 L2341.68 759.433 Q2338.34 762.329 2336.91 765.035 Q2335.48 767.708 2335.48 770.955 Q2335.48 775.952 2338.66 779.167 Q2341.84 782.381 2347.79 783.4 L2347.79 765.035 L2351.71 766.785 L2351.71 783.909 Q2352.47 783.973 2353.21 784.004 Q2353.94 784.004 2355.05 784.004 Q2356.07 784.004 2356.8 784.004 Q2357.53 783.973 2358.3 783.909 L2358.3 769.713 L2362.21 771.496 L2362.21 783.4 Q2368.16 782.381 2371.38 779.167 Q2374.59 775.952 2374.59 770.955 Q2374.59 767.708 2373.16 765.035 Q2371.73 762.329 2368.39 759.433 L2375.1 759.433 Q2377.4 762.266 2378.54 765.226 Q2379.69 768.154 2379.69 771.209 Q2379.69 778.753 2375.07 783.686 Q2370.46 788.588 2362.21 789.861 L2362.21 796.577 L2358.3 794.826 L2358.3 790.402 Q2357.57 790.402 2356.83 790.434 Q2356.07 790.434 2355.05 790.434 Q2353.94 790.434 2353.21 790.434 Q2352.44 790.402 2351.71 790.402 L2351.71 796.577 L2347.79 794.826 L2347.79 789.861 Q2339.61 788.588 2335 783.654 Q2330.38 778.721 2330.38 771.209 Q2330.38 768.09 2331.53 765.162 Q2332.64 762.202 2334.9 759.433 Z" fill="#000000" fill-rule="evenodd" fill-opacity="1" /><path clip-path="url(#clip900)" d="M2331.24 738.553 L2331.24 733.142 L2384.81 749.693 L2384.81 755.104 L2331.24 738.553 Z" fill="#000000" fill-rule="evenodd" fill-opacity="1" /><path clip-path="url(#clip900)" d="M2331.24 726.745 L2331.24 717.165 L2363.58 705.038 L2331.24 692.848 L2331.24 683.267 L2378.76 683.267 L2378.76 689.537 L2337.04 689.537 L2369.63 701.791 L2369.63 708.253 L2337.04 720.507 L2378.76 720.507 L2378.76 726.745 L2331.24 726.745 Z" fill="#000000" fill-rule="evenodd" fill-opacity="1" /><path clip-path="url(#clip900)" d="M2331.24 674.737 L2331.24 668.244 L2371.41 658.25 L2331.24 648.288 L2331.24 641.063 L2371.41 631.068 L2331.24 621.106 L2331.24 614.581 L2378.76 626.517 L2378.76 634.601 L2337.51 644.627 L2378.76 654.749 L2378.76 662.833 L2331.24 674.737 Z" fill="#000000" fill-rule="evenodd" fill-opacity="1" /><path clip-path="url(#clip900)" d="M2357.25 576.673 L2378.76 576.673 L2378.76 582.53 L2357.44 582.53 Q2352.38 582.53 2349.86 584.503 Q2347.35 586.477 2347.35 590.423 Q2347.35 595.166 2350.37 597.903 Q2353.4 600.64 2358.62 600.64 L2378.76 600.64 L2378.76 606.529 L2329.24 606.529 L2329.24 600.64 L2348.65 600.64 Q2345.44 598.54 2343.85 595.707 Q2342.26 592.842 2342.26 589.118 Q2342.26 582.975 2346.08 579.824 Q2349.86 576.673 2357.25 576.673 Z" fill="#000000" fill-rule="evenodd" fill-opacity="1" /><path clip-path="url(#clip900)" d="M2329.3 565.915 L2329.3 560.823 Q2336.81 556.049 2344.01 553.693 Q2351.2 551.306 2358.3 551.306 Q2365.43 551.306 2372.65 553.693 Q2379.88 556.049 2387.36 560.823 L2387.36 565.915 Q2380.07 561.682 2372.88 559.613 Q2365.65 557.513 2358.3 557.513 Q2350.95 557.513 2343.78 559.613 Q2336.62 561.682 2329.3 565.915 Z" fill="#000000" fill-rule="evenodd" fill-opacity="1" /><polyline clip-path="url(#clip902)" style="stroke:#000000; stroke-linecap:round; stroke-linejoin:round; stroke-width:4; stroke-opacity:1; fill:none" stroke-dasharray="16, 10" points="232.599,491.379 244.007,579.648 255.415,685.169 266.823,915.924 278.231,967.676 289.639,960.059 301.047,920.853 312.455,800.546 323.863,1031.75 335.27,924.661 346.678,793.377 358.086,632.52 369.494,749.466 380.902,898.225 392.31,917.044 403.718,914.131 415.126,901.81 426.534,675.087 437.942,903.826 449.35,974.621 460.758,906.29 472.166,970.588 483.574,891.504 494.982,970.14 506.39,980.222 517.798,995.904 529.205,1049.67 540.613,1052.36 552.021,1006.66 563.429,860.139 574.837,721.91 586.245,577.408 597.653,342.172 609.061,250.318 620.469,371.073 631.877,384.291 643.285,460.238 654.693,469.424 666.101,501.909 677.509,467.183 688.917,384.291 700.325,160.256 711.733,437.163 723.14,503.477 734.548,652.684 745.956,829.895 757.364,915.7 768.772,878.734 780.18,1012.03 791.588,1016.29 802.996,1027.27 814.404,1054.15 825.812,1007.11 837.22,989.631 848.628,878.286 860.036,861.259 871.444,856.555 882.852,854.538 894.26,399.973 905.668,399.973 917.075,490.483 928.483,598.915 939.891,699.955 951.299,352.03 962.707,361.887 974.115,399.973 985.523,510.422 996.931,834.151 1008.34,852.074 1019.75,638.345 1031.15,871.565 1042.56,915.252 1053.97,963.643 1065.38,1002.4 1076.79,1003.07 1088.19,968.572 1099.6,785.984 1111.01,498.324 1122.42,374.209 1133.83,356.734 1145.23,386.755 1156.64,439.627 1168.05,528.345 1179.46,576.064 1190.87,633.865 1202.27,745.882 1213.68,758.652 1225.09,404.006 1236.5,850.506 1247.91,915.252 1259.31,892.848 1270.72,937.655 1282.13,970.364 1293.54,1040.71 1304.95,1213.22 1316.35,1014.72 1327.76,1085.52 1339.17,1219.49 1350.58,1094.48 1361.99,901.138 1373.39,747.002 1384.8,541.339 1396.21,559.037 1407.62,507.509 1419.02,825.638 1430.43,890.832 1441.84,913.011 1453.25,857.899 1464.66,826.758 1476.06,593.314 1487.47,340.828 1498.88,372.641 1510.29,781.279 1521.7,809.283 1533.1,914.804 1544.51,856.107 1555.92,908.307 1567.33,891.28 1578.74,923.989 1590.14,945.944 1601.55,1027.27 1612.96,1060.87 1624.37,915.252 1635.78,808.163 1647.18,690.769 1658.59,468.079 1670,461.134 1681.41,437.387 1692.82,834.375 1704.22,859.691 1715.63,893.744 1727.04,899.793 1738.45,889.04 1749.86,579.2 1761.26,867.98 1772.67,886.575 1784.08,889.04 1795.49,974.173 1806.89,994.784 1818.3,1007.55 1829.71,986.943 1841.12,994.112 1852.53,937.655 1863.93,1056.62 1875.34,1259.59 1886.75,1386.4 1898.16,1139.29 1909.57,1177.37 1920.97,975.069 1932.38,942.136 1943.79,881.647 1955.2,881.198 1966.61,893.072 1978.01,915.252 1989.42,896.433 2000.83,874.477 2012.24,411.175 2023.65,880.526 2035.05,876.494 2046.46,953.786 2057.87,968.796 2069.28,1025.03 2080.69,1090 2092.09,993.216 2103.5,1085.52 2114.91,994.112 2126.32,996.576 2137.73,1027.27 "/>
<path clip-path="url(#clip900)" d="M1884.94 205.676 L2127.56 205.676 L2127.56 166.796 L1884.94 166.796  Z" fill="#ffffff" fill-rule="evenodd" fill-opacity="1"/>
<polyline clip-path="url(#clip900)" style="stroke:#000000; stroke-linecap:round; stroke-linejoin:round; stroke-width:4; stroke-opacity:1; fill:none" points="1884.94,205.676 2127.56,205.676 2127.56,166.796 1884.94,166.796 1884.94,205.676 "/>
<polyline clip-path="url(#clip900)" style="stroke:#000000; stroke-linecap:round; stroke-linejoin:round; stroke-width:1.5; stroke-opacity:1; fill:none" stroke-dasharray="8, 5" points="1907.38,186.236 2042.01,186.236 "/>
<path clip-path="url(#clip900)" d="M2066.2 181.197 L2066.2 186.066 L2068.41 186.066 Q2069.63 186.066 2070.3 185.433 Q2070.97 184.799 2070.97 183.627 Q2070.97 182.464 2070.3 181.83 Q2069.63 181.197 2068.41 181.197 L2066.2 181.197 M2064.45 179.756 L2068.41 179.756 Q2070.59 179.756 2071.7 180.745 Q2072.82 181.726 2072.82 183.627 Q2072.82 185.546 2071.7 186.527 Q2070.59 187.507 2068.41 187.507 L2066.2 187.507 L2066.2 192.716 L2064.45 192.716 L2064.45 179.756 Z" fill="#000000" fill-rule="evenodd" fill-opacity="1" /><path clip-path="url(#clip900)" d="M2080.42 184.487 Q2080.15 184.33 2079.83 184.261 Q2079.52 184.183 2079.14 184.183 Q2077.78 184.183 2077.05 185.068 Q2076.33 185.945 2076.33 187.594 L2076.33 192.716 L2074.73 192.716 L2074.73 182.994 L2076.33 182.994 L2076.33 184.504 Q2076.84 183.619 2077.64 183.193 Q2078.45 182.759 2079.61 182.759 Q2079.77 182.759 2079.97 182.785 Q2080.17 182.803 2080.41 182.846 L2080.42 184.487 Z" fill="#000000" fill-rule="evenodd" fill-opacity="1" /><path clip-path="url(#clip900)" d="M2082.1 182.994 L2083.69 182.994 L2083.69 192.716 L2082.1 192.716 L2082.1 182.994 M2082.1 179.209 L2083.69 179.209 L2083.69 181.231 L2082.1 181.231 L2082.1 179.209 Z" fill="#000000" fill-rule="evenodd" fill-opacity="1" /><path clip-path="url(#clip900)" d="M2094.03 183.367 L2094.03 184.86 Q2093.36 184.487 2092.67 184.304 Q2091.99 184.113 2091.3 184.113 Q2089.74 184.113 2088.89 185.103 Q2088.03 186.084 2088.03 187.863 Q2088.03 189.643 2088.89 190.632 Q2089.74 191.613 2091.3 191.613 Q2091.99 191.613 2092.67 191.431 Q2093.36 191.24 2094.03 190.867 L2094.03 192.342 Q2093.36 192.655 2092.64 192.811 Q2091.93 192.967 2091.12 192.967 Q2088.93 192.967 2087.64 191.587 Q2086.34 190.207 2086.34 187.863 Q2086.34 185.485 2087.64 184.122 Q2088.95 182.759 2091.23 182.759 Q2091.97 182.759 2092.67 182.915 Q2093.37 183.063 2094.03 183.367 Z" fill="#000000" fill-rule="evenodd" fill-opacity="1" /><path clip-path="url(#clip900)" d="M2105.13 187.455 L2105.13 188.237 L2097.78 188.237 Q2097.89 189.886 2098.77 190.754 Q2099.67 191.613 2101.25 191.613 Q2102.18 191.613 2103.03 191.388 Q2103.9 191.162 2104.75 190.711 L2104.75 192.221 Q2103.89 192.586 2102.99 192.776 Q2102.09 192.967 2101.16 192.967 Q2098.83 192.967 2097.47 191.613 Q2096.12 190.259 2096.12 187.95 Q2096.12 185.563 2097.4 184.165 Q2098.69 182.759 2100.88 182.759 Q2102.84 182.759 2103.98 184.027 Q2105.13 185.285 2105.13 187.455 M2103.53 186.987 Q2103.51 185.676 2102.79 184.895 Q2102.08 184.113 2100.9 184.113 Q2099.56 184.113 2098.75 184.869 Q2097.96 185.624 2097.83 186.995 L2103.53 186.987 Z" fill="#000000" fill-rule="evenodd" fill-opacity="1" /></svg>
